{"glyphs":{"0":{"ha":985,"x_min":34,"x_max":951,"o":"m 451 3 q 189 129 297 26 q 38 422 66 248 q 34 496 34 456 q 38 571 34 538 q 164 833 64 728 q 412 966 264 938 q 480 970 439 970 q 551 966 521 970 q 780 857 681 943 q 924 640 879 770 q 951 473 951 555 q 902 258 951 363 q 589 9 802 58 q 557 5 575 6 q 511 3 540 3 l 472 3 q 451 3 455 3 m 195 686 q 308 817 227 757 q 336 841 330 833 q 341 855 341 849 q 340 861 341 858 q 323 875 334 875 q 294 863 311 875 q 157 713 201 796 q 149 686 149 696 q 161 665 149 671 q 172 663 167 663 q 195 686 185 663 m 144 568 q 155 582 153 575 q 157 591 157 588 q 154 602 157 597 q 146 611 151 608 q 130 614 141 614 q 104 588 104 612 q 114 567 104 572 q 128 562 123 562 q 144 568 136 562 m 551 245 q 604 323 584 262 q 623 450 623 382 q 621 488 623 469 q 581 650 615 578 q 523 721 544 720 q 500 722 501 722 q 432 656 460 722 q 409 562 411 604 q 408 510 408 520 q 422 390 408 448 q 473 274 443 307 q 528 240 503 240 q 551 245 539 240 z "},"1":{"ha":613,"x_min":34,"x_max":579,"o":"m 364 24 q 283 92 311 41 q 240 426 240 170 q 237 533 240 503 q 227 578 235 564 q 207 602 218 600 q 191 604 196 604 q 140 595 172 604 q 90 587 111 587 q 57 596 68 587 q 39 618 44 606 q 34 654 34 631 q 39 696 34 682 q 258 912 92 834 q 414 951 349 951 q 560 829 529 951 q 572 746 568 796 q 578 580 576 696 q 579 418 579 487 q 574 246 579 292 q 446 28 549 65 q 413 22 428 22 q 394 21 399 21 q 364 24 377 21 m 213 779 q 219 783 216 780 q 226 788 223 785 q 259 809 235 795 q 307 834 283 823 q 338 846 331 846 q 346 850 341 846 q 354 860 351 854 q 358 869 358 865 q 351 884 358 877 q 336 890 344 890 q 296 878 324 890 q 239 850 268 866 q 194 820 210 833 q 184 809 186 813 q 181 798 181 805 q 189 780 181 785 q 201 776 196 776 q 213 779 207 776 m 159 713 q 167 729 167 720 q 163 741 167 735 q 151 752 157 752 q 144 753 145 753 q 124 744 134 753 q 118 736 119 739 q 117 731 117 734 q 118 725 117 728 q 129 707 121 709 q 140 705 137 705 q 159 713 150 705 z "},"2":{"ha":919,"x_min":34,"x_max":885,"o":"m 328 -4 q 221 23 273 1 q 148 71 170 44 q 125 146 125 105 q 186 296 125 212 q 219 332 202 317 q 261 365 236 348 q 428 493 389 454 q 475 548 453 518 q 508 602 496 577 q 518 627 515 617 q 522 650 521 636 q 522 661 522 656 q 509 704 522 690 q 460 722 493 722 l 454 722 q 369 696 416 720 q 260 620 332 678 q 188 570 212 582 q 139 557 164 557 l 133 557 q 51 602 79 557 q 34 661 34 629 q 57 745 34 699 q 224 910 101 840 q 237 918 231 915 q 243 921 242 921 q 250 924 243 921 q 266 931 257 927 q 373 967 317 956 q 470 978 428 978 q 500 977 486 978 q 728 899 642 966 q 831 766 795 850 q 860 642 860 699 q 858 614 860 628 q 829 523 850 566 q 803 481 819 505 q 776 445 787 457 q 770 438 774 443 q 762 429 766 434 q 755 421 759 425 q 625 323 711 372 q 552 274 584 300 q 519 240 519 249 q 562 226 519 226 q 659 235 596 226 q 754 243 713 243 q 836 230 806 243 q 874 196 863 218 q 885 155 885 174 q 883 138 885 146 q 851 87 875 107 q 524 -3 762 11 q 469 -4 498 -4 q 419 -5 439 -5 l 382 -5 q 328 -4 345 -5 m 262 826 q 319 865 289 846 q 366 888 350 883 q 384 901 381 894 q 386 911 386 907 q 378 926 386 918 q 363 932 373 932 q 325 920 349 932 q 276 890 302 907 q 229 858 249 873 q 206 838 210 843 q 205 828 205 833 q 212 811 205 818 q 225 806 218 806 q 231 806 228 806 q 262 826 241 810 m 170 745 q 182 756 177 748 q 188 770 188 764 q 180 784 188 776 q 164 793 172 791 l 160 793 q 137 774 144 793 q 136 766 136 770 q 149 745 136 752 q 155 742 153 743 q 157 741 156 741 q 161 742 159 741 q 170 745 164 743 z "},"3":{"ha":871,"x_min":34,"x_max":837,"o":"m 286 9 q 265 13 275 11 q 252 15 256 14 l 239 18 l 231 20 q 56 113 101 52 q 35 182 35 145 q 39 214 35 197 q 86 299 48 262 q 110 320 100 313 q 136 334 119 327 q 158 344 146 340 q 177 350 170 349 q 210 353 194 353 q 286 335 250 353 q 303 323 292 331 q 326 307 315 315 q 382 268 361 280 q 419 251 402 256 q 439 248 429 248 q 475 258 457 248 q 483 262 478 260 q 489 263 487 263 q 504 275 494 263 q 520 299 513 286 q 525 311 524 306 q 526 319 526 315 q 525 326 526 322 q 471 394 522 370 q 449 403 462 399 q 413 413 437 407 q 348 428 390 418 q 259 494 259 446 l 259 503 q 260 513 259 509 q 267 532 261 520 q 291 562 275 547 q 340 597 307 576 q 387 630 373 618 q 406 654 400 642 q 413 674 413 667 q 405 689 412 680 q 347 717 386 709 q 284 721 323 721 q 208 717 246 721 q 156 713 176 713 q 117 718 136 713 q 43 767 61 728 q 36 785 37 779 q 34 800 34 791 l 34 805 q 57 863 34 840 q 263 949 115 923 q 480 967 371 967 q 540 966 510 967 q 628 959 596 962 q 690 949 661 956 q 811 877 789 932 q 820 840 820 859 q 801 783 820 812 q 771 747 789 765 q 714 696 753 729 q 662 650 677 665 q 641 620 646 634 q 635 598 635 608 q 644 574 635 585 q 660 560 649 568 q 700 538 671 553 q 761 504 741 517 q 794 475 781 490 q 826 427 817 449 q 836 373 835 405 q 837 357 837 364 q 836 344 837 349 q 831 317 836 333 q 728 146 809 223 q 620 66 676 94 q 424 8 522 18 q 369 6 400 6 l 353 6 q 286 9 311 6 m 422 890 q 447 891 433 890 q 470 892 461 892 q 485 893 480 892 q 493 895 490 893 q 499 899 496 896 q 506 913 506 906 q 498 929 506 921 q 491 934 494 932 q 484 937 488 936 q 470 937 479 937 q 436 935 460 937 q 387 931 411 933 q 352 927 362 929 q 334 917 337 924 q 332 906 332 909 q 338 890 332 898 q 344 885 341 887 q 352 884 347 884 q 370 885 358 884 q 396 887 381 886 q 422 890 410 888 m 275 874 q 281 890 281 882 q 279 898 281 894 q 266 910 274 909 q 255 912 258 912 q 236 903 245 912 q 228 886 228 895 q 229 882 228 884 q 243 866 230 871 q 254 864 248 864 q 275 874 266 864 z "},"4":{"ha":983,"x_min":34,"x_max":949,"o":"m 583 15 q 546 23 566 17 q 515 37 527 30 q 508 46 512 40 q 500 59 503 52 q 495 71 496 66 q 493 85 493 76 q 494 114 493 95 q 496 157 496 140 l 496 167 q 490 192 495 184 q 474 203 485 199 q 460 207 467 207 q 448 208 453 208 q 422 207 438 208 q 357 201 399 205 q 283 197 320 197 q 212 201 248 197 q 75 252 112 211 q 34 353 34 296 l 34 364 q 120 553 39 455 q 144 580 127 562 q 180 618 161 599 q 221 663 199 638 q 260 704 244 687 q 369 814 313 762 q 463 896 425 867 q 604 958 536 950 q 631 960 618 960 q 770 865 731 960 q 789 784 787 831 q 792 688 792 736 q 789 551 792 632 q 789 517 789 532 q 789 492 789 503 q 797 458 791 471 q 804 449 799 452 q 819 444 808 446 q 850 441 829 442 q 876 440 866 441 q 891 437 885 439 q 905 432 898 435 q 949 353 949 412 l 949 342 q 905 237 946 275 q 879 221 892 224 q 844 218 866 218 l 825 218 q 809 217 814 218 q 793 212 800 216 q 783 206 785 209 q 780 197 780 203 l 780 194 q 783 167 780 185 q 783 155 783 161 q 738 52 783 101 q 625 12 703 12 q 583 15 606 12 m 366 696 q 384 713 368 698 q 422 751 400 729 q 464 790 445 772 q 488 812 482 807 q 506 838 506 825 q 505 842 506 840 q 486 857 498 857 q 460 846 475 857 q 429 819 449 838 q 388 780 408 800 q 355 747 367 760 q 340 728 344 734 q 336 715 336 722 q 344 699 336 704 q 358 694 352 694 q 366 696 362 694 m 307 624 q 319 640 316 629 q 321 650 321 646 q 318 660 321 654 q 307 671 313 668 q 295 673 300 673 q 288 672 291 673 q 272 656 273 665 q 271 644 271 646 q 282 623 271 630 q 293 619 288 619 l 294 619 q 307 624 299 619 m 497 534 l 497 578 q 490 607 496 606 q 482 608 484 608 q 456 592 471 608 q 407 533 430 566 q 368 474 383 501 q 362 465 365 470 q 351 447 355 456 q 347 431 347 437 q 347 426 347 429 q 362 413 349 417 q 393 410 378 410 q 469 439 435 410 q 493 486 488 461 q 497 534 497 510 z "},"5":{"ha":852,"x_min":34,"x_max":819,"o":"m 363 17 q 304 22 332 19 q 268 26 276 24 q 259 28 264 27 q 251 30 255 28 q 247 31 249 30 q 195 44 229 34 q 142 64 161 55 q 38 181 57 104 q 34 221 34 202 q 111 349 34 305 q 185 368 148 368 q 254 351 220 368 q 279 337 269 345 q 309 310 290 329 q 375 258 350 269 q 420 248 399 248 q 443 250 431 248 q 486 270 465 255 q 517 302 507 285 q 523 327 523 315 q 513 359 523 342 q 448 409 494 395 q 296 426 402 423 q 193 440 227 428 q 162 452 172 447 q 142 468 153 457 q 104 585 104 504 q 126 735 104 646 q 153 811 138 783 q 199 869 168 839 q 247 908 224 894 q 300 932 270 923 q 371 948 333 943 q 480 956 409 954 q 552 957 521 957 q 614 955 590 957 q 689 934 658 950 q 751 874 732 913 q 759 859 756 865 q 761 846 761 852 q 762 826 762 839 q 761 806 762 813 q 759 793 761 800 q 751 778 756 787 q 618 708 718 708 q 595 709 606 708 q 569 712 585 709 q 524 719 553 714 q 489 721 505 721 q 410 690 431 721 q 406 681 407 686 q 404 672 404 676 q 497 623 404 629 q 518 621 509 622 q 528 620 526 621 q 535 618 528 619 q 551 617 541 618 q 650 593 602 613 q 775 491 732 557 q 819 358 819 425 q 817 336 819 347 q 782 224 810 283 q 720 127 755 164 q 555 33 658 64 q 475 19 517 22 q 405 16 434 16 q 363 17 384 16 m 239 771 q 246 779 242 774 q 254 789 250 784 q 285 820 263 804 q 333 849 307 836 q 355 861 348 857 q 365 870 363 865 q 368 881 368 874 q 365 892 368 888 q 357 899 363 895 q 346 902 352 902 q 342 901 344 902 q 315 891 334 899 q 230 831 267 868 q 203 787 203 804 q 212 770 203 777 q 226 764 219 764 q 239 771 233 764 m 198 690 q 205 707 205 697 q 205 711 205 709 q 191 729 202 723 q 178 732 184 732 q 167 729 172 732 q 157 708 157 722 q 180 683 159 683 q 198 690 191 683 z "},"6":{"ha":956,"x_min":34,"x_max":922,"o":"m 458 12 q 218 77 307 31 q 75 236 123 133 q 54 299 64 262 q 41 368 45 336 q 38 395 40 382 q 35 414 37 408 q 34 435 34 422 q 37 480 34 453 q 50 564 41 527 q 117 720 73 653 q 158 771 132 743 q 208 819 184 800 q 477 947 328 913 q 584 962 543 961 q 639 964 625 964 q 722 956 688 964 q 818 886 793 937 q 824 872 822 878 q 826 859 825 867 q 826 835 826 850 q 826 811 826 819 q 823 797 825 803 q 817 783 821 791 q 758 730 800 752 q 612 694 701 699 q 420 642 469 683 q 399 617 404 628 q 395 601 395 606 q 401 587 395 593 q 425 581 406 581 q 493 591 448 581 q 618 608 574 608 q 632 608 626 608 q 763 574 703 604 q 848 513 811 553 q 871 486 863 498 q 889 454 879 475 q 922 317 922 388 q 910 229 922 274 q 825 84 884 133 q 763 48 801 65 q 684 24 725 32 q 590 11 634 14 q 524 9 547 9 q 458 12 488 9 m 268 736 q 370 813 320 785 q 410 849 410 834 q 406 859 410 853 q 397 869 402 865 q 388 873 392 873 q 366 863 384 873 q 326 840 349 854 q 277 803 303 825 q 231 762 250 781 q 208 734 211 743 q 208 728 208 731 q 213 713 208 720 q 228 705 219 705 q 233 706 231 705 q 245 715 235 707 q 268 736 256 724 m 186 623 q 192 632 191 629 q 193 637 193 635 q 192 642 193 640 q 168 664 189 664 q 148 655 153 664 q 142 637 142 646 q 142 632 142 635 q 158 614 145 621 q 165 613 162 613 q 186 623 176 613 m 515 239 q 539 255 526 242 q 559 305 559 279 q 552 338 559 321 q 479 388 532 383 q 424 361 435 386 q 413 321 413 336 q 429 272 413 298 q 494 237 455 237 q 515 239 504 237 z "},"7":{"ha":845,"x_min":20,"x_max":825,"o":"m 315 7 q 273 17 295 9 q 238 33 252 24 q 170 169 170 80 l 170 181 q 247 408 182 303 q 388 603 311 512 q 435 696 435 663 q 433 706 435 701 q 421 718 431 713 q 390 728 412 723 q 360 733 372 732 q 345 734 348 734 q 303 731 327 734 q 222 723 250 726 q 184 721 195 721 q 166 720 173 720 l 153 720 q 28 780 55 726 q 21 797 22 791 q 20 808 20 802 q 21 820 20 813 q 27 852 22 839 q 48 880 33 865 q 448 967 135 965 l 457 967 q 705 944 623 967 q 814 863 788 920 q 821 848 819 854 q 824 834 823 842 q 825 815 825 827 l 825 809 q 820 772 825 786 q 816 759 818 764 q 814 751 814 753 q 798 713 814 744 q 760 648 781 682 q 724 595 739 614 q 681 539 705 571 q 648 493 658 507 q 586 373 605 423 q 559 252 568 323 q 545 172 553 209 q 528 117 536 135 q 505 80 517 98 q 483 52 493 62 q 448 29 471 41 q 405 11 424 16 q 369 6 387 7 q 340 5 350 5 q 315 7 326 5 m 322 886 q 349 887 331 886 q 386 888 367 888 q 411 888 402 888 q 425 889 420 888 q 432 891 430 890 q 437 895 435 892 q 444 910 444 903 q 437 926 444 918 l 429 934 l 369 932 q 294 927 317 931 q 265 915 271 923 q 260 901 260 908 l 260 899 q 268 884 260 890 q 274 881 271 881 q 279 880 277 880 q 288 881 283 880 q 304 883 294 882 q 322 886 313 884 m 205 865 q 214 884 214 874 q 213 890 214 887 q 193 907 210 903 q 188 907 191 907 q 184 907 186 907 q 175 900 180 905 q 166 880 166 890 q 173 864 166 872 q 188 857 180 857 q 205 865 197 857 z "},"8":{"ha":938,"x_min":34,"x_max":904,"o":"m 299 9 q 130 83 199 26 q 45 212 71 135 q 37 239 39 227 q 35 273 35 252 q 34 290 34 282 q 50 365 34 334 q 124 452 68 402 q 161 487 149 474 q 174 507 172 500 q 176 518 176 513 q 174 530 176 524 q 160 562 172 545 q 123 604 149 578 q 99 631 109 618 q 85 649 88 644 q 73 715 73 676 l 73 722 q 90 805 75 765 q 116 848 99 823 q 145 884 134 873 q 287 948 199 928 q 395 961 328 957 q 517 965 461 965 l 555 964 q 667 956 629 964 q 827 852 773 933 q 847 808 839 834 q 859 754 856 781 q 861 726 861 736 q 858 703 861 716 q 792 569 846 640 q 759 505 762 530 l 759 496 q 763 487 759 492 q 777 474 767 482 q 803 450 786 465 l 807 446 q 877 353 852 406 q 893 312 887 331 q 902 269 899 294 q 904 245 904 255 q 901 222 903 236 q 764 76 885 131 q 648 34 705 48 q 510 12 590 19 q 448 9 486 9 q 382 8 411 8 l 355 8 q 299 9 313 8 m 184 764 q 222 819 197 793 q 273 858 246 844 q 289 865 281 863 q 300 868 297 868 q 317 876 311 868 q 322 890 322 884 q 320 899 322 895 q 296 913 313 913 q 290 912 294 913 q 253 898 275 909 q 213 872 231 887 q 166 821 188 851 q 139 771 144 791 l 139 769 q 143 754 139 762 q 155 744 148 746 q 161 743 158 743 q 184 764 176 743 m 161 669 q 169 688 169 678 q 167 697 169 692 q 144 711 161 711 q 125 702 131 711 q 119 684 119 692 q 119 678 119 681 q 133 661 121 666 q 141 659 137 659 q 161 669 152 659 m 477 640 q 511 707 511 660 q 473 767 511 758 q 465 768 469 768 q 418 732 437 768 q 413 718 414 726 q 412 695 412 711 q 412 677 412 684 q 414 667 412 671 q 420 657 416 663 q 439 640 428 646 q 458 634 450 634 l 460 634 q 468 636 463 635 q 477 640 473 638 m 474 215 q 506 259 496 228 q 515 318 515 290 q 514 344 515 331 q 486 414 509 391 q 476 424 479 421 q 468 428 472 427 q 457 429 465 429 q 442 427 446 429 q 431 419 437 425 q 402 363 406 392 q 399 323 399 334 q 413 251 399 286 q 433 223 420 235 q 456 211 446 211 q 466 212 460 211 q 474 215 471 214 z "},"9":{"ha":956,"x_min":34,"x_max":922,"o":"m 285 9 q 138 86 170 18 q 133 100 135 94 q 131 114 132 106 q 130 138 130 122 q 131 162 130 154 q 134 175 132 170 q 140 189 136 181 q 199 242 156 220 q 345 279 255 273 q 536 330 487 290 q 557 355 553 344 q 561 372 561 366 q 555 386 561 380 q 532 392 550 392 q 463 382 508 392 q 338 364 383 364 q 324 365 331 364 q 192 399 252 369 q 146 425 165 411 q 109 459 127 438 q 85 486 93 475 q 67 519 77 498 q 34 656 34 585 q 46 743 34 699 q 104 863 65 814 q 268 949 170 935 q 418 964 366 964 q 622 938 517 964 q 687 917 656 928 q 738 895 718 906 q 882 736 833 840 q 903 673 893 711 q 915 604 912 636 q 918 578 916 591 q 921 559 920 566 q 922 536 922 550 q 920 492 922 518 q 907 409 916 446 q 840 252 884 319 q 798 201 824 230 q 748 153 772 172 q 474 24 627 58 q 386 12 430 16 q 313 9 342 9 q 285 9 298 9 m 155 722 q 161 731 157 725 q 168 745 165 738 q 277 852 203 819 l 287 857 q 302 864 298 862 q 310 872 307 867 q 313 883 313 878 q 312 888 313 885 q 303 899 311 895 q 289 903 296 903 l 285 903 q 232 879 264 899 q 178 838 199 859 q 142 791 159 817 q 120 747 126 766 q 119 741 119 744 q 121 732 119 736 q 128 721 123 725 q 140 718 134 718 l 142 718 q 155 722 151 718 m 126 637 q 132 654 132 646 q 125 671 132 664 q 109 678 119 678 l 106 678 q 91 670 96 677 q 85 655 85 663 q 85 648 85 652 q 98 632 90 634 q 110 630 106 630 q 126 637 119 630 m 514 595 q 537 625 532 608 q 543 654 543 642 q 541 672 543 663 q 507 723 530 709 q 463 736 484 736 q 441 734 452 736 q 417 717 429 730 q 400 688 405 704 q 398 667 398 677 q 429 603 398 629 q 476 585 452 585 q 514 595 494 585 z "},"\u0000":{"ha":339,"x_min":0,"x_max":0,"o":""},"\u001d":{"ha":339,"x_min":0,"x_max":0,"o":""}," ":{"ha":339,"x_min":0,"x_max":0,"o":""}," ":{"ha":339,"x_min":0,"x_max":0,"o":""},"!":{"ha":502,"x_min":68,"x_max":434,"o":"m 213 342 q 122 516 151 355 q 94 760 94 657 q 102 856 94 813 q 116 903 106 878 q 132 943 125 929 q 181 986 151 972 q 239 1000 212 1000 q 256 998 248 1000 q 294 985 273 995 q 327 963 315 975 q 386 772 382 911 q 387 743 387 758 q 378 600 387 674 q 351 456 368 511 q 317 389 338 418 q 272 347 295 359 q 249 340 260 341 q 235 340 239 340 q 213 342 223 340 m 197 628 q 202 636 201 633 q 203 641 203 639 q 203 646 203 644 q 196 719 197 678 q 195 781 195 760 q 197 844 195 815 q 198 864 198 858 q 197 873 198 870 q 192 879 195 876 q 176 886 184 886 q 161 880 168 886 q 152 851 155 874 q 150 785 150 828 l 150 762 q 159 637 151 667 q 172 621 165 623 q 180 619 178 619 q 197 628 189 619 m 200 536 q 207 553 207 545 q 205 564 207 559 q 184 580 199 580 q 163 569 166 578 q 159 556 159 560 q 168 538 159 547 q 185 530 176 530 q 200 536 193 530 m 232 -16 q 188 -3 211 -12 q 148 16 165 6 q 107 49 126 29 q 79 87 88 68 q 68 137 68 114 q 116 218 68 184 q 219 246 164 246 q 288 236 252 246 q 425 134 383 210 q 432 115 431 123 q 434 90 434 107 q 432 66 434 74 q 426 50 431 59 q 330 -16 399 1 q 290 -20 313 -20 l 281 -20 q 232 -16 252 -20 m 153 123 q 161 135 157 126 q 165 153 165 144 q 157 168 165 159 q 142 176 149 176 q 127 172 135 176 q 115 162 119 168 q 113 149 113 155 q 116 134 113 142 q 136 120 123 120 q 145 121 140 120 q 153 123 150 121 z "},"\"":{"ha":1058,"x_min":68,"x_max":990,"o":"m 249 678 q 193 675 227 675 q 165 675 188 675 q 122 681 142 676 q 94 696 107 686 q 73 718 80 706 q 68 746 68 730 q 68 758 68 747 q 76 783 68 768 q 135 850 90 809 q 226 919 180 890 q 365 973 311 973 q 380 972 373 973 q 503 895 465 957 q 509 864 509 882 q 509 851 509 862 q 500 824 509 841 q 491 808 497 817 q 478 793 484 800 q 449 769 470 785 q 404 739 427 754 q 366 717 380 724 q 309 695 345 707 q 249 678 273 683 m 335 886 q 342 881 338 882 q 353 880 347 880 q 376 893 372 880 q 378 901 378 897 q 369 920 378 910 q 351 930 360 930 q 336 922 344 930 q 328 903 328 912 q 335 886 328 895 m 730 678 q 674 675 707 675 q 646 675 669 675 q 603 681 623 676 q 574 696 588 686 q 554 718 561 706 q 549 746 549 730 q 549 758 549 747 q 557 783 549 768 q 616 850 571 809 q 707 919 661 890 q 846 973 792 973 q 861 972 854 973 q 983 895 946 957 q 990 864 990 882 q 990 851 990 862 q 981 824 989 841 q 971 808 978 817 q 959 793 965 800 q 929 769 951 785 q 885 739 908 754 q 846 717 861 724 q 790 695 826 707 q 730 678 753 683 m 816 886 q 823 881 819 882 q 834 880 827 880 q 857 893 852 880 q 859 901 859 897 q 850 920 859 910 q 832 930 841 930 q 817 922 825 930 q 808 903 808 912 q 816 886 808 895 z "},"#":{"ha":1497,"x_min":68,"x_max":1430,"o":"m 310 -88 q 290 -77 300 -85 q 271 -58 279 -68 q 255 -25 264 -48 q 241 20 245 -1 q 237 76 237 42 l 237 86 q 242 157 237 126 q 256 214 248 184 q 144 220 187 214 q 82 262 96 229 q 68 317 68 295 q 77 361 68 340 q 154 420 94 407 q 315 433 218 433 l 344 433 q 382 525 380 511 q 389 546 383 528 q 351 545 370 545 q 244 551 286 545 q 181 594 195 561 q 168 649 168 627 q 176 693 168 671 q 254 752 194 738 q 418 764 318 764 q 472 764 444 764 q 604 983 537 912 q 711 1055 649 1033 q 732 1061 723 1059 q 755 1063 741 1063 q 778 1061 771 1063 q 794 1055 785 1060 q 850 938 850 1021 q 849 919 850 928 q 805 766 844 861 l 849 766 q 912 767 881 766 q 1044 983 977 912 q 1150 1055 1088 1033 q 1172 1061 1162 1059 q 1195 1063 1181 1063 q 1218 1061 1211 1063 q 1234 1055 1225 1060 q 1289 939 1289 1021 q 1289 919 1289 929 q 1244 763 1283 860 q 1371 741 1318 756 q 1418 692 1407 728 q 1430 633 1430 657 q 1423 592 1430 612 q 1358 540 1409 548 q 1251 536 1319 536 q 1141 538 1203 536 q 1097 441 1120 491 q 1094 435 1095 438 q 1271 409 1201 430 q 1318 361 1306 396 q 1330 302 1330 326 q 1323 260 1330 281 q 1258 208 1310 216 q 1156 205 1221 205 q 998 208 1091 205 q 990 189 994 198 l 985 175 q 928 50 954 96 q 873 -28 903 3 q 764 -90 812 -90 q 749 -88 757 -90 q 729 -77 740 -85 q 710 -58 718 -68 q 694 -25 703 -48 q 680 20 686 -1 q 676 76 676 42 l 676 86 q 682 157 676 126 q 695 214 687 184 l 566 215 l 562 215 q 545 175 553 195 q 489 50 515 96 q 433 -28 463 3 q 325 -90 373 -90 q 310 -88 317 -90 m 705 546 q 702 538 703 542 q 654 434 678 488 q 757 435 703 434 l 785 435 q 822 525 821 511 q 828 545 822 528 q 735 545 783 545 q 705 546 720 546 m 1014 762 q 1022 777 1016 765 q 1034 805 1027 789 q 1070 878 1057 861 q 1074 891 1074 884 l 1074 893 q 1068 908 1074 902 q 1055 915 1062 915 q 1030 893 1043 915 q 1013 858 1023 882 q 992 811 1002 833 q 982 782 983 789 l 982 780 q 992 760 982 766 q 1002 758 997 758 q 1014 762 1008 758 m 979 672 q 984 689 984 680 q 982 701 984 694 q 964 715 977 715 q 947 706 955 715 q 939 687 939 696 q 948 666 939 669 q 960 663 957 663 q 979 672 970 663 m 574 762 q 582 777 576 765 q 595 805 588 789 q 630 878 618 861 q 635 891 635 884 l 635 893 q 629 908 634 902 q 616 915 623 915 q 591 893 604 915 q 573 858 584 882 q 553 811 562 833 q 543 782 544 789 l 543 780 q 553 760 543 766 q 562 758 557 758 q 574 762 568 758 m 538 672 q 545 690 545 680 q 543 701 545 695 q 524 715 538 715 q 508 706 516 715 q 499 687 499 696 q 508 666 499 669 q 521 663 517 663 q 538 672 530 663 z "},"$":{"ha":820,"x_min":68,"x_max":752,"o":"m 397 -151 q 295 -39 332 -139 q 260 15 281 0 q 191 37 240 30 q 130 53 152 43 q 93 81 108 63 q 72 120 75 102 q 68 146 68 138 q 75 178 68 163 q 228 255 106 237 q 379 298 351 273 q 385 315 385 304 q 383 326 385 319 q 364 365 379 344 q 328 400 355 378 q 267 447 302 422 q 82 642 117 551 q 68 714 68 678 q 74 760 68 737 q 136 850 89 817 q 180 873 153 861 q 229 892 206 885 q 286 920 281 907 q 288 940 287 923 q 290 979 289 956 q 295 1046 291 1023 q 309 1084 299 1068 q 389 1125 336 1125 q 425 1121 405 1125 q 506 1067 484 1107 q 510 1057 509 1062 q 512 1041 511 1051 q 512 1011 512 1031 q 513 980 512 993 q 514 965 513 966 q 529 964 515 964 q 563 962 543 963 q 626 957 602 962 q 676 939 650 952 q 732 889 718 917 q 745 844 745 861 q 737 812 745 827 q 652 753 715 774 q 604 743 630 746 q 536 738 578 739 q 478 734 498 737 q 446 723 459 730 q 422 694 422 712 q 428 673 422 684 q 449 646 434 660 q 495 610 465 632 q 589 544 558 566 q 634 510 620 522 q 663 484 648 498 q 752 300 752 398 q 749 267 752 284 q 608 95 733 132 q 570 80 583 88 q 551 62 557 73 q 547 51 548 56 q 545 34 545 45 q 545 -3 545 22 q 538 -79 545 -58 q 511 -117 532 -100 q 422 -153 471 -153 q 397 -151 410 -153 m 169 694 q 172 698 171 696 q 174 703 174 701 q 181 722 174 709 q 197 747 188 734 q 236 782 210 764 q 283 806 261 799 q 304 831 304 812 q 283 851 302 851 q 240 836 270 851 q 188 802 211 821 q 149 756 165 783 q 132 713 132 729 q 140 691 132 695 q 153 687 148 687 q 169 694 161 687 m 194 597 q 207 611 205 604 q 208 620 208 618 q 199 638 208 629 q 180 647 191 647 q 172 646 176 647 q 157 623 157 640 q 170 597 157 604 q 182 593 178 593 q 194 597 186 593 z "},"%":{"ha":1655,"x_min":68,"x_max":1588,"o":"m 1206 6 q 1004 108 1079 29 q 941 258 941 175 q 1003 405 941 342 q 1175 491 1066 467 q 1229 497 1205 497 q 1257 497 1253 497 q 1324 492 1295 497 q 1519 395 1444 470 q 1588 243 1588 323 q 1575 173 1588 209 q 1341 5 1520 39 q 1273 2 1314 2 q 1206 6 1231 2 m 500 55 q 447 100 460 60 q 442 141 442 116 l 442 147 q 448 199 442 176 q 602 465 479 311 q 713 598 646 520 q 842 745 780 676 q 907 812 871 776 q 973 877 943 848 q 1016 914 1004 906 q 1079 946 1042 932 q 1149 965 1116 960 q 1168 966 1159 966 q 1240 937 1211 966 q 1255 913 1251 925 q 1259 886 1259 902 l 1259 876 q 1034 523 1259 787 q 921 387 987 466 q 823 271 854 309 q 515 54 637 54 q 500 55 507 54 m 937 703 q 948 715 941 707 q 963 733 955 724 q 987 759 971 743 q 1019 791 1002 775 q 1039 811 1031 804 q 1050 823 1047 819 q 1055 831 1054 828 q 1055 838 1055 834 q 1054 849 1055 845 q 1048 856 1053 852 q 1036 861 1042 861 q 1021 854 1030 861 q 993 829 1011 846 q 941 777 967 805 q 906 735 916 749 q 901 719 901 727 l 901 717 q 909 701 902 707 q 922 696 916 696 q 937 703 930 696 m 866 623 q 879 638 878 628 q 881 652 881 648 q 875 672 881 663 q 859 680 867 680 q 852 679 856 680 q 836 659 841 675 q 834 647 834 652 q 844 627 834 635 q 851 621 848 621 q 854 620 854 620 q 866 623 859 620 m 370 493 q 94 651 173 519 q 68 745 68 698 q 80 809 68 777 q 309 967 134 935 q 374 970 336 970 q 442 966 412 970 q 708 777 646 930 q 715 752 714 762 q 717 720 717 741 q 715 687 717 697 q 709 663 713 677 q 584 530 678 578 q 490 500 539 508 q 404 492 441 492 q 370 493 387 492 m 184 803 q 269 871 218 844 q 292 886 284 880 q 302 895 300 891 q 305 905 305 899 q 290 926 305 922 q 283 926 286 926 l 279 926 q 263 920 273 925 q 233 903 252 914 q 178 862 203 885 q 147 827 152 837 q 142 813 142 818 q 149 799 142 806 q 155 792 151 794 q 164 791 159 791 q 174 793 170 791 q 184 803 178 796 m 152 721 q 159 738 159 730 q 153 752 159 745 q 137 762 146 762 q 124 758 131 762 q 111 746 113 752 q 110 736 110 739 q 115 722 110 729 q 134 713 121 713 q 144 714 140 713 q 152 721 148 716 m 404 691 q 437 743 437 704 q 412 788 437 776 q 392 793 401 793 q 365 781 378 793 q 345 739 345 763 q 365 697 345 713 q 380 689 375 690 q 389 688 386 688 q 404 691 395 688 m 1060 330 q 1135 380 1083 354 q 1155 391 1148 387 q 1165 398 1162 395 q 1169 406 1168 401 q 1170 412 1170 409 l 1170 414 q 1166 421 1169 418 q 1147 432 1160 432 l 1143 432 q 1095 410 1128 429 q 1048 380 1069 395 q 1023 355 1028 364 q 1020 342 1020 349 q 1023 333 1020 338 q 1035 323 1028 323 q 1042 322 1041 322 q 1060 330 1052 322 m 1014 241 q 1023 255 1019 245 q 1027 271 1027 264 q 1022 284 1027 278 q 1009 292 1017 290 q 1003 293 1006 293 q 988 287 995 293 q 978 271 979 278 q 977 261 977 264 q 984 244 977 252 q 996 238 990 239 q 1002 238 1001 238 q 1014 241 1008 238 m 1268 207 q 1301 241 1298 221 q 1303 265 1303 260 q 1282 306 1303 292 q 1271 310 1276 309 q 1261 308 1267 310 q 1221 251 1221 294 q 1242 208 1221 220 q 1253 204 1250 204 q 1257 204 1256 204 q 1268 207 1262 204 z "},"&":{"ha":1114,"x_min":68,"x_max":1046,"o":"m 486 8 q 229 76 342 24 q 85 218 121 122 q 68 295 68 259 q 96 381 68 342 q 129 417 109 397 q 168 449 149 437 q 207 471 182 458 q 249 491 231 484 q 273 512 273 499 q 271 520 273 516 q 210 574 262 538 q 180 595 194 585 q 161 612 166 606 q 131 665 138 637 q 124 710 124 693 q 128 739 124 726 q 152 793 136 762 q 184 842 169 824 q 399 960 252 926 q 431 965 415 964 q 484 966 447 966 q 523 965 509 966 q 545 964 536 965 q 564 960 554 962 q 657 892 635 941 q 664 876 662 882 q 667 862 667 870 q 669 841 668 854 l 669 835 q 664 797 669 811 q 645 768 659 781 q 603 743 628 753 q 553 734 577 734 q 515 731 537 734 q 484 724 494 728 q 461 708 467 717 q 456 692 456 699 q 459 682 456 687 q 525 643 473 652 q 645 633 576 633 q 721 635 680 633 q 875 639 810 639 q 957 636 939 640 q 991 624 974 632 q 1018 608 1008 616 q 1028 596 1023 604 q 1038 581 1034 588 q 1045 563 1043 569 q 1046 548 1046 556 l 1046 542 q 992 449 1046 485 q 945 408 954 424 q 942 391 942 401 l 942 388 q 947 350 943 376 q 954 279 954 317 q 948 214 954 241 q 876 81 928 133 q 850 57 860 64 q 823 42 840 50 q 778 24 800 30 q 710 14 756 19 q 635 9 682 12 q 559 7 588 7 q 519 7 531 7 q 486 8 496 7 m 250 751 q 258 758 252 752 q 272 771 264 764 q 396 857 321 823 q 420 869 412 864 q 430 878 428 873 q 433 888 433 882 q 411 909 433 909 q 357 888 395 907 q 290 847 320 869 q 259 822 275 836 q 233 795 244 808 q 221 778 222 783 q 220 771 220 774 q 228 754 220 762 q 241 749 234 749 q 250 751 245 749 m 215 664 q 230 677 227 669 q 233 691 233 686 q 231 703 233 697 q 219 713 227 709 q 203 718 211 718 q 188 709 195 718 q 180 690 180 700 q 188 668 180 674 q 204 662 197 662 q 215 664 210 662 m 512 243 q 577 283 559 254 q 595 334 595 312 q 589 365 595 349 q 521 405 567 405 l 513 405 q 430 353 463 401 q 423 341 425 346 q 420 330 421 336 q 420 311 420 323 q 420 294 420 300 q 423 283 421 288 q 428 274 425 279 q 472 243 443 252 q 491 240 484 240 q 512 243 499 240 z "},"'":{"ha":577,"x_min":68,"x_max":509,"o":"m 249 678 q 193 675 227 675 q 165 675 188 675 q 122 681 142 676 q 94 696 107 686 q 73 718 80 706 q 68 746 68 730 q 68 758 68 747 q 76 783 68 768 q 135 850 90 809 q 226 919 180 890 q 365 973 311 973 q 380 972 373 973 q 503 895 465 957 q 509 864 509 882 q 509 851 509 862 q 500 824 509 841 q 491 808 497 817 q 478 793 484 800 q 449 769 470 785 q 404 739 427 754 q 366 717 380 724 q 309 695 345 707 q 249 678 273 683 m 335 886 q 342 881 338 882 q 353 880 347 880 q 376 893 372 880 q 378 901 378 897 q 369 920 378 910 q 351 930 360 930 q 336 922 344 930 q 328 903 328 912 q 335 886 328 895 z "},"(":{"ha":642,"x_min":68,"x_max":574,"o":"m 406 -96 q 301 -19 359 -82 q 119 279 171 121 q 68 557 68 437 q 82 699 68 629 q 140 863 101 780 q 220 994 178 946 q 275 1041 243 1020 q 336 1069 307 1061 q 372 1073 351 1073 l 378 1073 q 426 1069 404 1073 q 526 998 496 1053 q 532 984 530 989 q 534 970 534 978 q 534 945 534 962 q 534 921 534 930 q 531 904 533 912 q 524 882 529 895 q 510 847 519 869 q 492 805 501 825 q 449 705 461 741 q 429 621 437 669 q 424 579 426 602 q 422 521 422 556 q 421 484 421 501 q 423 435 421 456 q 437 361 427 401 q 460 297 446 330 q 505 207 475 263 q 561 92 548 127 q 574 24 574 57 l 574 18 q 567 -29 574 -12 q 543 -64 561 -47 q 525 -79 533 -74 q 505 -88 517 -84 q 441 -101 470 -101 q 406 -96 422 -101 m 214 743 q 222 757 216 745 q 234 783 228 768 q 257 836 243 804 q 286 895 272 867 q 307 932 300 922 q 317 956 317 945 q 315 962 317 959 q 295 975 312 975 q 281 969 288 975 q 264 947 274 964 q 239 900 254 931 q 210 841 224 872 q 186 786 196 810 q 176 758 176 762 q 178 752 176 755 q 184 745 180 749 q 199 736 191 736 q 214 743 206 736 m 186 629 q 197 641 192 632 q 201 658 201 650 q 199 664 201 660 q 193 672 197 668 q 184 678 189 676 q 174 680 180 680 q 162 678 167 680 q 154 672 158 676 q 145 656 145 665 q 157 637 145 647 q 169 628 164 629 q 175 627 173 627 q 186 629 180 627 z "},")":{"ha":642,"x_min":68,"x_max":574,"o":"m 235 1067 q 340 991 282 1054 q 522 692 471 850 q 574 416 574 534 q 559 273 574 344 q 502 109 541 192 q 421 -22 463 26 q 366 -69 398 -48 q 306 -97 334 -90 q 269 -101 291 -101 l 263 -101 q 216 -97 237 -101 q 116 -26 145 -81 q 110 -12 112 -18 q 107 2 108 -6 q 107 26 107 10 q 108 51 107 42 q 111 68 109 60 q 117 90 113 77 q 131 124 122 102 q 150 167 140 146 q 193 267 180 231 q 212 351 205 303 q 217 393 216 370 q 220 451 219 416 q 220 488 220 471 q 218 537 220 516 q 204 610 215 570 q 181 675 196 642 q 136 765 167 709 q 81 880 94 844 q 68 947 68 915 l 68 954 q 74 1001 68 983 q 98 1036 81 1019 q 116 1051 109 1046 q 136 1060 124 1056 q 201 1073 172 1073 q 235 1067 220 1073 m 428 229 q 419 215 425 227 q 408 189 414 203 q 384 136 399 168 q 355 77 370 104 q 334 39 341 50 q 326 16 326 27 q 326 9 326 13 q 347 -3 330 -3 q 361 3 354 -3 q 377 24 368 8 q 403 72 387 41 q 431 131 417 100 q 455 186 446 162 q 465 214 465 210 q 463 220 465 216 q 458 227 461 223 q 442 236 450 236 q 428 229 435 236 m 456 342 q 445 331 450 340 q 440 314 440 322 q 443 308 440 312 q 448 300 445 304 q 457 294 453 296 q 468 292 461 292 q 479 294 475 292 q 488 300 484 296 q 496 315 496 307 q 485 334 496 325 q 473 344 477 342 q 467 345 469 345 q 456 342 462 345 z "},"*":{"ha":669,"x_min":68,"x_max":602,"o":"m 195 853 q 245 830 218 844 q 251 907 248 875 q 283 963 260 954 q 321 972 307 972 q 363 961 341 972 q 412 892 398 942 q 420 838 418 869 q 484 868 456 857 q 519 875 503 875 q 557 862 541 875 q 585 819 585 840 q 586 798 586 798 q 550 721 586 758 q 509 688 534 706 q 569 646 545 665 q 602 589 602 620 q 601 580 602 585 q 567 527 595 545 q 511 509 539 509 q 475 515 494 509 q 420 538 452 522 l 420 463 q 392 407 417 414 q 354 400 368 400 q 305 413 330 400 q 260 479 267 434 q 254 540 256 506 q 206 513 227 524 q 183 500 192 505 q 148 491 164 491 q 112 505 127 491 q 84 554 85 532 q 83 578 83 576 q 117 648 83 619 q 168 684 139 664 q 100 722 122 710 q 68 774 68 744 q 69 787 68 780 q 108 842 79 823 q 161 860 137 860 q 195 853 178 860 z "},"+":{"ha":941,"x_min":68,"x_max":873,"o":"m 430 182 q 397 194 414 185 q 370 214 380 203 q 316 331 329 252 q 311 351 314 342 q 306 363 309 359 q 285 373 301 370 q 231 378 269 376 q 119 398 151 382 q 75 454 87 413 q 69 484 70 471 q 68 505 68 498 q 70 528 68 517 q 82 558 73 543 q 103 583 92 574 q 130 596 114 591 q 178 605 146 602 q 266 612 210 608 q 301 614 287 613 q 317 616 316 615 q 317 619 317 616 q 317 627 317 622 q 315 653 316 637 q 313 676 313 669 q 313 687 313 683 l 313 694 q 315 707 313 700 q 452 793 334 783 q 466 793 459 793 q 497 791 480 793 q 542 781 522 788 q 627 656 617 760 q 630 636 629 645 q 633 624 631 627 q 642 616 634 618 q 668 613 649 614 q 722 612 687 612 q 791 610 767 612 q 829 602 816 608 q 852 584 842 595 q 867 560 863 572 q 873 528 872 548 l 873 517 q 812 410 873 441 q 781 397 798 402 q 736 386 764 392 q 683 367 694 378 q 671 319 672 355 q 665 272 669 289 q 650 243 660 255 q 595 208 635 221 q 517 188 563 197 q 450 179 471 179 q 441 180 447 179 q 430 182 435 181 m 395 674 q 426 701 411 692 q 461 715 440 710 q 478 719 470 716 q 488 722 486 721 q 495 733 494 727 q 496 741 496 739 q 493 751 496 746 q 483 760 488 758 q 473 762 478 762 q 460 760 467 762 q 371 714 406 751 q 360 700 363 705 q 357 688 357 694 q 365 668 357 671 q 378 665 374 665 q 395 674 387 665 m 393 596 q 399 611 399 604 q 391 629 399 620 q 374 637 382 637 q 370 636 372 637 q 354 623 359 634 q 352 611 352 616 q 355 600 352 604 q 367 589 361 590 q 375 588 374 588 q 393 596 385 588 z "},",":{"ha":423,"x_min":68,"x_max":355,"o":"m 72 245 q 94 274 77 262 q 130 285 111 285 q 175 274 144 285 q 227 252 206 263 q 288 201 258 233 q 334 134 317 169 q 351 91 347 110 q 355 47 355 71 l 355 39 q 330 -74 355 -24 q 264 -145 311 -111 q 168 -193 217 -180 q 149 -195 158 -195 q 106 -180 125 -195 q 79 -127 79 -161 q 134 -26 79 -92 q 160 9 154 -2 q 166 31 166 20 q 164 43 166 37 q 155 60 162 49 q 131 93 147 71 q 68 223 68 175 q 72 245 68 235 m 197 159 q 217 134 206 148 q 237 109 229 119 q 258 82 252 87 q 270 77 265 77 q 278 80 274 77 q 289 90 286 84 q 292 101 292 96 q 292 105 292 103 q 277 129 290 111 q 248 167 264 147 q 222 197 232 186 q 194 213 206 213 q 180 206 186 213 q 175 194 175 201 q 176 189 175 191 q 197 159 179 178 z "},"-":{"ha":908,"x_min":68,"x_max":840,"o":"m 701 629 q 814 559 778 621 q 840 472 840 515 q 831 414 840 454 q 743 366 821 375 q 710 363 724 364 q 681 359 696 361 q 631 353 662 357 q 544 346 600 350 q 334 336 412 337 l 324 336 q 210 345 253 336 q 90 421 125 364 q 68 495 68 458 q 81 553 68 515 q 171 609 94 591 q 520 636 341 636 q 701 629 610 636 m 436 536 q 448 554 448 543 q 447 563 448 555 q 433 576 446 570 q 401 577 425 577 q 350 576 376 577 q 309 572 323 574 q 276 548 276 566 q 278 539 276 544 q 298 525 285 525 q 304 526 302 525 q 388 532 326 532 q 419 533 406 532 q 436 536 433 534 m 535 535 q 553 557 552 541 l 553 559 q 539 581 553 573 q 530 583 535 583 q 515 579 524 583 q 502 567 506 576 q 500 558 500 562 q 507 542 500 549 q 526 534 515 534 q 535 535 530 534 z "},"­":{"ha":908,"x_min":68,"x_max":840,"o":"m 701 629 q 814 559 778 621 q 840 472 840 515 q 831 414 840 454 q 743 366 821 375 q 710 363 724 364 q 681 359 696 361 q 631 353 662 357 q 544 346 600 350 q 334 336 412 337 l 324 336 q 210 345 253 336 q 90 421 125 364 q 68 495 68 458 q 81 553 68 515 q 171 609 94 591 q 520 636 341 636 q 701 629 610 636 m 436 536 q 448 554 448 543 q 447 563 448 555 q 433 576 446 570 q 401 577 425 577 q 350 576 376 577 q 309 572 323 574 q 276 548 276 566 q 278 539 276 544 q 298 525 285 525 q 304 526 302 525 q 388 532 326 532 q 419 533 406 532 q 436 536 433 534 m 535 535 q 553 557 552 541 l 553 559 q 539 581 553 573 q 530 583 535 583 q 515 579 524 583 q 502 567 506 576 q 500 558 500 562 q 507 542 500 549 q 526 534 515 534 q 535 535 530 534 z "},".":{"ha":502,"x_min":68,"x_max":434,"o":"m 233 0 q 188 14 211 5 q 148 33 165 22 q 108 65 127 45 q 79 103 89 84 q 68 153 68 130 q 116 235 68 200 q 220 262 165 262 q 288 252 253 262 q 426 150 384 227 q 433 131 431 138 q 434 106 434 123 q 433 82 434 90 q 427 65 431 75 q 330 -1 399 16 q 290 -4 313 -4 l 281 -4 q 233 0 253 -4 m 153 139 q 162 151 158 142 q 166 168 166 160 q 158 183 166 175 q 142 192 150 192 q 127 188 135 192 q 115 178 119 183 q 113 165 113 172 q 116 150 113 157 q 137 136 123 136 q 145 137 141 136 q 153 139 150 138 z "},"/":{"ha":821,"x_min":68,"x_max":753,"o":"m 150 -88 q 127 -77 140 -85 q 106 -59 115 -69 q 89 -25 98 -48 q 73 20 79 -1 q 68 77 68 43 l 68 85 q 75 157 68 126 q 174 405 94 254 q 231 524 229 509 q 247 567 233 531 q 277 644 260 602 q 306 711 294 686 q 478 982 392 901 q 597 1055 529 1033 q 622 1060 612 1059 q 648 1062 631 1062 q 673 1061 665 1062 q 691 1055 682 1059 q 753 939 753 1021 q 752 919 753 929 q 715 791 747 867 q 608 574 683 715 q 413 174 510 392 q 350 50 378 96 q 288 -28 321 3 q 168 -90 222 -90 q 150 -88 159 -90 m 446 762 q 454 777 448 765 q 469 805 461 789 q 508 878 494 861 q 513 892 513 885 q 506 908 513 901 q 492 914 499 914 q 464 892 478 914 q 444 857 456 881 q 422 811 432 833 q 410 782 412 789 l 410 779 q 421 760 410 766 q 432 758 427 758 q 446 762 439 758 m 406 672 q 412 690 412 680 q 410 700 412 694 q 389 715 405 715 q 371 706 380 715 q 361 686 361 696 q 372 666 361 669 q 386 663 382 663 q 406 672 396 663 z "},":":{"ha":503,"x_min":68,"x_max":435,"o":"m 233 100 q 148 132 186 111 q 108 165 127 145 q 79 204 89 184 q 68 253 68 230 q 117 335 68 300 q 220 362 165 362 q 289 353 253 362 q 426 250 385 326 q 433 231 431 239 q 435 207 435 223 q 433 182 435 190 q 427 165 432 175 q 331 100 400 117 q 290 96 313 96 l 282 96 q 233 100 253 96 m 233 614 q 148 646 186 625 q 108 679 127 660 q 79 718 89 699 q 68 766 68 743 q 117 848 68 814 q 221 876 165 876 q 289 867 254 876 q 426 764 385 840 q 433 745 431 753 q 435 721 435 737 q 433 696 435 704 q 427 680 432 689 q 331 614 400 631 q 290 610 313 610 l 282 610 q 233 614 253 610 m 153 753 q 162 765 158 756 q 166 783 166 774 q 158 798 166 789 q 142 806 150 806 q 127 802 136 806 q 116 792 119 798 q 113 779 113 785 q 117 764 113 772 q 138 750 123 750 q 146 751 142 750 q 153 753 150 752 m 153 239 q 162 251 158 242 q 166 269 166 260 q 158 284 166 276 q 142 292 150 292 q 127 288 136 292 q 116 278 119 283 q 113 265 113 271 q 117 250 113 258 q 138 236 123 236 q 146 237 142 236 q 153 239 150 238 z "},";":{"ha":502,"x_min":68,"x_max":434,"o":"m 120 345 q 142 374 125 363 q 178 385 159 385 q 223 374 192 385 q 275 352 254 363 q 382 235 342 309 q 399 191 395 210 q 404 146 404 172 l 404 139 q 378 26 404 77 q 312 -45 359 -11 q 216 -93 265 -79 q 197 -95 206 -95 q 155 -80 174 -95 q 127 -27 127 -60 q 182 75 127 8 q 208 110 202 98 q 214 132 214 121 q 212 143 214 138 q 202 160 210 149 q 179 193 195 172 q 116 323 116 275 q 120 345 116 335 m 233 614 q 188 628 211 619 q 148 646 165 636 q 108 679 127 660 q 79 718 89 699 q 68 767 68 744 q 116 848 68 814 q 220 876 164 876 q 288 867 253 876 q 426 764 384 840 q 433 745 431 753 q 434 721 434 737 q 433 696 434 704 q 427 680 431 689 q 330 614 399 631 q 290 610 313 610 l 282 610 q 233 614 253 610 m 153 753 q 162 765 157 756 q 166 783 166 774 q 158 798 166 789 q 142 806 149 806 q 127 802 135 806 q 115 792 119 798 q 113 779 113 786 q 116 764 113 772 q 137 750 123 750 q 145 751 141 750 q 153 753 150 752 m 245 259 q 266 234 254 248 q 285 209 277 220 q 307 183 300 188 q 318 178 313 178 q 326 180 322 178 q 337 191 334 184 q 340 202 340 197 q 340 206 340 204 q 325 230 338 212 q 296 267 312 248 q 270 297 280 287 q 242 313 254 313 q 229 307 235 313 q 223 294 223 301 q 224 289 223 292 q 245 259 227 279 z "},";":{"ha":502,"x_min":68,"x_max":434,"o":"m 120 345 q 142 374 125 363 q 178 385 159 385 q 223 374 192 385 q 275 352 254 363 q 382 235 342 309 q 399 191 395 210 q 404 146 404 172 l 404 139 q 378 26 404 77 q 312 -45 359 -11 q 216 -93 265 -79 q 197 -95 206 -95 q 155 -80 174 -95 q 127 -27 127 -60 q 182 75 127 8 q 208 110 202 98 q 214 132 214 121 q 212 143 214 138 q 202 160 210 149 q 179 193 195 172 q 116 323 116 275 q 120 345 116 335 m 233 614 q 188 628 211 619 q 148 646 165 636 q 108 679 127 660 q 79 718 89 699 q 68 767 68 744 q 116 848 68 814 q 220 876 164 876 q 288 867 253 876 q 426 764 384 840 q 433 745 431 753 q 434 721 434 737 q 433 696 434 704 q 427 680 431 689 q 330 614 399 631 q 290 610 313 610 l 282 610 q 233 614 253 610 m 153 753 q 162 765 157 756 q 166 783 166 774 q 158 798 166 789 q 142 806 149 806 q 127 802 135 806 q 115 792 119 798 q 113 779 113 786 q 116 764 113 772 q 137 750 123 750 q 145 751 141 750 q 153 753 150 752 m 245 259 q 266 234 254 248 q 285 209 277 220 q 307 183 300 188 q 318 178 313 178 q 326 180 322 178 q 337 191 334 184 q 340 202 340 197 q 340 206 340 204 q 325 230 338 212 q 296 267 312 248 q 270 297 280 287 q 242 313 254 313 q 229 307 235 313 q 223 294 223 301 q 224 289 223 292 q 245 259 227 279 z "},"<":{"ha":707,"x_min":68,"x_max":639,"o":"m 434 103 q 218 211 328 125 q 162 264 193 232 q 116 319 132 296 q 68 466 68 391 q 80 541 68 503 q 216 730 102 618 q 295 803 262 777 q 360 844 328 829 q 463 871 418 871 q 549 840 513 871 q 576 777 576 813 q 541 682 576 736 q 523 656 534 671 q 501 629 511 642 q 464 585 477 602 q 444 557 450 568 q 431 536 437 547 q 416 484 416 508 q 428 446 416 464 q 448 423 431 440 q 486 385 464 406 q 533 340 508 365 q 576 296 559 315 q 609 259 599 272 q 625 233 619 246 q 639 185 639 207 q 549 109 639 130 q 502 101 523 102 q 473 100 481 100 q 434 103 452 100 m 233 606 q 243 617 236 609 q 259 636 251 626 q 283 662 268 646 q 314 691 299 677 q 344 718 333 708 q 359 733 355 728 q 366 741 364 739 q 367 747 367 744 q 359 765 367 760 q 345 770 351 770 q 335 768 340 770 q 301 740 325 762 q 251 693 277 718 q 212 649 226 667 q 198 621 198 633 q 205 606 198 612 q 220 600 212 600 q 233 606 226 600 m 175 511 q 190 528 188 519 q 192 540 192 536 q 186 556 192 549 q 167 565 176 565 q 163 564 165 565 q 144 547 151 562 q 140 532 140 539 q 146 515 140 522 q 162 507 153 507 q 175 511 168 507 z "},"=":{"ha":861,"x_min":68,"x_max":793,"o":"m 654 824 q 768 753 731 815 q 793 666 793 709 q 784 609 793 648 q 696 559 774 569 q 668 558 677 559 q 652 555 659 557 q 635 553 646 554 q 603 549 624 551 q 544 545 582 547 q 334 535 412 535 l 323 535 q 210 544 253 535 q 90 620 125 563 q 68 693 68 656 q 81 752 68 713 q 171 807 94 790 q 408 831 293 829 q 451 831 429 831 q 654 824 547 831 m 654 430 q 768 360 731 421 q 793 273 793 316 q 784 215 793 254 q 696 166 774 176 q 668 164 677 165 q 652 162 659 163 q 635 159 646 161 q 603 156 624 158 q 544 151 582 154 q 334 142 412 142 l 323 142 q 210 150 253 142 q 90 227 125 169 q 68 300 68 263 q 81 358 68 320 q 171 414 94 397 q 408 437 293 435 q 448 438 428 438 q 654 430 545 438 m 382 343 q 394 361 394 350 q 394 371 394 363 q 379 383 393 378 q 348 385 372 385 q 296 383 323 385 q 256 380 269 382 q 223 357 223 374 q 225 347 223 352 q 245 333 231 333 q 252 334 248 333 q 334 340 273 339 q 366 341 352 340 q 382 343 379 342 m 481 342 q 500 365 498 349 l 500 368 q 486 389 500 381 q 477 391 481 391 q 462 387 471 391 q 448 375 453 384 q 446 366 446 370 q 454 349 446 357 q 473 341 463 341 q 481 342 477 341 m 382 736 q 394 755 394 743 q 394 764 394 757 q 379 777 393 772 q 348 778 372 779 q 296 777 323 778 q 256 774 269 776 q 223 750 223 768 q 225 741 223 745 q 245 726 231 726 q 252 727 248 726 q 334 733 273 732 q 365 734 351 733 q 382 736 379 735 m 481 736 q 500 758 498 743 l 500 761 q 486 782 500 774 q 476 784 481 784 q 462 781 471 784 q 448 768 453 777 q 446 760 446 764 q 454 743 446 750 q 473 734 463 734 q 481 736 477 734 z "},">":{"ha":707,"x_min":68,"x_max":639,"o":"m 189 102 q 130 117 158 106 q 86 142 102 128 q 68 184 68 159 q 81 233 68 205 q 97 259 87 246 q 125 291 106 271 q 152 319 139 306 q 171 338 165 332 q 175 342 173 340 q 198 363 183 350 q 229 393 212 377 q 261 426 247 410 q 279 447 276 441 q 290 484 290 464 q 275 536 290 508 q 263 558 271 547 q 243 585 256 568 q 205 629 230 602 q 140 730 157 686 q 133 752 135 743 q 132 775 132 762 l 132 781 q 158 840 132 817 q 243 872 193 872 q 347 844 289 872 q 411 804 378 829 q 490 730 444 778 q 627 541 605 618 q 639 465 639 503 q 591 319 639 391 q 545 264 575 297 q 489 212 514 232 q 404 154 450 180 q 319 115 357 127 q 226 100 273 100 q 189 102 208 100 m 271 670 q 277 678 276 675 q 278 683 278 681 q 277 687 278 685 q 267 704 276 691 q 245 734 258 718 q 222 762 233 750 q 208 777 212 774 q 197 779 203 779 l 194 779 q 181 774 186 779 q 174 759 174 767 q 182 740 174 750 q 195 724 186 736 q 215 700 205 713 q 245 666 238 669 q 256 662 252 662 q 271 670 263 662 m 326 594 q 334 612 334 602 q 331 623 334 617 q 306 640 324 640 q 294 634 300 640 q 286 621 288 628 q 285 617 285 619 q 287 606 285 612 q 296 593 290 597 q 310 589 302 589 l 312 589 q 326 594 321 589 z "},"?":{"ha":883,"x_min":68,"x_max":815,"o":"m 426 329 q 369 408 369 348 q 374 450 369 427 q 398 515 382 484 q 454 600 415 546 q 507 681 496 656 q 518 724 518 705 q 517 737 518 730 q 456 784 510 774 q 440 785 448 785 q 384 772 416 785 q 338 749 363 765 q 271 698 313 732 q 232 668 250 682 q 205 650 214 655 q 166 633 188 641 q 134 626 144 626 q 107 631 121 626 q 86 644 94 636 q 71 664 74 654 q 68 692 68 674 l 68 699 q 69 729 68 718 q 77 756 71 739 q 252 945 122 881 q 387 985 323 978 q 484 993 450 993 q 600 981 543 993 q 750 905 690 962 q 815 747 815 840 q 814 732 815 740 q 682 458 809 616 q 465 324 570 324 q 426 329 446 324 m 422 -16 q 379 -3 401 -12 q 338 16 356 6 q 298 49 317 29 q 270 87 279 68 q 258 137 258 114 q 307 218 258 184 q 410 246 355 246 q 479 236 443 246 q 616 134 574 210 q 623 115 621 123 q 625 90 625 107 q 623 66 625 74 q 616 50 621 59 q 521 -16 590 1 q 480 -20 503 -20 l 472 -20 q 422 -16 443 -20 m 343 123 q 352 135 348 126 q 356 153 356 144 q 348 168 356 159 q 332 176 340 176 q 317 172 326 176 q 306 162 309 168 q 303 149 303 155 q 307 134 303 142 q 327 120 313 120 q 336 121 331 120 q 343 123 340 121 m 212 795 q 308 867 250 833 q 333 883 324 877 q 344 893 341 888 q 347 903 347 897 q 330 926 347 920 l 327 926 q 321 925 325 926 q 310 920 317 924 q 288 907 302 916 q 208 852 245 882 q 163 808 172 823 q 159 794 159 801 q 161 784 159 789 q 179 772 166 772 q 192 777 185 772 q 212 795 198 781 m 155 697 q 161 713 161 703 q 152 735 161 732 q 139 739 143 739 q 121 730 130 739 q 114 712 114 721 q 115 705 114 709 q 126 692 119 694 q 137 690 134 690 q 155 697 146 690 z "},"@":{"ha":1452,"x_min":68,"x_max":1384,"o":"m 651 -133 q 435 -84 530 -123 q 124 193 218 2 q 91 275 103 233 q 72 374 79 317 q 68 455 68 405 l 68 470 q 73 565 68 531 q 155 797 95 700 q 362 1008 247 939 q 464 1052 400 1030 q 592 1088 528 1074 q 672 1103 640 1099 q 769 1106 705 1106 q 869 1102 836 1106 q 956 1084 902 1098 q 1305 838 1187 1021 q 1381 625 1371 732 q 1384 563 1384 593 q 1299 250 1384 384 q 1124 125 1237 162 q 1105 120 1113 121 q 1086 118 1097 118 q 1056 117 1075 117 q 1015 118 1027 117 q 991 123 1004 119 q 938 149 960 133 q 881 205 916 165 q 808 237 857 237 q 717 217 770 237 q 583 189 643 191 l 568 189 q 524 193 543 189 q 474 210 500 197 q 380 327 410 245 q 366 392 368 362 q 364 437 364 422 q 369 491 364 465 q 411 612 379 549 q 486 725 442 675 q 638 829 551 800 q 667 836 657 836 q 680 836 677 836 q 702 831 694 836 q 722 824 707 828 q 749 818 736 820 q 768 817 762 817 l 772 817 q 831 849 796 820 q 861 872 851 867 q 881 877 870 877 q 901 872 892 877 q 921 855 909 868 q 979 597 979 791 q 977 521 979 562 q 975 470 975 483 q 975 452 975 457 q 977 427 975 438 q 1027 307 989 332 q 1045 301 1036 301 q 1092 332 1068 301 q 1143 459 1125 376 q 1152 547 1152 503 q 1143 646 1152 591 q 1114 744 1133 705 q 1056 819 1094 783 q 844 926 975 898 q 766 932 812 932 q 743 932 755 932 q 624 918 682 929 q 417 832 509 891 q 320 720 363 795 q 262 557 277 644 q 256 509 256 529 l 256 505 q 264 442 256 484 q 355 229 282 322 q 391 190 374 205 q 430 159 408 174 q 576 107 494 117 q 646 104 604 104 l 661 104 q 764 110 713 105 q 887 118 847 118 q 916 116 907 118 q 981 69 964 106 q 986 57 985 62 q 988 46 987 52 q 987 29 988 40 q 985 5 987 14 q 976 -18 983 -4 q 895 -98 949 -70 q 793 -127 851 -119 q 749 -131 778 -130 q 700 -133 721 -133 q 669 -133 679 -133 l 651 -133 m 540 627 q 553 644 547 629 q 593 696 566 669 q 640 731 621 724 q 660 745 656 737 q 663 755 663 752 q 655 770 663 763 q 648 775 651 774 q 642 776 645 776 q 635 775 640 776 q 604 764 620 774 q 564 728 589 753 q 509 648 509 675 q 517 631 509 637 q 526 625 523 625 q 530 625 528 625 q 540 627 534 625 m 502 550 q 511 569 511 559 q 509 580 511 574 q 483 596 502 596 q 461 578 465 596 q 460 573 460 576 q 468 555 460 564 q 488 543 476 544 q 494 545 490 543 q 502 550 498 547 m 1310 527 q 1317 544 1316 534 q 1310 559 1317 553 q 1291 567 1301 567 q 1284 566 1288 567 q 1269 543 1270 561 q 1276 527 1269 534 q 1293 520 1283 520 q 1310 527 1303 520 m 688 427 q 722 491 708 446 q 727 516 726 504 q 728 550 728 528 q 728 575 728 566 q 726 589 727 584 q 721 600 724 594 q 714 612 717 608 q 706 615 711 615 l 705 615 q 680 596 692 615 q 656 543 666 576 q 651 519 652 531 q 650 486 650 507 l 650 477 q 652 446 650 457 q 663 425 655 433 q 673 419 667 419 q 688 427 680 419 m 1253 296 q 1297 385 1274 315 q 1310 427 1309 418 q 1310 437 1310 435 q 1305 452 1310 447 q 1290 458 1299 458 q 1274 452 1279 458 q 1263 427 1268 446 q 1245 373 1257 401 q 1225 332 1234 345 q 1215 314 1217 319 q 1214 307 1214 310 q 1217 298 1214 303 q 1234 287 1224 287 q 1253 296 1242 287 z "},"A":{"ha":808,"x_min":24,"x_max":797,"o":"m 150 2 q 81 54 111 11 q 24 278 24 132 q 26 323 24 300 q 39 470 31 424 q 57 538 43 492 q 90 629 72 584 q 382 967 205 912 q 433 972 404 972 q 484 967 461 972 q 684 714 621 926 q 721 536 705 643 q 735 453 727 490 q 759 350 743 416 q 795 166 794 207 q 797 119 797 125 q 769 25 797 52 q 725 1 747 3 q 700 0 704 0 q 633 16 666 0 q 526 125 593 37 q 498 160 511 144 q 479 182 485 176 q 451 203 467 195 q 423 212 436 211 q 418 213 420 213 q 393 201 405 213 q 356 143 379 187 q 339 114 348 128 q 327 92 331 100 q 292 53 315 75 q 254 22 269 30 q 207 5 231 9 q 168 1 182 1 q 150 2 158 1 m 257 730 q 267 744 260 734 q 281 764 274 753 q 321 810 299 787 q 362 847 344 833 q 380 863 376 857 q 384 873 384 869 q 382 880 384 877 q 363 895 376 895 q 348 890 357 895 q 296 849 326 879 q 243 788 267 819 q 220 744 220 757 q 228 724 220 727 q 239 721 236 721 q 257 730 249 721 m 222 636 q 228 652 228 644 q 226 663 228 658 q 204 676 220 676 q 180 652 180 673 q 189 630 180 633 q 202 627 198 627 q 222 636 212 627 m 392 375 q 430 467 422 387 q 433 521 433 492 q 432 550 433 535 q 423 624 430 595 q 416 642 420 633 q 408 656 412 650 q 401 663 404 663 q 371 541 389 663 q 366 511 368 524 q 362 495 363 498 q 357 459 359 486 q 355 410 355 433 q 358 378 355 386 q 372 370 361 370 q 382 372 376 370 q 392 375 388 373 z "},"B":{"ha":853,"x_min":31,"x_max":837,"o":"m 267 -15 q 146 37 190 -3 q 97 111 117 66 q 60 231 77 155 q 39 380 44 300 q 36 414 37 399 q 34 433 35 429 q 31 532 31 456 q 34 682 31 607 q 39 779 36 757 q 52 823 44 800 q 66 861 59 845 q 113 915 81 889 q 183 956 144 941 q 245 975 209 966 q 309 987 281 984 q 379 989 338 989 l 395 989 q 481 985 446 989 q 570 971 520 981 q 644 954 619 961 q 775 852 739 920 q 795 760 795 807 q 787 695 795 728 q 754 620 775 654 q 690 543 733 587 l 648 499 l 671 490 q 725 463 696 481 q 771 431 755 445 q 798 399 785 416 q 817 370 810 382 q 837 276 837 321 q 797 155 837 213 q 756 109 781 132 q 709 73 731 86 q 679 58 701 68 q 632 37 656 47 q 593 22 607 27 q 444 -8 524 1 q 316 -18 363 -18 q 267 -15 289 -18 m 143 749 q 149 758 146 752 q 152 768 151 763 q 183 830 158 800 q 238 872 208 860 q 263 897 263 880 q 259 906 263 901 q 250 916 255 911 q 239 920 244 920 q 222 914 235 920 q 195 900 209 908 q 174 885 182 892 q 110 787 127 844 q 107 770 107 777 l 107 765 q 115 749 109 756 q 130 743 123 743 q 143 749 136 743 m 121 650 q 134 670 134 657 q 121 694 133 688 q 108 697 114 697 q 96 694 102 697 q 86 673 86 688 q 94 653 86 658 q 109 648 102 648 q 121 650 115 648 m 406 636 q 443 677 435 648 q 448 711 448 696 q 447 724 448 718 q 431 753 444 745 q 420 758 427 756 q 408 761 414 760 q 401 762 404 762 q 381 757 391 762 q 363 740 370 751 q 356 711 359 730 q 353 673 353 692 q 363 638 353 646 q 384 631 374 631 q 406 636 393 631 m 433 210 q 496 288 480 223 q 504 342 504 319 q 487 393 504 375 q 439 416 468 416 q 421 414 431 416 q 373 371 391 407 q 355 279 355 336 q 356 256 355 268 q 359 237 357 243 q 369 215 361 225 q 385 203 376 205 q 393 202 389 202 q 406 203 399 202 q 433 210 419 205 z "},"C":{"ha":796,"x_min":3,"x_max":803,"o":"m 161 795 q 320 913 224 863 q 505 964 416 964 q 650 905 587 964 q 745 677 745 813 l 745 665 q 693 522 740 582 q 608 466 659 479 q 594 465 601 465 q 568 469 582 465 q 532 489 547 475 q 513 520 519 500 q 500 584 507 539 q 490 632 494 615 q 480 656 486 648 q 465 669 475 664 q 450 673 458 673 q 397 640 425 673 q 342 528 359 595 q 336 479 336 500 q 338 454 336 465 q 370 382 344 422 q 427 330 389 353 q 512 295 466 306 q 606 284 560 285 q 684 277 644 283 q 792 218 781 256 q 803 168 803 180 q 745 72 803 118 q 498 9 646 9 l 492 9 q 234 66 340 10 q 44 254 85 153 q 3 433 3 355 q 18 543 3 487 q 161 795 53 679 m 268 762 q 378 839 323 814 q 409 855 401 848 q 417 870 417 861 q 413 880 417 874 q 404 889 409 885 q 395 893 399 893 q 374 886 391 893 q 340 871 357 880 q 313 857 323 863 q 232 791 268 825 q 217 775 222 781 q 211 766 212 770 q 209 759 209 763 q 216 743 209 750 q 231 736 222 736 q 244 741 237 736 q 268 762 252 747 m 185 662 q 193 680 193 671 q 183 698 193 689 q 175 704 178 703 q 170 705 172 705 q 164 704 168 705 q 148 695 155 703 q 142 680 142 688 q 144 672 142 676 q 149 663 146 667 q 162 654 157 654 q 168 654 167 654 q 185 662 177 654 z "},"D":{"ha":848,"x_min":35,"x_max":811,"o":"m 264 -11 q 132 43 179 -6 q 81 124 100 73 q 47 271 62 176 q 41 329 43 298 q 38 414 39 361 q 36 561 37 467 l 35 734 l 46 785 q 64 854 55 828 q 87 901 73 880 q 137 949 108 932 q 213 977 166 967 q 243 982 231 980 q 272 984 255 983 q 323 984 289 984 q 418 980 386 984 q 505 960 450 976 q 586 927 543 949 q 649 883 628 904 q 782 673 744 783 q 805 582 800 621 q 811 507 811 544 q 810 485 811 496 q 797 378 809 426 q 756 275 785 330 q 595 79 690 138 q 357 -8 479 1 q 338 -9 347 -9 q 307 -12 315 -12 q 290 -12 302 -12 q 264 -11 278 -12 m 136 750 q 140 758 138 752 q 143 770 142 764 q 161 820 147 795 q 192 861 175 846 q 206 871 197 866 q 224 881 215 877 q 253 909 253 895 q 245 923 253 916 q 238 928 241 928 q 234 929 236 929 q 226 928 231 929 q 181 909 205 926 q 140 871 157 893 q 118 832 130 856 q 102 791 106 808 q 99 779 100 786 q 98 768 98 772 q 107 747 98 751 q 121 743 116 743 q 136 750 129 743 m 115 642 q 130 664 130 650 l 130 665 q 114 687 129 680 q 104 689 109 689 q 90 684 96 689 q 79 664 79 677 q 83 651 79 658 q 93 642 87 645 q 104 638 99 638 q 115 642 108 638 m 425 246 q 440 254 432 249 q 453 265 448 260 q 483 321 474 283 q 497 448 492 359 q 499 499 499 473 q 488 623 499 561 q 448 720 475 701 q 423 726 437 726 q 407 724 416 726 q 373 702 382 719 q 361 566 362 686 q 359 506 360 532 q 359 471 359 479 q 357 421 357 452 q 357 370 357 390 l 357 330 q 359 281 358 291 q 377 243 363 252 q 393 239 383 239 l 398 239 q 425 246 412 240 z "},"E":{"ha":839,"x_min":12,"x_max":827,"o":"m 397 3 q 389 4 397 3 q 371 5 382 5 q 351 7 359 6 q 335 9 344 8 q 309 14 326 11 q 307 15 308 14 q 167 73 230 31 q 68 180 110 113 q 12 413 12 281 q 14 467 12 439 q 277 894 49 743 q 365 937 316 918 q 455 964 414 956 q 508 969 484 968 q 543 970 532 970 q 578 968 564 970 q 700 924 645 958 q 777 846 754 890 q 798 747 798 799 q 784 661 798 705 q 637 482 745 545 q 598 463 616 470 q 556 449 581 456 q 426 407 471 425 q 364 370 382 389 q 348 336 348 353 q 365 301 348 319 q 390 286 376 290 q 425 283 405 283 q 444 283 434 283 q 494 288 472 285 q 547 297 516 290 q 629 318 577 304 q 710 335 692 334 q 734 336 729 336 q 779 327 760 336 q 823 277 818 307 q 827 236 827 248 q 806 161 827 199 q 692 62 770 105 q 551 14 640 33 q 515 8 539 11 q 465 4 492 6 q 427 2 439 3 q 410 2 414 2 q 397 3 399 2 m 300 798 q 374 852 336 833 q 401 879 401 865 q 396 887 401 882 q 387 897 392 892 q 378 901 381 901 q 341 886 366 900 q 293 852 317 871 q 256 817 269 833 q 250 798 250 807 q 251 789 250 793 q 271 777 256 777 q 282 781 276 777 q 300 798 288 785 m 222 708 q 229 725 229 715 q 215 749 229 745 q 204 751 210 751 q 191 747 197 751 q 181 726 181 741 q 191 706 181 711 q 206 702 201 702 q 222 708 215 702 m 438 611 q 450 617 444 613 q 460 625 456 621 q 494 673 486 650 q 503 708 503 697 q 496 729 503 721 q 481 734 490 734 q 463 730 473 734 q 425 696 443 719 q 401 646 406 673 q 399 631 399 637 q 418 606 399 606 q 438 611 427 606 z "},"F":{"ha":824,"x_min":22,"x_max":812,"o":"m 270 -3 q 101 103 157 25 q 42 257 60 164 q 23 405 24 349 q 22 476 22 461 q 27 611 22 553 q 98 821 37 727 q 479 978 189 963 q 500 979 489 979 q 551 977 524 979 q 622 968 593 974 q 708 936 671 959 q 772 870 770 894 q 773 844 773 846 q 719 777 773 803 q 691 769 711 774 q 648 759 671 764 q 610 751 625 753 q 518 738 551 743 q 465 726 484 732 q 430 711 446 720 q 384 675 397 692 q 370 647 370 657 q 374 636 370 641 q 466 612 391 612 q 551 617 502 612 q 629 621 586 621 l 644 621 q 717 616 695 621 q 804 552 779 600 q 812 511 812 532 q 803 471 812 491 q 736 412 785 433 q 712 405 728 409 q 676 396 695 400 q 646 389 658 391 q 630 387 634 387 l 628 387 q 627 388 628 388 q 623 387 625 388 q 610 386 617 387 q 594 384 604 385 q 574 382 583 382 q 457 360 492 377 q 417 326 435 349 q 392 275 399 302 q 389 193 389 264 l 389 161 q 390 138 389 150 q 391 111 391 124 q 382 43 391 75 q 303 -6 369 -1 q 284 -5 294 -6 q 270 -3 275 -5 m 158 741 q 177 760 167 743 q 217 807 190 779 q 266 849 244 834 q 288 866 283 860 q 294 881 294 873 q 286 894 294 888 q 271 901 279 901 q 234 882 260 901 q 183 837 209 863 q 140 786 157 810 q 130 759 130 770 q 143 740 130 746 q 148 739 146 739 l 149 738 l 152 738 q 157 740 154 739 l 158 741 m 123 652 q 136 668 133 659 q 139 684 139 678 q 136 695 139 690 q 125 703 132 700 q 115 707 119 707 q 101 700 109 707 q 88 685 94 694 q 83 669 83 677 q 87 660 83 665 q 97 651 91 655 q 106 648 102 648 q 114 649 110 648 q 123 652 119 650 z "},"G":{"ha":983,"x_min":4,"x_max":964,"o":"m 389 -19 q 376 -16 386 -18 q 354 -12 366 -14 q 94 169 191 21 q 70 213 85 184 q 42 268 55 241 q 23 311 28 296 q 4 429 4 367 q 42 614 4 516 q 224 839 90 732 q 373 928 288 888 q 533 986 458 968 q 566 992 555 991 q 585 993 576 993 q 605 992 593 993 q 636 990 621 991 q 658 986 651 988 q 781 914 739 962 q 822 820 822 865 q 819 795 822 808 q 734 710 802 734 q 710 705 726 707 q 681 701 694 702 q 662 700 669 700 l 656 700 q 649 701 654 701 q 635 700 644 701 q 597 699 618 700 q 562 696 574 697 q 539 692 549 694 q 516 686 529 690 q 378 578 433 662 q 340 505 355 543 q 333 470 334 486 q 332 447 332 453 q 335 414 332 429 q 355 364 341 394 q 380 319 369 334 q 496 227 437 247 q 519 221 513 221 q 527 221 526 221 q 551 225 537 221 q 619 281 606 239 q 623 296 623 290 q 620 311 623 301 q 602 344 615 327 q 558 393 589 361 q 533 421 541 411 q 520 436 524 431 q 515 450 517 442 q 512 471 512 460 q 542 548 512 505 q 703 631 599 631 q 762 625 730 631 q 956 471 920 590 q 962 433 960 458 q 964 393 964 408 q 956 334 962 365 q 943 295 949 304 q 941 292 942 294 q 941 289 941 290 q 932 267 941 286 q 913 228 924 248 q 895 196 902 208 q 715 43 835 104 q 439 -20 588 -19 q 406 -20 420 -20 q 389 -19 392 -20 m 225 715 q 233 725 230 721 q 236 730 236 728 q 249 743 236 732 q 282 769 262 755 q 321 797 302 784 q 352 819 339 809 q 367 831 366 828 q 370 842 370 837 q 366 852 370 847 q 347 861 359 861 q 311 844 340 861 q 255 806 282 827 q 218 774 237 792 q 191 745 199 756 q 182 724 182 733 q 184 716 182 720 q 204 704 188 704 q 214 706 210 704 q 225 715 218 709 m 157 616 q 169 631 169 625 q 170 640 170 638 q 162 660 170 651 q 145 667 155 667 q 139 666 142 667 q 122 656 131 664 q 111 641 113 648 q 111 635 111 638 q 113 625 111 630 q 124 615 117 618 q 140 611 132 611 q 157 616 149 611 z "},"H":{"ha":947,"x_min":28,"x_max":897,"o":"m 705 -9 q 689 -3 700 -7 q 668 7 679 1 q 643 21 652 14 q 621 41 633 28 q 602 63 609 52 q 587 90 595 73 q 559 168 572 124 q 541 251 547 211 q 537 273 538 264 q 535 283 536 282 q 533 306 534 286 q 532 355 532 326 q 531 402 532 387 q 529 426 530 418 q 525 437 528 433 q 496 465 515 457 q 463 473 478 473 q 447 472 455 473 q 400 437 414 466 q 393 420 395 427 q 392 402 392 413 l 392 395 q 394 357 392 385 q 400 300 397 330 q 410 170 410 214 q 408 138 410 149 q 390 95 402 117 q 363 58 378 73 q 303 20 340 34 q 232 5 267 5 q 120 58 167 5 q 54 190 75 106 q 33 335 39 252 q 28 471 28 418 q 31 549 28 513 q 43 673 35 605 q 58 770 52 741 q 130 903 74 850 q 247 952 183 952 l 250 952 q 368 872 330 949 q 396 706 396 817 l 396 701 q 397 659 396 673 q 402 638 399 644 q 413 628 406 631 q 421 625 416 626 q 434 624 426 624 q 456 624 442 624 q 483 626 471 625 q 498 629 494 627 q 538 688 528 641 q 540 718 540 699 q 534 796 540 747 q 529 848 529 828 q 530 859 529 854 q 543 903 532 880 q 614 971 572 960 q 677 983 655 983 q 760 963 718 983 q 818 915 797 947 q 852 824 839 884 q 864 753 859 795 q 878 614 869 710 q 878 605 878 610 q 887 498 884 534 q 891 431 890 462 q 894 348 892 401 q 895 332 894 340 q 897 239 897 278 q 895 176 897 200 q 876 99 891 130 q 802 13 849 42 q 757 -6 778 -1 q 723 -10 736 -10 q 705 -9 713 -10 m 117 648 q 126 659 122 650 q 130 680 130 668 q 143 749 130 705 q 173 817 157 793 q 182 839 182 829 q 176 852 182 847 q 161 859 170 859 q 145 852 153 859 q 113 797 129 836 q 90 725 97 758 q 83 677 83 693 q 85 661 83 668 q 106 646 93 646 q 117 648 111 646 m 117 549 q 123 557 122 553 q 125 570 125 561 q 123 584 125 580 q 116 593 121 588 q 97 601 106 601 q 91 600 94 601 q 76 588 79 596 q 73 574 73 579 q 77 556 73 566 q 91 543 84 544 q 99 541 97 541 q 117 549 109 541 z "},"I":{"ha":450,"x_min":30,"x_max":404,"o":"m 198 13 q 168 26 180 18 q 142 45 155 33 q 73 169 98 85 q 35 401 47 259 q 32 488 33 431 q 30 579 30 544 q 30 628 30 614 q 31 670 30 656 q 40 764 37 760 q 44 772 41 765 q 50 789 47 779 q 143 928 75 883 q 174 945 161 939 q 204 956 187 951 q 257 964 233 964 q 315 950 290 964 q 384 858 359 922 q 400 793 397 825 q 404 729 404 761 q 402 669 404 703 q 388 469 399 597 q 375 246 379 374 q 366 129 373 165 q 342 68 359 93 q 289 18 319 33 q 269 11 278 12 q 242 8 260 9 l 232 8 q 216 9 222 8 q 198 13 207 9 m 142 650 q 146 655 145 652 q 149 666 148 659 q 151 688 150 673 q 175 808 157 768 q 181 829 181 821 q 174 843 181 837 q 159 850 167 850 q 142 841 151 850 q 119 783 130 827 q 106 694 109 740 q 106 671 106 678 q 107 660 106 663 q 111 652 108 656 q 121 645 117 646 q 127 645 126 645 q 142 650 135 645 m 136 560 q 145 580 145 570 q 143 590 145 585 q 119 606 137 606 q 104 597 112 606 q 97 579 97 588 q 105 561 97 570 q 121 552 113 552 q 136 560 128 552 z "},"J":{"ha":786,"x_min":7,"x_max":746,"o":"m 250 12 q 129 77 181 26 q 54 186 85 120 q 17 298 27 239 q 9 357 10 338 q 7 391 7 377 q 8 421 7 406 q 13 460 10 447 q 22 492 15 474 q 87 594 46 567 q 138 610 113 610 q 180 599 159 610 q 250 500 224 573 q 257 476 252 493 q 267 440 262 459 q 286 382 277 403 q 307 352 295 362 q 321 342 317 342 q 326 342 326 342 q 345 350 334 342 q 409 492 394 382 q 413 567 413 522 q 412 604 413 584 q 403 726 411 675 q 401 745 401 737 q 400 755 400 753 q 401 758 401 755 q 400 764 401 760 q 397 785 399 773 q 394 831 394 808 l 394 838 q 431 919 395 885 q 480 953 454 943 q 545 963 507 963 l 550 963 q 614 953 587 963 q 669 915 642 941 q 689 892 682 903 q 703 867 696 882 q 713 842 709 855 q 721 821 718 829 l 721 820 q 725 804 723 812 q 728 791 726 795 q 730 780 729 787 q 733 758 731 773 q 739 715 735 743 l 739 713 q 746 628 745 660 q 746 589 746 595 q 741 507 746 540 q 739 490 741 499 q 737 473 738 480 q 730 434 736 460 q 718 376 725 408 q 699 321 712 357 q 673 256 686 286 q 549 85 623 142 q 393 15 484 34 q 354 11 378 12 q 311 9 330 9 l 292 9 q 250 12 264 9 m 481 678 q 484 685 483 682 q 486 697 486 689 q 485 721 486 705 q 465 832 480 817 q 450 839 458 839 q 434 831 441 839 q 429 825 430 828 q 428 818 428 822 l 428 813 q 433 791 429 806 q 436 768 434 785 q 439 731 437 751 q 441 700 439 710 q 444 684 442 689 q 447 677 445 680 q 463 669 454 669 l 465 669 q 481 678 473 669 m 488 585 q 494 597 493 591 q 495 605 495 603 q 492 617 495 612 q 480 627 488 623 q 466 631 473 631 q 449 623 453 631 q 445 608 445 614 q 448 595 445 602 q 462 580 455 582 q 472 578 469 578 q 488 585 480 578 z "},"K":{"ha":995,"x_min":38,"x_max":998,"o":"m 203 7 q 55 207 87 33 q 41 334 44 259 q 38 517 38 409 l 38 595 l 39 770 l 47 800 q 191 953 75 918 q 235 961 216 960 q 260 962 254 962 q 304 958 285 962 q 397 890 366 943 q 414 847 409 871 q 422 780 419 823 q 424 743 423 755 q 427 724 425 730 q 433 711 429 718 q 458 691 444 691 q 495 713 475 691 q 523 747 509 727 q 560 806 538 768 q 631 903 597 870 q 707 951 665 936 q 821 969 751 969 l 824 969 q 947 939 904 969 q 968 919 961 930 q 981 892 976 909 q 984 876 984 880 q 985 868 985 871 q 984 857 985 863 q 959 798 979 827 q 886 718 938 768 q 843 673 863 693 q 817 646 823 652 q 773 529 773 589 q 783 492 773 512 q 819 435 793 471 q 896 327 869 364 q 936 271 922 290 q 976 209 961 237 q 991 170 991 181 q 992 166 991 168 q 995 163 994 164 q 998 137 998 159 q 997 115 998 123 q 989 97 995 108 q 943 44 973 63 q 892 21 919 28 q 844 14 865 14 q 833 15 838 14 q 680 90 743 22 q 632 151 655 113 q 569 269 608 189 q 531 344 544 318 q 510 382 517 370 q 496 406 503 395 q 465 440 480 427 q 442 453 450 453 l 440 453 q 437 444 437 452 q 443 406 437 431 q 450 374 446 391 q 457 343 454 357 q 461 322 460 329 q 471 204 471 274 q 470 170 471 181 q 468 152 470 159 q 463 136 467 144 q 363 29 436 65 q 339 18 349 22 q 327 14 329 14 q 320 12 325 14 q 309 9 315 11 q 273 3 292 3 q 250 3 254 3 q 203 7 222 3 m 138 690 q 144 694 141 692 q 149 698 147 696 q 150 714 149 701 q 151 746 151 728 q 157 808 151 790 q 160 824 159 816 q 163 838 162 833 l 163 842 q 162 848 163 846 q 157 855 161 852 q 141 861 149 861 q 121 844 130 861 q 106 752 106 815 l 106 718 q 111 701 108 707 q 119 692 113 696 q 126 689 123 690 l 129 688 l 132 688 q 138 690 134 689 m 142 605 q 150 625 150 614 q 148 635 150 629 q 127 651 142 651 q 110 643 117 651 q 102 624 102 634 q 103 614 102 618 q 110 606 105 610 q 126 597 118 597 q 142 605 134 597 z "},"L":{"ha":726,"x_min":33,"x_max":742,"o":"m 240 7 q 60 144 104 30 q 38 223 43 186 q 33 325 33 260 l 33 359 q 34 440 33 401 q 36 494 35 479 q 40 545 37 509 q 45 619 42 580 q 50 689 47 663 q 54 731 52 714 q 60 768 56 748 q 174 951 85 909 q 213 966 195 962 q 256 970 231 970 q 377 917 342 970 q 416 836 412 873 q 420 783 420 799 q 404 646 420 728 q 401 631 403 639 q 398 616 399 622 q 397 611 398 614 q 395 600 396 606 q 393 589 394 594 l 393 589 q 389 574 391 583 q 386 556 387 564 q 379 522 382 538 q 371 476 376 506 q 366 446 368 460 q 362 424 363 431 q 359 393 360 413 q 359 352 359 372 q 360 323 359 332 q 440 243 373 248 l 448 243 q 553 261 489 243 q 615 273 585 270 q 661 277 644 277 q 678 276 671 277 q 705 268 692 274 q 726 254 718 262 q 740 225 738 240 q 742 203 742 210 q 736 170 742 186 q 663 80 716 119 q 492 18 602 39 q 413 5 440 8 q 338 3 385 3 l 277 3 q 240 7 258 3 m 151 713 q 163 755 157 718 q 191 848 180 828 q 196 865 196 858 q 189 882 196 874 q 174 888 182 888 q 170 888 172 888 q 152 872 159 885 q 136 827 145 859 q 120 765 126 794 q 113 726 113 736 l 113 724 q 125 708 117 711 q 136 706 132 706 q 151 713 144 706 m 132 621 q 146 642 146 629 l 146 644 q 130 666 146 658 q 118 668 123 668 q 104 663 110 668 q 96 644 96 656 l 96 642 q 111 619 96 629 q 120 616 116 616 q 132 621 125 616 z "},"M":{"ha":1230,"x_min":28,"x_max":1177,"o":"m 205 -7 q 172 5 191 -4 q 139 24 153 14 q 33 277 57 92 q 28 363 28 320 q 28 416 28 406 q 31 509 28 476 q 96 776 47 648 q 112 817 106 802 q 123 842 118 832 q 138 865 129 852 q 285 954 202 954 q 319 951 301 954 q 434 875 377 937 q 560 646 512 790 q 596 551 581 581 q 627 513 611 521 q 642 508 635 508 q 670 530 658 508 q 710 664 688 563 q 742 791 729 749 q 772 867 754 832 q 833 947 798 920 q 862 965 850 959 q 893 976 875 971 q 940 981 916 981 q 974 979 956 981 q 1050 952 1017 972 q 1135 848 1105 917 q 1152 790 1145 823 q 1166 703 1159 758 q 1175 586 1173 650 q 1177 486 1177 521 q 1175 408 1177 444 q 1151 193 1168 271 q 1102 69 1135 115 q 991 7 1058 7 l 984 7 q 963 11 972 8 q 940 20 954 14 q 857 153 878 49 q 848 218 851 180 q 845 331 846 256 q 834 491 843 476 q 827 501 830 501 l 827 501 q 817 484 823 500 q 802 431 812 467 q 772 335 785 370 q 747 272 760 300 q 645 174 710 192 q 629 171 636 171 q 615 170 622 170 l 600 170 q 562 175 575 171 q 532 189 549 178 q 423 361 465 224 q 361 476 386 476 q 357 471 360 476 q 351 460 353 467 q 341 408 341 441 q 342 391 341 400 q 363 251 345 345 q 377 173 374 198 q 381 123 381 147 l 381 116 q 378 81 381 94 q 361 50 374 66 q 283 -3 336 15 q 252 -8 269 -7 q 228 -9 235 -9 q 205 -7 214 -9 m 159 661 q 164 672 161 663 q 170 691 167 680 q 189 750 176 714 q 210 804 201 786 q 216 824 216 816 q 214 832 216 829 q 195 844 210 844 q 180 839 186 844 q 167 818 174 833 q 148 770 159 802 q 127 708 134 733 q 121 674 121 684 q 122 668 121 670 q 134 655 127 656 q 142 653 140 653 q 159 661 151 653 m 134 559 q 143 569 140 562 q 146 582 146 576 q 146 587 146 585 q 131 608 141 606 q 119 610 121 610 q 97 595 105 610 q 95 585 95 590 q 99 570 95 577 q 120 557 107 557 q 128 558 124 557 q 134 559 132 558 z "},"N":{"ha":923,"x_min":37,"x_max":867,"o":"m 195 -12 q 47 195 71 7 q 37 410 37 271 l 37 460 q 43 595 38 549 q 63 711 47 641 q 163 905 94 858 q 200 927 183 921 q 242 934 218 933 l 252 934 q 288 930 272 934 q 328 909 307 924 q 376 862 355 891 q 430 773 397 833 q 456 724 448 740 q 471 700 465 708 q 486 684 477 692 q 517 666 503 666 q 540 684 530 666 q 544 696 543 690 q 546 716 546 703 q 547 758 547 730 q 551 830 547 804 q 562 877 554 856 q 607 941 576 912 q 674 981 637 969 q 710 985 692 985 q 785 963 749 985 q 863 793 849 927 q 867 671 867 755 q 866 601 867 640 q 857 315 865 460 q 827 105 848 165 q 772 27 808 55 q 697 0 736 0 l 690 0 q 568 163 604 10 q 562 183 565 175 q 559 192 559 191 q 557 197 557 193 q 556 208 556 201 q 552 244 556 218 q 544 299 549 271 q 535 344 539 328 q 479 478 513 425 q 414 531 444 531 q 368 446 382 531 q 366 412 366 432 q 366 391 366 402 q 371 330 367 358 q 373 313 373 318 q 371 304 373 307 q 370 299 370 303 l 370 294 q 374 266 370 286 q 387 142 387 186 q 386 119 387 129 q 343 44 380 75 q 214 -13 280 -13 q 195 -12 205 -13 m 140 618 q 151 655 146 623 q 163 717 155 684 q 177 766 171 749 q 182 792 182 782 q 164 811 182 811 q 156 810 160 811 q 149 808 151 810 q 129 762 140 802 q 107 669 117 722 q 103 634 103 646 l 103 631 q 112 615 104 620 q 124 612 117 612 l 126 612 q 140 618 134 612 m 132 505 q 139 513 137 509 q 140 525 140 517 q 138 537 140 532 q 130 547 136 541 q 109 558 119 558 q 94 551 101 558 q 89 545 90 548 q 88 539 88 543 l 88 536 q 90 522 88 532 q 103 500 95 503 q 115 496 111 496 q 132 505 123 496 z "},"O":{"ha":899,"x_min":6,"x_max":860,"o":"m 359 -3 q 62 229 168 35 q 6 467 6 342 q 14 557 6 511 q 98 778 32 681 q 347 963 192 918 q 452 977 401 977 q 531 968 492 977 q 726 852 641 942 q 860 495 860 707 q 859 469 860 482 q 824 300 855 378 q 717 127 785 196 q 515 5 628 33 q 490 -1 500 1 q 467 -3 480 -3 q 429 -5 453 -4 q 387 -4 407 -5 q 359 -3 367 -4 m 155 650 q 170 682 161 654 q 199 750 181 716 q 229 792 218 785 q 233 796 231 793 q 237 803 235 800 q 239 811 239 808 q 236 819 239 814 q 224 830 230 829 q 216 831 218 831 q 197 825 207 831 q 162 777 183 814 q 128 701 142 740 q 121 677 123 684 q 119 667 119 670 q 120 662 119 664 q 125 652 121 657 q 142 646 134 646 q 155 650 148 646 m 127 549 q 137 562 133 553 q 142 577 142 570 q 133 593 142 586 q 114 601 124 601 q 88 578 88 600 q 97 551 88 558 q 113 545 106 545 q 127 549 120 545 m 473 267 q 494 288 483 272 q 513 323 505 303 q 536 432 531 375 q 542 518 542 488 q 536 585 542 555 q 508 669 527 632 q 467 718 488 706 q 450 721 458 721 q 374 598 399 721 q 367 514 367 556 l 367 507 q 378 400 368 462 q 422 280 393 309 q 454 262 437 262 q 473 267 463 262 z "},"P":{"ha":842,"x_min":35,"x_max":827,"o":"m 197 -2 q 46 149 81 26 q 35 267 35 186 q 37 340 35 300 q 45 597 45 508 q 44 641 45 622 q 43 669 43 655 q 49 745 43 713 q 74 824 56 787 q 232 953 120 913 q 403 978 312 978 q 578 957 486 978 q 819 745 777 911 q 826 699 825 722 q 827 665 827 676 q 825 632 827 647 q 718 468 806 530 q 667 442 696 454 q 583 414 637 430 q 471 378 509 393 q 415 351 432 364 q 389 318 397 337 q 376 255 376 295 q 378 227 376 242 q 380 167 380 195 l 380 156 q 376 108 380 123 q 350 54 368 79 q 309 15 332 28 q 263 -2 285 1 q 229 -5 241 -5 q 197 -2 212 -5 m 152 665 q 155 671 154 667 q 157 684 156 675 q 157 707 157 692 q 162 765 158 734 q 170 810 165 795 q 172 818 172 814 q 158 839 172 831 q 151 842 154 842 q 142 839 147 842 q 129 827 134 836 q 121 797 125 818 q 113 730 113 749 q 113 708 113 711 q 120 667 113 677 q 131 659 125 659 q 138 659 136 659 q 152 665 146 659 m 429 610 q 447 629 437 616 q 459 653 456 642 q 461 666 460 658 q 462 682 462 674 q 451 720 462 705 q 424 735 441 735 q 404 728 415 735 q 385 711 393 720 q 369 656 369 686 l 369 654 q 387 609 370 625 q 407 603 396 603 q 429 610 418 603 m 151 557 q 161 581 161 568 l 161 585 q 149 609 159 601 q 130 617 140 617 q 121 616 125 617 q 112 604 115 613 q 108 582 108 595 q 110 567 108 572 q 116 558 111 563 q 133 550 124 550 q 151 557 142 550 z "},"Q":{"ha":916,"x_min":3,"x_max":935,"o":"m 790 -8 q 765 0 781 -6 q 732 12 748 5 q 671 32 693 26 q 624 37 648 37 q 597 35 611 37 q 562 27 584 33 q 500 11 539 22 q 451 4 478 5 q 412 3 423 3 q 362 5 384 3 q 59 237 167 40 q 3 477 3 352 q 10 566 3 520 q 73 750 27 673 q 111 809 92 785 q 154 859 129 833 q 290 954 217 924 q 448 985 372 985 q 720 863 597 985 q 748 833 739 844 q 772 801 758 822 q 857 511 857 669 q 845 389 857 452 q 827 325 840 365 q 803 258 814 285 q 797 231 797 243 q 800 215 797 222 q 813 198 803 205 q 850 182 824 192 q 901 160 884 171 q 926 133 918 149 q 935 98 935 117 q 932 73 935 85 q 895 12 923 39 q 829 -14 868 -14 q 790 -8 811 -14 m 151 677 q 157 687 154 680 q 162 699 159 693 q 192 765 172 730 q 229 819 212 800 q 241 842 241 832 q 239 849 241 846 q 220 863 231 863 q 184 836 205 863 q 137 757 160 803 q 115 695 115 711 q 124 675 116 680 q 137 671 133 671 q 151 677 144 671 m 116 570 q 127 586 125 576 q 130 602 130 596 q 127 616 130 610 q 116 625 124 621 q 102 629 108 629 q 84 617 91 629 q 78 596 78 605 q 79 586 78 591 q 91 570 84 574 q 103 567 98 567 q 116 570 109 567 m 470 275 q 491 296 480 281 q 509 331 502 312 q 533 441 528 384 q 538 529 538 498 q 534 593 538 565 q 504 677 524 641 q 464 726 485 714 q 446 730 454 730 q 372 607 397 730 q 364 528 364 568 l 364 516 q 376 409 365 471 q 418 289 391 318 q 452 270 435 270 q 470 275 460 270 z "},"R":{"ha":849,"x_min":30,"x_max":876,"o":"m 214 -7 q 58 184 93 13 q 36 362 43 256 q 30 534 30 469 q 32 617 30 579 q 43 714 35 663 q 60 798 51 766 q 61 801 61 800 q 68 825 66 817 q 76 841 71 833 q 92 862 81 848 q 96 867 94 864 q 317 977 165 964 q 381 983 364 983 q 405 984 397 984 q 433 982 420 984 q 460 979 446 981 q 488 976 476 977 q 678 911 592 964 q 777 807 751 867 q 789 771 785 788 q 792 731 792 755 q 772 649 792 686 q 699 560 752 612 q 639 492 655 517 q 623 447 623 467 l 623 442 q 654 376 623 412 q 779 269 688 338 q 805 245 789 261 q 835 213 821 229 q 855 187 849 197 q 871 154 867 168 q 876 126 876 140 l 876 119 q 844 57 873 84 q 770 15 814 31 q 746 8 755 9 q 717 6 736 6 q 555 81 625 6 q 511 138 530 106 q 463 231 492 170 q 398 346 425 318 q 378 365 382 363 q 373 366 374 366 q 362 355 366 366 q 359 325 359 347 q 359 286 359 302 l 359 252 q 362 191 359 216 q 366 128 366 157 l 366 119 q 361 71 366 86 q 273 -8 345 3 l 271 -8 q 254 -11 258 -11 q 245 -12 249 -12 l 238 -12 q 217 -7 231 -10 q 214 -7 216 -7 m 149 666 q 153 676 152 670 q 155 698 154 683 q 170 802 155 741 q 176 823 173 813 q 179 835 178 832 q 180 842 180 838 q 168 860 180 854 q 158 863 161 863 q 149 859 155 863 q 134 838 140 854 q 119 783 127 821 q 109 700 109 730 q 117 665 109 673 q 131 659 122 659 l 133 659 q 149 666 142 659 m 414 606 q 432 646 432 627 q 433 668 433 665 q 417 726 433 700 q 385 747 405 747 q 347 684 351 745 q 346 673 346 678 q 363 615 346 639 q 392 594 378 594 q 414 606 403 594 m 142 555 q 151 581 151 565 l 151 583 q 141 610 151 600 q 125 616 134 616 q 115 614 120 616 q 104 599 109 610 q 98 579 98 587 q 102 564 98 572 q 112 552 106 555 q 124 549 117 549 l 127 549 q 142 555 136 551 z "},"S":{"ha":678,"x_min":10,"x_max":661,"o":"m 205 -2 q 127 13 159 1 q 31 77 51 39 q 23 93 24 87 q 22 107 22 98 l 22 113 q 23 133 22 125 q 31 152 25 141 q 186 239 57 212 q 303 293 272 258 q 323 332 323 313 q 321 345 323 338 q 271 412 313 371 q 241 439 258 425 q 212 462 224 453 q 186 483 200 471 q 162 505 172 495 q 136 529 152 514 q 104 555 119 543 q 45 612 62 591 q 18 662 28 633 q 10 705 10 682 q 18 755 10 728 q 36 803 26 785 q 67 841 47 821 q 210 931 123 895 q 388 974 296 967 q 421 975 406 975 q 450 974 437 975 q 510 964 478 972 q 587 923 561 951 q 614 871 614 898 q 578 806 614 839 q 537 775 559 788 q 476 745 515 762 q 428 721 444 730 q 399 698 412 711 q 383 664 383 681 q 384 656 383 660 q 423 595 388 627 q 541 515 458 564 q 582 489 568 500 q 610 465 596 479 q 650 411 640 437 q 661 340 661 385 q 657 289 661 309 q 642 242 653 268 q 611 184 629 210 q 562 130 592 159 q 267 -1 443 11 q 245 -3 252 -3 q 234 -3 239 -3 l 226 -3 q 205 -2 218 -3 m 146 801 q 258 871 201 848 q 290 900 290 883 q 282 913 290 907 q 268 920 275 920 q 198 892 248 920 q 116 833 149 864 q 100 814 102 820 q 98 806 98 809 q 104 793 98 800 q 118 785 110 785 q 146 801 130 785 m 98 692 q 107 711 107 702 q 106 715 107 713 q 96 732 104 728 q 81 737 87 737 q 68 734 75 737 q 58 723 60 730 q 56 711 56 716 q 57 703 56 707 q 70 686 62 688 q 80 684 77 684 q 98 692 90 684 z "},"T":{"ha":755,"x_min":-54,"x_max":795,"o":"m 341 6 q 298 18 321 8 q 261 41 275 28 q 203 139 220 77 q 198 161 199 150 q 195 197 196 172 q 194 274 195 222 q 193 347 193 320 q 194 387 193 372 q 196 414 195 402 q 202 459 201 443 q 206 504 204 476 q 211 539 208 519 q 218 576 214 559 q 227 640 227 614 q 223 668 227 656 q 211 691 220 679 q 191 709 201 703 q 112 730 165 723 q 18 751 52 738 q -35 789 -16 765 q -54 842 -54 814 q -47 878 -54 860 q 2 926 -35 904 q 83 956 38 947 q 119 960 95 958 q 195 962 144 961 q 340 964 247 962 q 471 965 416 964 q 532 966 525 966 q 549 967 539 967 q 590 965 566 967 q 666 956 628 962 q 725 942 705 949 q 795 842 795 913 l 795 836 q 744 747 794 780 q 704 727 726 734 q 644 715 682 720 q 562 695 587 708 q 525 656 536 683 q 510 541 510 617 q 522 380 510 475 q 529 309 527 340 q 531 235 531 277 l 531 229 q 472 48 531 102 q 433 22 457 33 q 386 7 408 10 q 363 5 372 5 q 341 6 354 5 m 123 878 q 154 881 132 880 q 201 882 176 882 q 249 883 235 882 q 268 887 264 884 q 273 899 272 891 l 273 903 q 273 908 273 906 q 267 916 271 911 q 259 922 263 920 q 248 925 256 924 q 222 927 239 926 q 198 928 210 928 q 146 926 173 928 q 88 916 104 922 q 77 906 81 913 q 72 893 72 899 q 74 887 72 891 q 81 880 77 884 q 88 874 85 875 q 93 873 91 873 q 98 873 95 873 q 109 876 102 874 q 123 878 117 877 m 26 834 q 38 845 33 838 q 43 859 43 852 q 41 865 43 861 q 35 873 39 869 q 27 879 30 878 q 22 880 24 880 q 15 880 19 880 q -8 866 -5 876 q -12 853 -12 857 q 0 836 -12 844 q 10 831 7 831 q 14 831 13 831 q 26 834 18 831 z "},"U":{"ha":948,"x_min":18,"x_max":905,"o":"m 359 -1 q 304 6 336 1 q 259 16 272 12 q 113 127 167 47 q 39 304 64 203 q 18 498 18 392 q 19 530 18 514 q 51 760 22 655 q 79 834 64 806 q 119 887 94 863 q 210 938 161 930 q 229 939 220 939 q 331 898 284 939 q 395 766 382 850 q 400 680 400 741 q 395 522 400 618 q 393 431 393 467 q 393 401 393 414 q 403 339 395 362 q 414 313 408 323 q 430 294 420 303 q 471 275 451 275 q 490 279 481 275 q 517 307 504 286 q 534 352 530 328 q 537 404 536 359 q 541 509 539 448 q 543 614 541 570 q 545 665 544 658 q 547 686 545 671 q 549 707 547 696 q 560 782 552 740 q 576 847 568 824 q 724 975 619 973 l 726 975 q 839 924 792 975 q 899 764 882 878 q 903 695 901 741 q 905 603 905 648 q 903 536 905 557 q 900 504 902 523 q 896 470 897 486 q 757 117 865 241 q 716 81 741 100 q 671 52 692 63 q 501 7 604 20 q 433 -1 458 1 q 398 -3 408 -3 q 385 -3 389 -3 q 359 -1 372 -3 m 126 624 q 131 630 129 627 q 133 638 132 633 q 133 652 133 643 q 136 682 133 661 q 143 728 139 704 q 146 745 145 738 q 152 778 150 766 q 154 794 154 790 q 155 800 155 798 q 154 804 155 802 q 151 808 153 806 l 149 810 q 135 817 142 817 q 120 810 128 817 q 114 803 117 807 q 110 791 112 800 q 104 767 107 783 q 97 724 101 751 q 89 651 89 675 q 92 630 89 636 q 102 619 96 620 q 111 618 109 618 q 126 624 119 618 m 119 503 q 133 530 133 513 q 123 549 133 539 q 104 558 113 558 q 89 556 94 558 q 81 547 84 553 q 77 530 77 538 q 86 509 77 519 q 106 499 96 499 q 119 503 112 499 z "},"V":{"ha":893,"x_min":7,"x_max":882,"o":"m 384 13 q 314 43 348 22 q 297 53 305 49 q 287 56 290 56 q 264 68 280 56 q 233 94 248 79 q 201 137 219 110 q 171 189 183 165 q 165 201 168 195 q 143 248 154 224 q 92 367 113 308 q 43 528 71 426 q 18 632 26 587 q 7 742 11 677 l 7 749 q 60 903 7 840 q 109 939 79 922 q 166 961 138 955 q 199 964 180 964 q 215 963 207 964 q 260 956 243 961 q 355 861 324 931 q 379 760 372 824 q 387 570 386 696 q 389 459 388 497 q 394 407 391 422 q 405 385 397 391 q 414 379 409 379 l 416 379 q 426 387 422 380 q 439 427 431 397 q 453 487 447 456 q 461 527 456 502 q 472 576 467 552 q 478 600 475 586 q 484 623 481 613 q 513 732 496 677 q 540 810 530 787 q 582 890 566 867 q 623 929 598 913 q 679 952 646 944 q 739 960 712 960 q 752 960 746 960 q 873 895 848 954 q 879 881 878 887 q 881 862 881 874 q 882 825 882 850 q 871 716 882 770 q 833 585 860 663 q 807 509 824 557 q 774 413 791 460 q 740 311 752 347 q 720 256 728 276 q 701 218 711 237 q 674 166 686 186 q 642 120 661 146 q 565 45 599 65 q 526 28 549 37 q 483 17 503 20 q 466 14 474 16 q 453 11 457 12 q 427 9 443 9 l 419 9 q 384 13 397 9 m 132 568 q 138 580 137 574 q 139 588 139 586 q 136 597 139 594 q 124 632 131 603 q 111 694 117 661 q 104 745 105 728 q 90 778 104 772 q 83 780 85 780 l 81 780 q 72 777 78 780 q 60 766 61 773 q 58 753 58 759 q 61 722 58 742 q 73 653 66 688 q 87 597 80 619 q 117 562 100 562 q 132 568 124 562 m 161 468 q 167 475 165 472 q 169 483 169 479 l 169 486 q 159 511 169 500 q 140 521 150 521 l 136 521 q 117 506 117 515 q 116 495 116 496 q 132 465 116 477 q 145 461 139 461 q 161 468 153 461 z "},"W":{"ha":1194,"x_min":8,"x_max":1178,"o":"m 330 16 q 278 33 300 22 q 235 62 256 43 q 84 378 142 139 q 72 425 77 405 q 66 448 67 445 q 57 481 63 456 q 43 535 50 507 q 33 581 36 564 q 22 641 27 609 q 9 734 18 673 q 8 762 8 749 q 21 841 8 802 q 81 918 39 891 q 170 945 122 945 l 180 945 q 226 937 208 944 q 262 911 244 929 q 309 829 294 881 q 325 758 319 795 q 336 654 330 722 q 366 496 347 528 q 378 486 372 486 q 407 551 395 486 q 411 593 409 563 q 414 657 413 623 q 415 667 414 663 q 417 724 416 699 q 418 757 418 749 q 537 931 425 905 q 590 937 566 937 q 696 880 663 937 q 713 836 707 861 q 723 767 719 812 q 733 643 728 723 q 741 562 737 589 q 751 514 744 535 q 763 484 756 496 q 775 472 770 472 q 784 478 778 472 q 793 490 789 484 q 815 666 808 524 q 854 872 821 819 q 972 952 890 929 q 1020 960 996 958 q 1055 961 1044 961 q 1086 959 1073 961 q 1117 950 1105 956 q 1139 932 1128 944 q 1177 823 1175 899 q 1178 803 1178 813 q 1173 744 1178 776 q 1140 605 1165 701 q 1095 423 1114 505 q 1070 315 1075 340 q 1052 230 1065 277 q 1027 155 1039 183 q 853 26 968 26 l 848 26 q 686 140 744 31 q 648 254 663 180 q 631 325 640 288 q 613 383 621 361 q 598 409 608 397 q 581 421 588 421 q 565 412 575 421 q 549 391 555 402 q 536 282 541 375 q 529 170 534 219 q 518 101 524 120 q 503 69 513 85 q 486 43 494 52 q 431 16 462 22 q 381 11 401 11 q 330 16 357 11 m 112 599 q 115 605 115 602 q 116 610 116 608 q 115 620 116 614 q 110 647 114 629 q 96 767 97 705 q 95 789 96 782 q 93 801 94 797 q 90 806 92 804 q 75 812 83 812 l 74 812 q 58 805 66 812 q 53 799 55 802 q 51 788 52 795 q 51 765 51 781 q 58 679 52 724 q 73 609 65 633 q 87 593 80 595 q 97 591 94 591 q 112 599 105 591 m 134 493 q 142 512 142 502 l 142 516 q 132 536 140 529 q 116 543 124 543 q 106 541 111 543 q 92 519 92 534 q 92 513 92 516 q 110 488 95 495 q 119 486 115 486 l 121 486 q 134 493 127 488 z "},"X":{"ha":909,"x_min":18,"x_max":907,"o":"m 711 18 q 674 29 696 20 q 639 46 652 38 q 601 80 621 58 q 570 120 581 101 q 550 162 557 141 q 530 230 542 183 q 519 274 524 254 q 511 302 513 295 q 494 339 504 321 q 478 363 485 357 q 472 367 473 367 q 471 367 471 367 q 466 364 469 367 q 421 265 450 347 q 375 152 397 192 q 326 92 353 113 q 269 60 300 70 q 193 50 239 51 q 163 49 174 49 q 146 50 153 49 q 127 56 138 52 q 40 130 65 75 q 32 151 34 142 q 29 178 30 161 q 28 192 28 185 q 41 253 28 223 q 104 350 57 289 q 189 520 189 460 q 178 556 189 541 q 106 648 163 583 q 24 769 33 732 q 18 801 18 787 q 18 821 18 815 q 20 845 18 836 q 108 925 37 891 q 152 941 132 937 q 196 945 172 945 l 205 945 q 349 888 291 945 q 381 853 369 870 q 403 813 393 836 q 412 792 408 801 q 418 768 415 783 q 427 726 421 753 q 446 655 441 655 q 449 664 447 655 q 454 686 452 673 q 474 758 461 719 q 498 822 486 797 q 524 867 511 848 q 555 902 536 885 q 650 951 597 940 q 696 956 673 956 q 797 931 750 956 q 879 833 863 897 q 882 806 882 820 q 810 644 882 736 q 805 638 807 642 q 758 576 772 596 q 739 546 743 557 q 732 519 734 535 q 727 480 727 499 q 758 384 727 429 q 810 308 783 347 q 853 248 838 268 q 906 124 903 184 q 907 115 907 119 q 882 57 907 81 q 760 16 844 18 l 730 16 q 711 18 716 16 m 203 668 q 210 677 210 673 l 210 681 q 203 700 210 688 q 176 739 195 713 q 148 775 161 759 q 131 796 136 791 q 113 807 122 807 q 100 800 106 807 q 93 786 93 794 l 93 783 q 106 758 94 774 q 134 718 119 739 q 162 682 150 697 q 178 665 174 667 q 189 661 184 661 q 203 668 197 661 m 266 584 q 273 600 273 591 q 265 618 273 608 q 255 630 259 627 q 243 633 251 633 q 220 610 223 633 q 219 604 219 607 q 234 581 219 586 q 250 577 243 577 q 266 584 259 577 z "},"Y":{"ha":831,"x_min":-18,"x_max":854,"o":"m 329 8 q 296 23 315 12 q 265 46 277 34 q 218 195 218 93 q 222 258 218 224 q 229 311 227 293 q 232 338 231 329 q 235 357 233 348 q 245 434 239 382 q 249 452 247 442 q 252 467 250 461 q 253 479 253 473 q 187 568 253 522 q 173 578 181 572 q 153 591 161 586 q 80 652 117 617 q 24 713 43 687 q -18 827 -18 771 l -18 836 q -15 862 -17 853 q -7 884 -13 871 q 79 952 18 937 q 121 958 99 958 q 166 952 142 958 q 306 873 241 939 q 336 840 323 857 q 366 798 349 824 q 401 749 389 763 q 420 736 413 736 q 505 816 445 736 q 583 905 550 873 q 652 954 616 936 q 674 963 666 960 q 698 966 683 966 l 707 966 q 722 965 715 966 q 748 958 731 963 q 771 949 760 954 q 789 941 783 945 q 837 889 821 923 q 854 829 854 855 q 852 812 854 820 q 770 670 839 762 q 738 633 762 659 q 682 576 713 606 q 607 497 628 522 q 578 452 586 472 q 563 398 566 427 q 561 336 561 369 q 562 275 561 309 q 563 237 563 254 q 562 199 563 215 q 550 143 559 172 q 421 13 520 38 q 382 6 399 7 q 358 5 365 5 q 329 8 341 5 m 62 785 q 71 795 66 787 q 75 809 75 803 q 84 831 75 817 q 104 856 93 845 q 132 872 117 867 q 158 896 158 880 q 156 905 158 901 q 135 918 151 918 q 100 908 121 918 q 54 867 75 895 q 31 813 33 840 q 30 805 30 808 q 31 800 30 802 q 36 791 32 795 q 53 784 44 784 q 62 785 57 784 m 112 716 q 118 724 117 722 q 119 730 119 727 q 119 735 119 732 q 98 757 116 754 q 94 758 96 758 q 89 757 91 758 q 81 751 85 755 q 72 732 72 741 q 79 715 72 724 q 94 708 86 708 q 112 716 103 708 z "},"Z":{"ha":832,"x_min":-7,"x_max":850,"o":"m 256 -4 q 115 31 161 2 q 52 142 52 68 q 56 180 52 160 q 68 230 61 208 q 92 283 76 252 q 167 406 120 342 q 262 515 214 469 q 353 641 337 587 q 355 663 355 653 q 286 711 355 711 q 258 710 277 711 q 220 705 239 708 q 147 701 180 701 q 75 709 104 701 q -5 793 7 732 q -7 809 -7 802 q 40 896 -7 854 q 189 962 95 943 q 313 975 250 972 q 411 978 376 978 q 473 976 446 978 q 635 952 576 966 q 728 915 694 939 q 772 863 762 894 q 779 831 779 849 q 689 638 779 764 q 632 562 668 608 q 572 490 596 517 q 459 339 485 393 q 442 283 442 304 q 444 273 442 278 q 451 257 446 263 q 469 245 456 250 q 518 236 487 236 l 523 236 q 627 248 558 237 q 711 260 690 259 q 739 261 731 261 q 782 256 763 261 q 848 205 836 242 q 850 188 850 197 q 759 80 850 128 q 506 14 700 47 q 302 -5 390 -5 q 256 -4 278 -5 m 155 856 q 196 870 171 863 q 239 880 220 877 q 260 882 247 881 q 284 883 273 883 q 302 883 296 883 q 312 885 309 884 q 317 889 315 886 q 323 903 323 895 l 323 905 q 314 921 322 913 l 304 928 l 267 927 q 202 918 229 926 q 149 902 173 911 q 119 886 125 892 q 113 871 113 879 q 114 863 113 867 q 132 849 119 849 q 142 851 136 849 q 155 856 149 853 m 81 785 q 96 811 96 795 q 87 827 96 819 q 71 835 79 835 q 53 827 60 835 q 45 808 45 819 q 54 787 45 792 q 68 782 62 782 q 81 785 74 782 z "},"[":{"ha":725,"x_min":68,"x_max":657,"o":"m 281 -161 q 121 14 160 -135 q 85 379 94 124 q 83 435 85 401 q 78 496 81 468 q 68 720 68 627 q 74 842 68 793 q 125 1020 87 942 q 143 1051 135 1040 q 168 1079 151 1062 q 268 1134 213 1126 q 317 1137 290 1137 q 414 1128 361 1137 q 539 1087 500 1113 q 574 1017 574 1056 q 548 942 574 982 q 525 920 539 929 q 483 900 510 911 q 382 816 392 867 q 371 710 373 779 q 369 590 369 640 q 370 486 369 540 q 383 298 374 378 q 427 121 398 182 q 461 81 440 92 q 532 67 483 70 q 618 48 592 63 q 653 -1 645 33 q 657 -33 657 -18 q 631 -104 657 -73 q 379 -165 581 -163 l 331 -165 q 302 -164 313 -165 q 281 -161 292 -163 m 168 713 q 173 721 172 717 q 174 727 174 724 q 173 734 174 730 l 173 745 q 178 810 173 772 q 197 900 186 858 q 219 954 209 941 q 227 971 227 962 l 227 974 q 216 991 227 985 q 205 993 211 993 q 199 992 202 993 q 183 982 190 990 q 153 907 168 964 q 130 789 137 850 q 128 749 128 765 q 130 723 128 732 q 152 705 134 705 q 161 706 158 705 q 168 713 165 708 m 159 597 q 171 611 168 601 q 173 623 173 618 q 170 636 173 631 q 149 646 163 646 q 125 635 127 646 q 123 621 123 624 q 139 595 123 606 q 149 593 144 593 q 159 597 153 593 z "},"\\":{"ha":821,"x_min":68,"x_max":753,"o":"m 150 1061 q 168 1062 159 1062 q 288 1001 222 1062 q 350 923 321 970 q 413 798 378 876 q 608 398 510 581 q 715 181 683 257 q 752 54 747 106 q 753 33 753 43 q 691 -82 753 -48 q 673 -88 682 -87 q 648 -90 665 -90 q 622 -88 631 -90 q 597 -82 612 -86 q 478 -9 529 -60 q 306 262 392 72 q 277 329 294 287 q 247 406 260 370 q 231 448 233 441 q 174 568 229 464 q 75 815 94 718 q 68 887 68 846 l 68 895 q 73 953 68 929 q 89 997 79 974 q 106 1031 98 1021 q 127 1050 115 1042 q 150 1061 140 1058 m 446 210 q 432 215 439 215 q 421 212 427 215 q 410 193 410 206 l 410 191 q 422 161 412 184 q 444 115 432 139 q 464 80 456 92 q 492 58 478 58 q 506 64 499 58 q 513 80 513 72 q 508 95 513 87 q 469 168 494 112 q 454 196 461 184 q 446 210 448 208 m 406 300 q 386 310 396 310 q 372 307 382 310 q 361 286 361 303 q 371 267 361 276 q 389 257 380 257 q 410 273 405 257 q 412 283 412 277 q 406 300 412 292 z "},"]":{"ha":725,"x_min":68,"x_max":657,"o":"m 444 1133 q 604 959 565 1107 q 640 593 631 848 q 642 538 640 571 q 647 477 644 505 q 657 252 657 345 q 651 130 657 180 q 600 -47 637 31 q 582 -79 590 -68 q 557 -106 574 -90 q 457 -161 512 -154 q 408 -165 435 -165 q 311 -155 364 -165 q 186 -115 225 -140 q 151 -44 151 -83 q 177 31 151 -9 q 200 53 186 43 q 242 73 215 62 q 343 157 333 106 q 354 263 352 193 q 356 382 356 332 q 355 487 356 433 q 342 675 351 594 q 298 851 327 790 q 263 891 285 880 q 193 905 242 903 q 106 924 133 909 q 72 974 80 939 q 68 1006 68 990 q 94 1076 68 1045 q 346 1137 144 1135 l 394 1137 q 422 1136 412 1137 q 444 1133 433 1135 m 557 260 q 553 252 553 256 q 552 245 552 249 q 552 238 552 242 l 552 228 q 547 162 552 201 q 528 73 539 115 q 506 19 516 31 q 498 1 498 10 l 498 -1 q 509 -18 498 -12 q 519 -20 515 -20 q 526 -20 523 -20 q 542 -9 535 -18 q 572 65 557 8 q 595 184 588 122 q 597 224 597 208 q 595 250 597 241 q 573 268 591 268 q 564 266 567 268 q 557 260 560 264 m 566 376 q 554 361 557 372 q 552 349 552 355 q 555 336 552 342 q 576 327 562 327 q 600 338 597 327 q 602 352 602 349 q 586 377 602 366 q 576 380 581 380 q 566 376 572 380 z "},"_":{"ha":908,"x_min":186,"x_max":959,"o":"m 820 283 q 933 214 897 275 q 959 126 959 170 q 949 68 959 108 q 861 20 940 29 q 829 17 843 18 q 800 14 814 16 q 749 7 781 11 q 663 0 718 4 q 453 -9 530 -9 l 443 -9 q 328 -1 372 -9 q 209 75 244 18 q 186 149 186 113 q 199 208 186 170 q 290 263 212 245 q 639 290 460 290 q 820 283 728 290 m 555 190 q 566 208 566 197 q 566 217 566 210 q 551 230 565 224 q 519 231 544 231 q 468 230 495 231 q 428 227 441 229 q 395 202 395 220 q 397 193 395 198 q 417 179 404 179 q 423 180 420 179 q 507 186 445 186 q 538 188 524 186 q 555 190 551 189 m 654 189 q 672 211 671 195 l 672 214 q 658 235 672 227 q 649 237 654 237 q 634 234 643 237 q 621 221 625 231 q 618 212 618 216 q 626 196 618 203 q 645 188 634 188 q 654 189 649 188 z "},"a":{"ha":808,"x_min":24,"x_max":797,"o":"m 150 2 q 81 54 111 11 q 24 278 24 132 q 26 323 24 300 q 39 470 31 424 q 57 538 43 492 q 90 629 72 584 q 382 967 205 912 q 433 972 404 972 q 484 967 461 972 q 684 714 621 926 q 721 536 705 643 q 735 453 727 490 q 759 350 743 416 q 795 166 794 207 q 797 119 797 125 q 769 25 797 52 q 725 1 747 3 q 700 0 704 0 q 633 16 666 0 q 526 125 593 37 q 498 160 511 144 q 479 182 485 176 q 451 203 467 195 q 423 212 436 211 q 418 213 420 213 q 393 201 405 213 q 356 143 379 187 q 339 114 348 128 q 327 92 331 100 q 292 53 315 75 q 254 22 269 30 q 207 5 231 9 q 168 1 182 1 q 150 2 158 1 m 257 730 q 267 744 260 734 q 281 764 274 753 q 321 810 299 787 q 362 847 344 833 q 380 863 376 857 q 384 873 384 869 q 382 880 384 877 q 363 895 376 895 q 348 890 357 895 q 296 849 326 879 q 243 788 267 819 q 220 744 220 757 q 228 724 220 727 q 239 721 236 721 q 257 730 249 721 m 222 636 q 228 652 228 644 q 226 663 228 658 q 204 676 220 676 q 180 652 180 673 q 189 630 180 633 q 202 627 198 627 q 222 636 212 627 m 392 375 q 430 467 422 387 q 433 521 433 492 q 432 550 433 535 q 423 624 430 595 q 416 642 420 633 q 408 656 412 650 q 401 663 404 663 q 371 541 389 663 q 366 511 368 524 q 362 495 363 498 q 357 459 359 486 q 355 410 355 433 q 358 378 355 386 q 372 370 361 370 q 382 372 376 370 q 392 375 388 373 z "},"b":{"ha":853,"x_min":31,"x_max":837,"o":"m 267 -15 q 146 37 190 -3 q 97 111 117 66 q 60 231 77 155 q 39 380 44 300 q 36 414 37 399 q 34 433 35 429 q 31 532 31 456 q 34 682 31 607 q 39 779 36 757 q 52 823 44 800 q 66 861 59 845 q 113 915 81 889 q 183 956 144 941 q 245 975 209 966 q 309 987 281 984 q 379 989 338 989 l 395 989 q 481 985 446 989 q 570 971 520 981 q 644 954 619 961 q 775 852 739 920 q 795 760 795 807 q 787 695 795 728 q 754 620 775 654 q 690 543 733 587 l 648 499 l 671 490 q 725 463 696 481 q 771 431 755 445 q 798 399 785 416 q 817 370 810 382 q 837 276 837 321 q 797 155 837 213 q 756 109 781 132 q 709 73 731 86 q 679 58 701 68 q 632 37 656 47 q 593 22 607 27 q 444 -8 524 1 q 316 -18 363 -18 q 267 -15 289 -18 m 143 749 q 149 758 146 752 q 152 768 151 763 q 183 830 158 800 q 238 872 208 860 q 263 897 263 880 q 259 906 263 901 q 250 916 255 911 q 239 920 244 920 q 222 914 235 920 q 195 900 209 908 q 174 885 182 892 q 110 787 127 844 q 107 770 107 777 l 107 765 q 115 749 109 756 q 130 743 123 743 q 143 749 136 743 m 121 650 q 134 670 134 657 q 121 694 133 688 q 108 697 114 697 q 96 694 102 697 q 86 673 86 688 q 94 653 86 658 q 109 648 102 648 q 121 650 115 648 m 406 636 q 443 677 435 648 q 448 711 448 696 q 447 724 448 718 q 431 753 444 745 q 420 758 427 756 q 408 761 414 760 q 401 762 404 762 q 381 757 391 762 q 363 740 370 751 q 356 711 359 730 q 353 673 353 692 q 363 638 353 646 q 384 631 374 631 q 406 636 393 631 m 433 210 q 496 288 480 223 q 504 342 504 319 q 487 393 504 375 q 439 416 468 416 q 421 414 431 416 q 373 371 391 407 q 355 279 355 336 q 356 256 355 268 q 359 237 357 243 q 369 215 361 225 q 385 203 376 205 q 393 202 389 202 q 406 203 399 202 q 433 210 419 205 z "},"c":{"ha":796,"x_min":3,"x_max":803,"o":"m 161 795 q 320 913 224 863 q 505 964 416 964 q 650 905 587 964 q 745 677 745 813 l 745 665 q 693 522 740 582 q 608 466 659 479 q 594 465 601 465 q 568 469 582 465 q 532 489 547 475 q 513 520 519 500 q 500 584 507 539 q 490 632 494 615 q 480 656 486 648 q 465 669 475 664 q 450 673 458 673 q 397 640 425 673 q 342 528 359 595 q 336 479 336 500 q 338 454 336 465 q 370 382 344 422 q 427 330 389 353 q 512 295 466 306 q 606 284 560 285 q 684 277 644 283 q 792 218 781 256 q 803 168 803 180 q 745 72 803 118 q 498 9 646 9 l 492 9 q 234 66 340 10 q 44 254 85 153 q 3 433 3 355 q 18 543 3 487 q 161 795 53 679 m 268 762 q 378 839 323 814 q 409 855 401 848 q 417 870 417 861 q 413 880 417 874 q 404 889 409 885 q 395 893 399 893 q 374 886 391 893 q 340 871 357 880 q 313 857 323 863 q 232 791 268 825 q 217 775 222 781 q 211 766 212 770 q 209 759 209 763 q 216 743 209 750 q 231 736 222 736 q 244 741 237 736 q 268 762 252 747 m 185 662 q 193 680 193 671 q 183 698 193 689 q 175 704 178 703 q 170 705 172 705 q 164 704 168 705 q 148 695 155 703 q 142 680 142 688 q 144 672 142 676 q 149 663 146 667 q 162 654 157 654 q 168 654 167 654 q 185 662 177 654 z "},"d":{"ha":848,"x_min":35,"x_max":811,"o":"m 264 -11 q 132 43 179 -6 q 81 124 100 73 q 47 271 62 176 q 41 329 43 298 q 38 414 39 361 q 36 561 37 467 l 35 734 l 46 785 q 64 854 55 828 q 87 901 73 880 q 137 949 108 932 q 213 977 166 967 q 243 982 231 980 q 272 984 255 983 q 323 984 289 984 q 418 980 386 984 q 505 960 450 976 q 586 927 543 949 q 649 883 628 904 q 782 673 744 783 q 805 582 800 621 q 811 507 811 544 q 810 485 811 496 q 797 378 809 426 q 756 275 785 330 q 595 79 690 138 q 357 -8 479 1 q 338 -9 347 -9 q 307 -12 315 -12 q 290 -12 302 -12 q 264 -11 278 -12 m 136 750 q 140 758 138 752 q 143 770 142 764 q 161 820 147 795 q 192 861 175 846 q 206 871 197 866 q 224 881 215 877 q 253 909 253 895 q 245 923 253 916 q 238 928 241 928 q 234 929 236 929 q 226 928 231 929 q 181 909 205 926 q 140 871 157 893 q 118 832 130 856 q 102 791 106 808 q 99 779 100 786 q 98 768 98 772 q 107 747 98 751 q 121 743 116 743 q 136 750 129 743 m 115 642 q 130 664 130 650 l 130 665 q 114 687 129 680 q 104 689 109 689 q 90 684 96 689 q 79 664 79 677 q 83 651 79 658 q 93 642 87 645 q 104 638 99 638 q 115 642 108 638 m 425 246 q 440 254 432 249 q 453 265 448 260 q 483 321 474 283 q 497 448 492 359 q 499 499 499 473 q 488 623 499 561 q 448 720 475 701 q 423 726 437 726 q 407 724 416 726 q 373 702 382 719 q 361 566 362 686 q 359 506 360 532 q 359 471 359 479 q 357 421 357 452 q 357 370 357 390 l 357 330 q 359 281 358 291 q 377 243 363 252 q 393 239 383 239 l 398 239 q 425 246 412 240 z "},"e":{"ha":839,"x_min":12,"x_max":827,"o":"m 397 3 q 389 4 397 3 q 371 5 382 5 q 351 7 359 6 q 335 9 344 8 q 309 14 326 11 q 307 15 308 14 q 167 73 230 31 q 68 180 110 113 q 12 413 12 281 q 14 467 12 439 q 277 894 49 743 q 365 937 316 918 q 455 964 414 956 q 508 969 484 968 q 543 970 532 970 q 578 968 564 970 q 700 924 645 958 q 777 846 754 890 q 798 747 798 799 q 784 661 798 705 q 637 482 745 545 q 598 463 616 470 q 556 449 581 456 q 426 407 471 425 q 364 370 382 389 q 348 336 348 353 q 365 301 348 319 q 390 286 376 290 q 425 283 405 283 q 444 283 434 283 q 494 288 472 285 q 547 297 516 290 q 629 318 577 304 q 710 335 692 334 q 734 336 729 336 q 779 327 760 336 q 823 277 818 307 q 827 236 827 248 q 806 161 827 199 q 692 62 770 105 q 551 14 640 33 q 515 8 539 11 q 465 4 492 6 q 427 2 439 3 q 410 2 414 2 q 397 3 399 2 m 300 798 q 374 852 336 833 q 401 879 401 865 q 396 887 401 882 q 387 897 392 892 q 378 901 381 901 q 341 886 366 900 q 293 852 317 871 q 256 817 269 833 q 250 798 250 807 q 251 789 250 793 q 271 777 256 777 q 282 781 276 777 q 300 798 288 785 m 222 708 q 229 725 229 715 q 215 749 229 745 q 204 751 210 751 q 191 747 197 751 q 181 726 181 741 q 191 706 181 711 q 206 702 201 702 q 222 708 215 702 m 438 611 q 450 617 444 613 q 460 625 456 621 q 494 673 486 650 q 503 708 503 697 q 496 729 503 721 q 481 734 490 734 q 463 730 473 734 q 425 696 443 719 q 401 646 406 673 q 399 631 399 637 q 418 606 399 606 q 438 611 427 606 z "},"f":{"ha":824,"x_min":22,"x_max":812,"o":"m 270 -3 q 101 103 157 25 q 42 257 60 164 q 23 405 24 349 q 22 476 22 461 q 27 611 22 553 q 98 821 37 727 q 479 978 189 963 q 500 979 489 979 q 551 977 524 979 q 622 968 593 974 q 708 936 671 959 q 772 870 770 894 q 773 844 773 846 q 719 777 773 803 q 691 769 711 774 q 648 759 671 764 q 610 751 625 753 q 518 738 551 743 q 465 726 484 732 q 430 711 446 720 q 384 675 397 692 q 370 647 370 657 q 374 636 370 641 q 466 612 391 612 q 551 617 502 612 q 629 621 586 621 l 644 621 q 717 616 695 621 q 804 552 779 600 q 812 511 812 532 q 803 471 812 491 q 736 412 785 433 q 712 405 728 409 q 676 396 695 400 q 646 389 658 391 q 630 387 634 387 l 628 387 q 627 388 628 388 q 623 387 625 388 q 610 386 617 387 q 594 384 604 385 q 574 382 583 382 q 457 360 492 377 q 417 326 435 349 q 392 275 399 302 q 389 193 389 264 l 389 161 q 390 138 389 150 q 391 111 391 124 q 382 43 391 75 q 303 -6 369 -1 q 284 -5 294 -6 q 270 -3 275 -5 m 158 741 q 177 760 167 743 q 217 807 190 779 q 266 849 244 834 q 288 866 283 860 q 294 881 294 873 q 286 894 294 888 q 271 901 279 901 q 234 882 260 901 q 183 837 209 863 q 140 786 157 810 q 130 759 130 770 q 143 740 130 746 q 148 739 146 739 l 149 738 l 152 738 q 157 740 154 739 l 158 741 m 123 652 q 136 668 133 659 q 139 684 139 678 q 136 695 139 690 q 125 703 132 700 q 115 707 119 707 q 101 700 109 707 q 88 685 94 694 q 83 669 83 677 q 87 660 83 665 q 97 651 91 655 q 106 648 102 648 q 114 649 110 648 q 123 652 119 650 z "},"g":{"ha":983,"x_min":4,"x_max":964,"o":"m 389 -19 q 376 -16 386 -18 q 354 -12 366 -14 q 94 169 191 21 q 70 213 85 184 q 42 268 55 241 q 23 311 28 296 q 4 429 4 367 q 42 614 4 516 q 224 839 90 732 q 373 928 288 888 q 533 986 458 968 q 566 992 555 991 q 585 993 576 993 q 605 992 593 993 q 636 990 621 991 q 658 986 651 988 q 781 914 739 962 q 822 820 822 865 q 819 795 822 808 q 734 710 802 734 q 710 705 726 707 q 681 701 694 702 q 662 700 669 700 l 656 700 q 649 701 654 701 q 635 700 644 701 q 597 699 618 700 q 562 696 574 697 q 539 692 549 694 q 516 686 529 690 q 378 578 433 662 q 340 505 355 543 q 333 470 334 486 q 332 447 332 453 q 335 414 332 429 q 355 364 341 394 q 380 319 369 334 q 496 227 437 247 q 519 221 513 221 q 527 221 526 221 q 551 225 537 221 q 619 281 606 239 q 623 296 623 290 q 620 311 623 301 q 602 344 615 327 q 558 393 589 361 q 533 421 541 411 q 520 436 524 431 q 515 450 517 442 q 512 471 512 460 q 542 548 512 505 q 703 631 599 631 q 762 625 730 631 q 956 471 920 590 q 962 433 960 458 q 964 393 964 408 q 956 334 962 365 q 943 295 949 304 q 941 292 942 294 q 941 289 941 290 q 932 267 941 286 q 913 228 924 248 q 895 196 902 208 q 715 43 835 104 q 439 -20 588 -19 q 406 -20 420 -20 q 389 -19 392 -20 m 225 715 q 233 725 230 721 q 236 730 236 728 q 249 743 236 732 q 282 769 262 755 q 321 797 302 784 q 352 819 339 809 q 367 831 366 828 q 370 842 370 837 q 366 852 370 847 q 347 861 359 861 q 311 844 340 861 q 255 806 282 827 q 218 774 237 792 q 191 745 199 756 q 182 724 182 733 q 184 716 182 720 q 204 704 188 704 q 214 706 210 704 q 225 715 218 709 m 157 616 q 169 631 169 625 q 170 640 170 638 q 162 660 170 651 q 145 667 155 667 q 139 666 142 667 q 122 656 131 664 q 111 641 113 648 q 111 635 111 638 q 113 625 111 630 q 124 615 117 618 q 140 611 132 611 q 157 616 149 611 z "},"h":{"ha":947,"x_min":28,"x_max":897,"o":"m 705 -9 q 689 -3 700 -7 q 668 7 679 1 q 643 21 652 14 q 621 41 633 28 q 602 63 609 52 q 587 90 595 73 q 559 168 572 124 q 541 251 547 211 q 537 273 538 264 q 535 283 536 282 q 533 306 534 286 q 532 355 532 326 q 531 402 532 387 q 529 426 530 418 q 525 437 528 433 q 496 465 515 457 q 463 473 478 473 q 447 472 455 473 q 400 437 414 466 q 393 420 395 427 q 392 402 392 413 l 392 395 q 394 357 392 385 q 400 300 397 330 q 410 170 410 214 q 408 138 410 149 q 390 95 402 117 q 363 58 378 73 q 303 20 340 34 q 232 5 267 5 q 120 58 167 5 q 54 190 75 106 q 33 335 39 252 q 28 471 28 418 q 31 549 28 513 q 43 673 35 605 q 58 770 52 741 q 130 903 74 850 q 247 952 183 952 l 250 952 q 368 872 330 949 q 396 706 396 817 l 396 701 q 397 659 396 673 q 402 638 399 644 q 413 628 406 631 q 421 625 416 626 q 434 624 426 624 q 456 624 442 624 q 483 626 471 625 q 498 629 494 627 q 538 688 528 641 q 540 718 540 699 q 534 796 540 747 q 529 848 529 828 q 530 859 529 854 q 543 903 532 880 q 614 971 572 960 q 677 983 655 983 q 760 963 718 983 q 818 915 797 947 q 852 824 839 884 q 864 753 859 795 q 878 614 869 710 q 878 605 878 610 q 887 498 884 534 q 891 431 890 462 q 894 348 892 401 q 895 332 894 340 q 897 239 897 278 q 895 176 897 200 q 876 99 891 130 q 802 13 849 42 q 757 -6 778 -1 q 723 -10 736 -10 q 705 -9 713 -10 m 117 648 q 126 659 122 650 q 130 680 130 668 q 143 749 130 705 q 173 817 157 793 q 182 839 182 829 q 176 852 182 847 q 161 859 170 859 q 145 852 153 859 q 113 797 129 836 q 90 725 97 758 q 83 677 83 693 q 85 661 83 668 q 106 646 93 646 q 117 648 111 646 m 117 549 q 123 557 122 553 q 125 570 125 561 q 123 584 125 580 q 116 593 121 588 q 97 601 106 601 q 91 600 94 601 q 76 588 79 596 q 73 574 73 579 q 77 556 73 566 q 91 543 84 544 q 99 541 97 541 q 117 549 109 541 z "},"i":{"ha":450,"x_min":30,"x_max":404,"o":"m 198 13 q 168 26 180 18 q 142 45 155 33 q 73 169 98 85 q 35 401 47 259 q 32 488 33 431 q 30 579 30 544 q 30 628 30 614 q 31 670 30 656 q 40 764 37 760 q 44 772 41 765 q 50 789 47 779 q 143 928 75 883 q 174 945 161 939 q 204 956 187 951 q 257 964 233 964 q 315 950 290 964 q 384 858 359 922 q 400 793 397 825 q 404 729 404 761 q 402 669 404 703 q 388 469 399 597 q 375 246 379 374 q 366 129 373 165 q 342 68 359 93 q 289 18 319 33 q 269 11 278 12 q 242 8 260 9 l 232 8 q 216 9 222 8 q 198 13 207 9 m 142 650 q 146 655 145 652 q 149 666 148 659 q 151 688 150 673 q 175 808 157 768 q 181 829 181 821 q 174 843 181 837 q 159 850 167 850 q 142 841 151 850 q 119 783 130 827 q 106 694 109 740 q 106 671 106 678 q 107 660 106 663 q 111 652 108 656 q 121 645 117 646 q 127 645 126 645 q 142 650 135 645 m 136 560 q 145 580 145 570 q 143 590 145 585 q 119 606 137 606 q 104 597 112 606 q 97 579 97 588 q 105 561 97 570 q 121 552 113 552 q 136 560 128 552 z "},"j":{"ha":786,"x_min":7,"x_max":746,"o":"m 250 12 q 129 77 181 26 q 54 186 85 120 q 17 298 27 239 q 9 357 10 338 q 7 391 7 377 q 8 421 7 406 q 13 460 10 447 q 22 492 15 474 q 87 594 46 567 q 138 610 113 610 q 180 599 159 610 q 250 500 224 573 q 257 476 252 493 q 267 440 262 459 q 286 382 277 403 q 307 352 295 362 q 321 342 317 342 q 326 342 326 342 q 345 350 334 342 q 409 492 394 382 q 413 567 413 522 q 412 604 413 584 q 403 726 411 675 q 401 745 401 737 q 400 755 400 753 q 401 758 401 755 q 400 764 401 760 q 397 785 399 773 q 394 831 394 808 l 394 838 q 431 919 395 885 q 480 953 454 943 q 545 963 507 963 l 550 963 q 614 953 587 963 q 669 915 642 941 q 689 892 682 903 q 703 867 696 882 q 713 842 709 855 q 721 821 718 829 l 721 820 q 725 804 723 812 q 728 791 726 795 q 730 780 729 787 q 733 758 731 773 q 739 715 735 743 l 739 713 q 746 628 745 660 q 746 589 746 595 q 741 507 746 540 q 739 490 741 499 q 737 473 738 480 q 730 434 736 460 q 718 376 725 408 q 699 321 712 357 q 673 256 686 286 q 549 85 623 142 q 393 15 484 34 q 354 11 378 12 q 311 9 330 9 l 292 9 q 250 12 264 9 m 481 678 q 484 685 483 682 q 486 697 486 689 q 485 721 486 705 q 465 832 480 817 q 450 839 458 839 q 434 831 441 839 q 429 825 430 828 q 428 818 428 822 l 428 813 q 433 791 429 806 q 436 768 434 785 q 439 731 437 751 q 441 700 439 710 q 444 684 442 689 q 447 677 445 680 q 463 669 454 669 l 465 669 q 481 678 473 669 m 488 585 q 494 597 493 591 q 495 605 495 603 q 492 617 495 612 q 480 627 488 623 q 466 631 473 631 q 449 623 453 631 q 445 608 445 614 q 448 595 445 602 q 462 580 455 582 q 472 578 469 578 q 488 585 480 578 z "},"k":{"ha":995,"x_min":38,"x_max":998,"o":"m 203 7 q 55 207 87 33 q 41 334 44 259 q 38 517 38 409 l 38 595 l 39 770 l 47 800 q 191 953 75 918 q 235 961 216 960 q 260 962 254 962 q 304 958 285 962 q 397 890 366 943 q 414 847 409 871 q 422 780 419 823 q 424 743 423 755 q 427 724 425 730 q 433 711 429 718 q 458 691 444 691 q 495 713 475 691 q 523 747 509 727 q 560 806 538 768 q 631 903 597 870 q 707 951 665 936 q 821 969 751 969 l 824 969 q 947 939 904 969 q 968 919 961 930 q 981 892 976 909 q 984 876 984 880 q 985 868 985 871 q 984 857 985 863 q 959 798 979 827 q 886 718 938 768 q 843 673 863 693 q 817 646 823 652 q 773 529 773 589 q 783 492 773 512 q 819 435 793 471 q 896 327 869 364 q 936 271 922 290 q 976 209 961 237 q 991 170 991 181 q 992 166 991 168 q 995 163 994 164 q 998 137 998 159 q 997 115 998 123 q 989 97 995 108 q 943 44 973 63 q 892 21 919 28 q 844 14 865 14 q 833 15 838 14 q 680 90 743 22 q 632 151 655 113 q 569 269 608 189 q 531 344 544 318 q 510 382 517 370 q 496 406 503 395 q 465 440 480 427 q 442 453 450 453 l 440 453 q 437 444 437 452 q 443 406 437 431 q 450 374 446 391 q 457 343 454 357 q 461 322 460 329 q 471 204 471 274 q 470 170 471 181 q 468 152 470 159 q 463 136 467 144 q 363 29 436 65 q 339 18 349 22 q 327 14 329 14 q 320 12 325 14 q 309 9 315 11 q 273 3 292 3 q 250 3 254 3 q 203 7 222 3 m 138 690 q 144 694 141 692 q 149 698 147 696 q 150 714 149 701 q 151 746 151 728 q 157 808 151 790 q 160 824 159 816 q 163 838 162 833 l 163 842 q 162 848 163 846 q 157 855 161 852 q 141 861 149 861 q 121 844 130 861 q 106 752 106 815 l 106 718 q 111 701 108 707 q 119 692 113 696 q 126 689 123 690 l 129 688 l 132 688 q 138 690 134 689 m 142 605 q 150 625 150 614 q 148 635 150 629 q 127 651 142 651 q 110 643 117 651 q 102 624 102 634 q 103 614 102 618 q 110 606 105 610 q 126 597 118 597 q 142 605 134 597 z "},"l":{"ha":726,"x_min":33,"x_max":742,"o":"m 240 7 q 60 144 104 30 q 38 223 43 186 q 33 325 33 260 l 33 359 q 34 440 33 401 q 36 494 35 479 q 40 545 37 509 q 45 619 42 580 q 50 689 47 663 q 54 731 52 714 q 60 768 56 748 q 174 951 85 909 q 213 966 195 962 q 256 970 231 970 q 377 917 342 970 q 416 836 412 873 q 420 783 420 799 q 404 646 420 728 q 401 631 403 639 q 398 616 399 622 q 397 611 398 614 q 395 600 396 606 q 393 589 394 594 l 393 589 q 389 574 391 583 q 386 556 387 564 q 379 522 382 538 q 371 476 376 506 q 366 446 368 460 q 362 424 363 431 q 359 393 360 413 q 359 352 359 372 q 360 323 359 332 q 440 243 373 248 l 448 243 q 553 261 489 243 q 615 273 585 270 q 661 277 644 277 q 678 276 671 277 q 705 268 692 274 q 726 254 718 262 q 740 225 738 240 q 742 203 742 210 q 736 170 742 186 q 663 80 716 119 q 492 18 602 39 q 413 5 440 8 q 338 3 385 3 l 277 3 q 240 7 258 3 m 151 713 q 163 755 157 718 q 191 848 180 828 q 196 865 196 858 q 189 882 196 874 q 174 888 182 888 q 170 888 172 888 q 152 872 159 885 q 136 827 145 859 q 120 765 126 794 q 113 726 113 736 l 113 724 q 125 708 117 711 q 136 706 132 706 q 151 713 144 706 m 132 621 q 146 642 146 629 l 146 644 q 130 666 146 658 q 118 668 123 668 q 104 663 110 668 q 96 644 96 656 l 96 642 q 111 619 96 629 q 120 616 116 616 q 132 621 125 616 z "},"m":{"ha":1230,"x_min":28,"x_max":1177,"o":"m 205 -7 q 172 5 191 -4 q 139 24 153 14 q 33 277 57 92 q 28 363 28 320 q 28 416 28 406 q 31 509 28 476 q 96 776 47 648 q 112 817 106 802 q 123 842 118 832 q 138 865 129 852 q 285 954 202 954 q 319 951 301 954 q 434 875 377 937 q 560 646 512 790 q 596 551 581 581 q 627 513 611 521 q 642 508 635 508 q 670 530 658 508 q 710 664 688 563 q 742 791 729 749 q 772 867 754 832 q 833 947 798 920 q 862 965 850 959 q 893 976 875 971 q 940 981 916 981 q 974 979 956 981 q 1050 952 1017 972 q 1135 848 1105 917 q 1152 790 1145 823 q 1166 703 1159 758 q 1175 586 1173 650 q 1177 486 1177 521 q 1175 408 1177 444 q 1151 193 1168 271 q 1102 69 1135 115 q 991 7 1058 7 l 984 7 q 963 11 972 8 q 940 20 954 14 q 857 153 878 49 q 848 218 851 180 q 845 331 846 256 q 834 491 843 476 q 827 501 830 501 l 827 501 q 817 484 823 500 q 802 431 812 467 q 772 335 785 370 q 747 272 760 300 q 645 174 710 192 q 629 171 636 171 q 615 170 622 170 l 600 170 q 562 175 575 171 q 532 189 549 178 q 423 361 465 224 q 361 476 386 476 q 357 471 360 476 q 351 460 353 467 q 341 408 341 441 q 342 391 341 400 q 363 251 345 345 q 377 173 374 198 q 381 123 381 147 l 381 116 q 378 81 381 94 q 361 50 374 66 q 283 -3 336 15 q 252 -8 269 -7 q 228 -9 235 -9 q 205 -7 214 -9 m 159 661 q 164 672 161 663 q 170 691 167 680 q 189 750 176 714 q 210 804 201 786 q 216 824 216 816 q 214 832 216 829 q 195 844 210 844 q 180 839 186 844 q 167 818 174 833 q 148 770 159 802 q 127 708 134 733 q 121 674 121 684 q 122 668 121 670 q 134 655 127 656 q 142 653 140 653 q 159 661 151 653 m 134 559 q 143 569 140 562 q 146 582 146 576 q 146 587 146 585 q 131 608 141 606 q 119 610 121 610 q 97 595 105 610 q 95 585 95 590 q 99 570 95 577 q 120 557 107 557 q 128 558 124 557 q 134 559 132 558 z "},"n":{"ha":923,"x_min":37,"x_max":867,"o":"m 195 -12 q 47 195 71 7 q 37 410 37 271 l 37 460 q 43 595 38 549 q 63 711 47 641 q 163 905 94 858 q 200 927 183 921 q 242 934 218 933 l 252 934 q 288 930 272 934 q 328 909 307 924 q 376 862 355 891 q 430 773 397 833 q 456 724 448 740 q 471 700 465 708 q 486 684 477 692 q 517 666 503 666 q 540 684 530 666 q 544 696 543 690 q 546 716 546 703 q 547 758 547 730 q 551 830 547 804 q 562 877 554 856 q 607 941 576 912 q 674 981 637 969 q 710 985 692 985 q 785 963 749 985 q 863 793 849 927 q 867 671 867 755 q 866 601 867 640 q 857 315 865 460 q 827 105 848 165 q 772 27 808 55 q 697 0 736 0 l 690 0 q 568 163 604 10 q 562 183 565 175 q 559 192 559 191 q 557 197 557 193 q 556 208 556 201 q 552 244 556 218 q 544 299 549 271 q 535 344 539 328 q 479 478 513 425 q 414 531 444 531 q 368 446 382 531 q 366 412 366 432 q 366 391 366 402 q 371 330 367 358 q 373 313 373 318 q 371 304 373 307 q 370 299 370 303 l 370 294 q 374 266 370 286 q 387 142 387 186 q 386 119 387 129 q 343 44 380 75 q 214 -13 280 -13 q 195 -12 205 -13 m 140 618 q 151 655 146 623 q 163 717 155 684 q 177 766 171 749 q 182 792 182 782 q 164 811 182 811 q 156 810 160 811 q 149 808 151 810 q 129 762 140 802 q 107 669 117 722 q 103 634 103 646 l 103 631 q 112 615 104 620 q 124 612 117 612 l 126 612 q 140 618 134 612 m 132 505 q 139 513 137 509 q 140 525 140 517 q 138 537 140 532 q 130 547 136 541 q 109 558 119 558 q 94 551 101 558 q 89 545 90 548 q 88 539 88 543 l 88 536 q 90 522 88 532 q 103 500 95 503 q 115 496 111 496 q 132 505 123 496 z "},"o":{"ha":899,"x_min":6,"x_max":860,"o":"m 359 -3 q 62 229 168 35 q 6 467 6 342 q 14 557 6 511 q 98 778 32 681 q 347 963 192 918 q 452 977 401 977 q 531 968 492 977 q 726 852 641 942 q 860 495 860 707 q 859 469 860 482 q 824 300 855 378 q 717 127 785 196 q 515 5 628 33 q 490 -1 500 1 q 467 -3 480 -3 q 429 -5 453 -4 q 387 -4 407 -5 q 359 -3 367 -4 m 155 650 q 170 682 161 654 q 199 750 181 716 q 229 792 218 785 q 233 796 231 793 q 237 803 235 800 q 239 811 239 808 q 236 819 239 814 q 224 830 230 829 q 216 831 218 831 q 197 825 207 831 q 162 777 183 814 q 128 701 142 740 q 121 677 123 684 q 119 667 119 670 q 120 662 119 664 q 125 652 121 657 q 142 646 134 646 q 155 650 148 646 m 127 549 q 137 562 133 553 q 142 577 142 570 q 133 593 142 586 q 114 601 124 601 q 88 578 88 600 q 97 551 88 558 q 113 545 106 545 q 127 549 120 545 m 473 267 q 494 288 483 272 q 513 323 505 303 q 536 432 531 375 q 542 518 542 488 q 536 585 542 555 q 508 669 527 632 q 467 718 488 706 q 450 721 458 721 q 374 598 399 721 q 367 514 367 556 l 367 507 q 378 400 368 462 q 422 280 393 309 q 454 262 437 262 q 473 267 463 262 z "},"p":{"ha":842,"x_min":35,"x_max":827,"o":"m 197 -2 q 46 149 81 26 q 35 267 35 186 q 37 340 35 300 q 45 597 45 508 q 44 641 45 622 q 43 669 43 655 q 49 745 43 713 q 74 824 56 787 q 232 953 120 913 q 403 978 312 978 q 578 957 486 978 q 819 745 777 911 q 826 699 825 722 q 827 665 827 676 q 825 632 827 647 q 718 468 806 530 q 667 442 696 454 q 583 414 637 430 q 471 378 509 393 q 415 351 432 364 q 389 318 397 337 q 376 255 376 295 q 378 227 376 242 q 380 167 380 195 l 380 156 q 376 108 380 123 q 350 54 368 79 q 309 15 332 28 q 263 -2 285 1 q 229 -5 241 -5 q 197 -2 212 -5 m 152 665 q 155 671 154 667 q 157 684 156 675 q 157 707 157 692 q 162 765 158 734 q 170 810 165 795 q 172 818 172 814 q 158 839 172 831 q 151 842 154 842 q 142 839 147 842 q 129 827 134 836 q 121 797 125 818 q 113 730 113 749 q 113 708 113 711 q 120 667 113 677 q 131 659 125 659 q 138 659 136 659 q 152 665 146 659 m 429 610 q 447 629 437 616 q 459 653 456 642 q 461 666 460 658 q 462 682 462 674 q 451 720 462 705 q 424 735 441 735 q 404 728 415 735 q 385 711 393 720 q 369 656 369 686 l 369 654 q 387 609 370 625 q 407 603 396 603 q 429 610 418 603 m 151 557 q 161 581 161 568 l 161 585 q 149 609 159 601 q 130 617 140 617 q 121 616 125 617 q 112 604 115 613 q 108 582 108 595 q 110 567 108 572 q 116 558 111 563 q 133 550 124 550 q 151 557 142 550 z "},"q":{"ha":916,"x_min":3,"x_max":935,"o":"m 790 -8 q 765 0 781 -6 q 732 12 748 5 q 671 32 693 26 q 624 37 648 37 q 597 35 611 37 q 562 27 584 33 q 500 11 539 22 q 451 4 478 5 q 412 3 423 3 q 362 5 384 3 q 59 237 167 40 q 3 477 3 352 q 10 566 3 520 q 73 750 27 673 q 111 809 92 785 q 154 859 129 833 q 290 954 217 924 q 448 985 372 985 q 720 863 597 985 q 748 833 739 844 q 772 801 758 822 q 857 511 857 669 q 845 389 857 452 q 827 325 840 365 q 803 258 814 285 q 797 231 797 243 q 800 215 797 222 q 813 198 803 205 q 850 182 824 192 q 901 160 884 171 q 926 133 918 149 q 935 98 935 117 q 932 73 935 85 q 895 12 923 39 q 829 -14 868 -14 q 790 -8 811 -14 m 151 677 q 157 687 154 680 q 162 699 159 693 q 192 765 172 730 q 229 819 212 800 q 241 842 241 832 q 239 849 241 846 q 220 863 231 863 q 184 836 205 863 q 137 757 160 803 q 115 695 115 711 q 124 675 116 680 q 137 671 133 671 q 151 677 144 671 m 116 570 q 127 586 125 576 q 130 602 130 596 q 127 616 130 610 q 116 625 124 621 q 102 629 108 629 q 84 617 91 629 q 78 596 78 605 q 79 586 78 591 q 91 570 84 574 q 103 567 98 567 q 116 570 109 567 m 470 275 q 491 296 480 281 q 509 331 502 312 q 533 441 528 384 q 538 529 538 498 q 534 593 538 565 q 504 677 524 641 q 464 726 485 714 q 446 730 454 730 q 372 607 397 730 q 364 528 364 568 l 364 516 q 376 409 365 471 q 418 289 391 318 q 452 270 435 270 q 470 275 460 270 z "},"r":{"ha":849,"x_min":30,"x_max":876,"o":"m 214 -7 q 58 184 93 13 q 36 362 43 256 q 30 534 30 469 q 32 617 30 579 q 43 714 35 663 q 60 798 51 766 q 61 801 61 800 q 68 825 66 817 q 76 841 71 833 q 92 862 81 848 q 96 867 94 864 q 317 977 165 964 q 381 983 364 983 q 405 984 397 984 q 433 982 420 984 q 460 979 446 981 q 488 976 476 977 q 678 911 592 964 q 777 807 751 867 q 789 771 785 788 q 792 731 792 755 q 772 649 792 686 q 699 560 752 612 q 639 492 655 517 q 623 447 623 467 l 623 442 q 654 376 623 412 q 779 269 688 338 q 805 245 789 261 q 835 213 821 229 q 855 187 849 197 q 871 154 867 168 q 876 126 876 140 l 876 119 q 844 57 873 84 q 770 15 814 31 q 746 8 755 9 q 717 6 736 6 q 555 81 625 6 q 511 138 530 106 q 463 231 492 170 q 398 346 425 318 q 378 365 382 363 q 373 366 374 366 q 362 355 366 366 q 359 325 359 347 q 359 286 359 302 l 359 252 q 362 191 359 216 q 366 128 366 157 l 366 119 q 361 71 366 86 q 273 -8 345 3 l 271 -8 q 254 -11 258 -11 q 245 -12 249 -12 l 238 -12 q 217 -7 231 -10 q 214 -7 216 -7 m 149 666 q 153 676 152 670 q 155 698 154 683 q 170 802 155 741 q 176 823 173 813 q 179 835 178 832 q 180 842 180 838 q 168 860 180 854 q 158 863 161 863 q 149 859 155 863 q 134 838 140 854 q 119 783 127 821 q 109 700 109 730 q 117 665 109 673 q 131 659 122 659 l 133 659 q 149 666 142 659 m 414 606 q 432 646 432 627 q 433 668 433 665 q 417 726 433 700 q 385 747 405 747 q 347 684 351 745 q 346 673 346 678 q 363 615 346 639 q 392 594 378 594 q 414 606 403 594 m 142 555 q 151 581 151 565 l 151 583 q 141 610 151 600 q 125 616 134 616 q 115 614 120 616 q 104 599 109 610 q 98 579 98 587 q 102 564 98 572 q 112 552 106 555 q 124 549 117 549 l 127 549 q 142 555 136 551 z "},"s":{"ha":678,"x_min":10,"x_max":661,"o":"m 205 -2 q 127 13 159 1 q 31 77 51 39 q 23 93 24 87 q 22 107 22 98 l 22 113 q 23 133 22 125 q 31 152 25 141 q 186 239 57 212 q 303 293 272 258 q 323 332 323 313 q 321 345 323 338 q 271 412 313 371 q 241 439 258 425 q 212 462 224 453 q 186 483 200 471 q 162 505 172 495 q 136 529 152 514 q 104 555 119 543 q 45 612 62 591 q 18 662 28 633 q 10 705 10 682 q 18 755 10 728 q 36 803 26 785 q 67 841 47 821 q 210 931 123 895 q 388 974 296 967 q 421 975 406 975 q 450 974 437 975 q 510 964 478 972 q 587 923 561 951 q 614 871 614 898 q 578 806 614 839 q 537 775 559 788 q 476 745 515 762 q 428 721 444 730 q 399 698 412 711 q 383 664 383 681 q 384 656 383 660 q 423 595 388 627 q 541 515 458 564 q 582 489 568 500 q 610 465 596 479 q 650 411 640 437 q 661 340 661 385 q 657 289 661 309 q 642 242 653 268 q 611 184 629 210 q 562 130 592 159 q 267 -1 443 11 q 245 -3 252 -3 q 234 -3 239 -3 l 226 -3 q 205 -2 218 -3 m 146 801 q 258 871 201 848 q 290 900 290 883 q 282 913 290 907 q 268 920 275 920 q 198 892 248 920 q 116 833 149 864 q 100 814 102 820 q 98 806 98 809 q 104 793 98 800 q 118 785 110 785 q 146 801 130 785 m 98 692 q 107 711 107 702 q 106 715 107 713 q 96 732 104 728 q 81 737 87 737 q 68 734 75 737 q 58 723 60 730 q 56 711 56 716 q 57 703 56 707 q 70 686 62 688 q 80 684 77 684 q 98 692 90 684 z "},"t":{"ha":755,"x_min":-54,"x_max":795,"o":"m 341 6 q 298 18 321 8 q 261 41 275 28 q 203 139 220 77 q 198 161 199 150 q 195 197 196 172 q 194 274 195 222 q 193 347 193 320 q 194 387 193 372 q 196 414 195 402 q 202 459 201 443 q 206 504 204 476 q 211 539 208 519 q 218 576 214 559 q 227 640 227 614 q 223 668 227 656 q 211 691 220 679 q 191 709 201 703 q 112 730 165 723 q 18 751 52 738 q -35 789 -16 765 q -54 842 -54 814 q -47 878 -54 860 q 2 926 -35 904 q 83 956 38 947 q 119 960 95 958 q 195 962 144 961 q 340 964 247 962 q 471 965 416 964 q 532 966 525 966 q 549 967 539 967 q 590 965 566 967 q 666 956 628 962 q 725 942 705 949 q 795 842 795 913 l 795 836 q 744 747 794 780 q 704 727 726 734 q 644 715 682 720 q 562 695 587 708 q 525 656 536 683 q 510 541 510 617 q 522 380 510 475 q 529 309 527 340 q 531 235 531 277 l 531 229 q 472 48 531 102 q 433 22 457 33 q 386 7 408 10 q 363 5 372 5 q 341 6 354 5 m 123 878 q 154 881 132 880 q 201 882 176 882 q 249 883 235 882 q 268 887 264 884 q 273 899 272 891 l 273 903 q 273 908 273 906 q 267 916 271 911 q 259 922 263 920 q 248 925 256 924 q 222 927 239 926 q 198 928 210 928 q 146 926 173 928 q 88 916 104 922 q 77 906 81 913 q 72 893 72 899 q 74 887 72 891 q 81 880 77 884 q 88 874 85 875 q 93 873 91 873 q 98 873 95 873 q 109 876 102 874 q 123 878 117 877 m 26 834 q 38 845 33 838 q 43 859 43 852 q 41 865 43 861 q 35 873 39 869 q 27 879 30 878 q 22 880 24 880 q 15 880 19 880 q -8 866 -5 876 q -12 853 -12 857 q 0 836 -12 844 q 10 831 7 831 q 14 831 13 831 q 26 834 18 831 z "},"u":{"ha":948,"x_min":18,"x_max":905,"o":"m 359 -1 q 304 6 336 1 q 259 16 272 12 q 113 127 167 47 q 39 304 64 203 q 18 498 18 392 q 19 530 18 514 q 51 760 22 655 q 79 834 64 806 q 119 887 94 863 q 210 938 161 930 q 229 939 220 939 q 331 898 284 939 q 395 766 382 850 q 400 680 400 741 q 395 522 400 618 q 393 431 393 467 q 393 401 393 414 q 403 339 395 362 q 414 313 408 323 q 430 294 420 303 q 471 275 451 275 q 490 279 481 275 q 517 307 504 286 q 534 352 530 328 q 537 404 536 359 q 541 509 539 448 q 543 614 541 570 q 545 665 544 658 q 547 686 545 671 q 549 707 547 696 q 560 782 552 740 q 576 847 568 824 q 724 975 619 973 l 726 975 q 839 924 792 975 q 899 764 882 878 q 903 695 901 741 q 905 603 905 648 q 903 536 905 557 q 900 504 902 523 q 896 470 897 486 q 757 117 865 241 q 716 81 741 100 q 671 52 692 63 q 501 7 604 20 q 433 -1 458 1 q 398 -3 408 -3 q 385 -3 389 -3 q 359 -1 372 -3 m 126 624 q 131 630 129 627 q 133 638 132 633 q 133 652 133 643 q 136 682 133 661 q 143 728 139 704 q 146 745 145 738 q 152 778 150 766 q 154 794 154 790 q 155 800 155 798 q 154 804 155 802 q 151 808 153 806 l 149 810 q 135 817 142 817 q 120 810 128 817 q 114 803 117 807 q 110 791 112 800 q 104 767 107 783 q 97 724 101 751 q 89 651 89 675 q 92 630 89 636 q 102 619 96 620 q 111 618 109 618 q 126 624 119 618 m 119 503 q 133 530 133 513 q 123 549 133 539 q 104 558 113 558 q 89 556 94 558 q 81 547 84 553 q 77 530 77 538 q 86 509 77 519 q 106 499 96 499 q 119 503 112 499 z "},"v":{"ha":893,"x_min":7,"x_max":882,"o":"m 384 13 q 314 43 348 22 q 297 53 305 49 q 287 56 290 56 q 264 68 280 56 q 233 94 248 79 q 201 137 219 110 q 171 189 183 165 q 165 201 168 195 q 143 248 154 224 q 92 367 113 308 q 43 528 71 426 q 18 632 26 587 q 7 742 11 677 l 7 749 q 60 903 7 840 q 109 939 79 922 q 166 961 138 955 q 199 964 180 964 q 215 963 207 964 q 260 956 243 961 q 355 861 324 931 q 379 760 372 824 q 387 570 386 696 q 389 459 388 497 q 394 407 391 422 q 405 385 397 391 q 414 379 409 379 l 416 379 q 426 387 422 380 q 439 427 431 397 q 453 487 447 456 q 461 527 456 502 q 472 576 467 552 q 478 600 475 586 q 484 623 481 613 q 513 732 496 677 q 540 810 530 787 q 582 890 566 867 q 623 929 598 913 q 679 952 646 944 q 739 960 712 960 q 752 960 746 960 q 873 895 848 954 q 879 881 878 887 q 881 862 881 874 q 882 825 882 850 q 871 716 882 770 q 833 585 860 663 q 807 509 824 557 q 774 413 791 460 q 740 311 752 347 q 720 256 728 276 q 701 218 711 237 q 674 166 686 186 q 642 120 661 146 q 565 45 599 65 q 526 28 549 37 q 483 17 503 20 q 466 14 474 16 q 453 11 457 12 q 427 9 443 9 l 419 9 q 384 13 397 9 m 132 568 q 138 580 137 574 q 139 588 139 586 q 136 597 139 594 q 124 632 131 603 q 111 694 117 661 q 104 745 105 728 q 90 778 104 772 q 83 780 85 780 l 81 780 q 72 777 78 780 q 60 766 61 773 q 58 753 58 759 q 61 722 58 742 q 73 653 66 688 q 87 597 80 619 q 117 562 100 562 q 132 568 124 562 m 161 468 q 167 475 165 472 q 169 483 169 479 l 169 486 q 159 511 169 500 q 140 521 150 521 l 136 521 q 117 506 117 515 q 116 495 116 496 q 132 465 116 477 q 145 461 139 461 q 161 468 153 461 z "},"w":{"ha":1194,"x_min":8,"x_max":1178,"o":"m 330 16 q 278 33 300 22 q 235 62 256 43 q 84 378 142 139 q 72 425 77 405 q 66 448 67 445 q 57 481 63 456 q 43 535 50 507 q 33 581 36 564 q 22 641 27 609 q 9 734 18 673 q 8 762 8 749 q 21 841 8 802 q 81 918 39 891 q 170 945 122 945 l 180 945 q 226 937 208 944 q 262 911 244 929 q 309 829 294 881 q 325 758 319 795 q 336 654 330 722 q 366 496 347 528 q 378 486 372 486 q 407 551 395 486 q 411 593 409 563 q 414 657 413 623 q 415 667 414 663 q 417 724 416 699 q 418 757 418 749 q 537 931 425 905 q 590 937 566 937 q 696 880 663 937 q 713 836 707 861 q 723 767 719 812 q 733 643 728 723 q 741 562 737 589 q 751 514 744 535 q 763 484 756 496 q 775 472 770 472 q 784 478 778 472 q 793 490 789 484 q 815 666 808 524 q 854 872 821 819 q 972 952 890 929 q 1020 960 996 958 q 1055 961 1044 961 q 1086 959 1073 961 q 1117 950 1105 956 q 1139 932 1128 944 q 1177 823 1175 899 q 1178 803 1178 813 q 1173 744 1178 776 q 1140 605 1165 701 q 1095 423 1114 505 q 1070 315 1075 340 q 1052 230 1065 277 q 1027 155 1039 183 q 853 26 968 26 l 848 26 q 686 140 744 31 q 648 254 663 180 q 631 325 640 288 q 613 383 621 361 q 598 409 608 397 q 581 421 588 421 q 565 412 575 421 q 549 391 555 402 q 536 282 541 375 q 529 170 534 219 q 518 101 524 120 q 503 69 513 85 q 486 43 494 52 q 431 16 462 22 q 381 11 401 11 q 330 16 357 11 m 112 599 q 115 605 115 602 q 116 610 116 608 q 115 620 116 614 q 110 647 114 629 q 96 767 97 705 q 95 789 96 782 q 93 801 94 797 q 90 806 92 804 q 75 812 83 812 l 74 812 q 58 805 66 812 q 53 799 55 802 q 51 788 52 795 q 51 765 51 781 q 58 679 52 724 q 73 609 65 633 q 87 593 80 595 q 97 591 94 591 q 112 599 105 591 m 134 493 q 142 512 142 502 l 142 516 q 132 536 140 529 q 116 543 124 543 q 106 541 111 543 q 92 519 92 534 q 92 513 92 516 q 110 488 95 495 q 119 486 115 486 l 121 486 q 134 493 127 488 z "},"x":{"ha":909,"x_min":18,"x_max":907,"o":"m 711 18 q 674 29 696 20 q 639 46 652 38 q 601 80 621 58 q 570 120 581 101 q 550 162 557 141 q 530 230 542 183 q 519 274 524 254 q 511 302 513 295 q 494 339 504 321 q 478 363 485 357 q 472 367 473 367 q 471 367 471 367 q 466 364 469 367 q 421 265 450 347 q 375 152 397 192 q 326 92 353 113 q 269 60 300 70 q 193 50 239 51 q 163 49 174 49 q 146 50 153 49 q 127 56 138 52 q 40 130 65 75 q 32 151 34 142 q 29 178 30 161 q 28 192 28 185 q 41 253 28 223 q 104 350 57 289 q 189 520 189 460 q 178 556 189 541 q 106 648 163 583 q 24 769 33 732 q 18 801 18 787 q 18 821 18 815 q 20 845 18 836 q 108 925 37 891 q 152 941 132 937 q 196 945 172 945 l 205 945 q 349 888 291 945 q 381 853 369 870 q 403 813 393 836 q 412 792 408 801 q 418 768 415 783 q 427 726 421 753 q 446 655 441 655 q 449 664 447 655 q 454 686 452 673 q 474 758 461 719 q 498 822 486 797 q 524 867 511 848 q 555 902 536 885 q 650 951 597 940 q 696 956 673 956 q 797 931 750 956 q 879 833 863 897 q 882 806 882 820 q 810 644 882 736 q 805 638 807 642 q 758 576 772 596 q 739 546 743 557 q 732 519 734 535 q 727 480 727 499 q 758 384 727 429 q 810 308 783 347 q 853 248 838 268 q 906 124 903 184 q 907 115 907 119 q 882 57 907 81 q 760 16 844 18 l 730 16 q 711 18 716 16 m 203 668 q 210 677 210 673 l 210 681 q 203 700 210 688 q 176 739 195 713 q 148 775 161 759 q 131 796 136 791 q 113 807 122 807 q 100 800 106 807 q 93 786 93 794 l 93 783 q 106 758 94 774 q 134 718 119 739 q 162 682 150 697 q 178 665 174 667 q 189 661 184 661 q 203 668 197 661 m 266 584 q 273 600 273 591 q 265 618 273 608 q 255 630 259 627 q 243 633 251 633 q 220 610 223 633 q 219 604 219 607 q 234 581 219 586 q 250 577 243 577 q 266 584 259 577 z "},"y":{"ha":831,"x_min":-18,"x_max":854,"o":"m 329 8 q 296 23 315 12 q 265 46 277 34 q 218 195 218 93 q 222 258 218 224 q 229 311 227 293 q 232 338 231 329 q 235 357 233 348 q 245 434 239 382 q 249 452 247 442 q 252 467 250 461 q 253 479 253 473 q 187 568 253 522 q 173 578 181 572 q 153 591 161 586 q 80 652 117 617 q 24 713 43 687 q -18 827 -18 771 l -18 836 q -15 862 -17 853 q -7 884 -13 871 q 79 952 18 937 q 121 958 99 958 q 166 952 142 958 q 306 873 241 939 q 336 840 323 857 q 366 798 349 824 q 401 749 389 763 q 420 736 413 736 q 505 816 445 736 q 583 905 550 873 q 652 954 616 936 q 674 963 666 960 q 698 966 683 966 l 707 966 q 722 965 715 966 q 748 958 731 963 q 771 949 760 954 q 789 941 783 945 q 837 889 821 923 q 854 829 854 855 q 852 812 854 820 q 770 670 839 762 q 738 633 762 659 q 682 576 713 606 q 607 497 628 522 q 578 452 586 472 q 563 398 566 427 q 561 336 561 369 q 562 275 561 309 q 563 237 563 254 q 562 199 563 215 q 550 143 559 172 q 421 13 520 38 q 382 6 399 7 q 358 5 365 5 q 329 8 341 5 m 62 785 q 71 795 66 787 q 75 809 75 803 q 84 831 75 817 q 104 856 93 845 q 132 872 117 867 q 158 896 158 880 q 156 905 158 901 q 135 918 151 918 q 100 908 121 918 q 54 867 75 895 q 31 813 33 840 q 30 805 30 808 q 31 800 30 802 q 36 791 32 795 q 53 784 44 784 q 62 785 57 784 m 112 716 q 118 724 117 722 q 119 730 119 727 q 119 735 119 732 q 98 757 116 754 q 94 758 96 758 q 89 757 91 758 q 81 751 85 755 q 72 732 72 741 q 79 715 72 724 q 94 708 86 708 q 112 716 103 708 z "},"z":{"ha":832,"x_min":-7,"x_max":850,"o":"m 256 -4 q 115 31 161 2 q 52 142 52 68 q 56 180 52 160 q 68 230 61 208 q 92 283 76 252 q 167 406 120 342 q 262 515 214 469 q 353 641 337 587 q 355 663 355 653 q 286 711 355 711 q 258 710 277 711 q 220 705 239 708 q 147 701 180 701 q 75 709 104 701 q -5 793 7 732 q -7 809 -7 802 q 40 896 -7 854 q 189 962 95 943 q 313 975 250 972 q 411 978 376 978 q 473 976 446 978 q 635 952 576 966 q 728 915 694 939 q 772 863 762 894 q 779 831 779 849 q 689 638 779 764 q 632 562 668 608 q 572 490 596 517 q 459 339 485 393 q 442 283 442 304 q 444 273 442 278 q 451 257 446 263 q 469 245 456 250 q 518 236 487 236 l 523 236 q 627 248 558 237 q 711 260 690 259 q 739 261 731 261 q 782 256 763 261 q 848 205 836 242 q 850 188 850 197 q 759 80 850 128 q 506 14 700 47 q 302 -5 390 -5 q 256 -4 278 -5 m 155 856 q 196 870 171 863 q 239 880 220 877 q 260 882 247 881 q 284 883 273 883 q 302 883 296 883 q 312 885 309 884 q 317 889 315 886 q 323 903 323 895 l 323 905 q 314 921 322 913 l 304 928 l 267 927 q 202 918 229 926 q 149 902 173 911 q 119 886 125 892 q 113 871 113 879 q 114 863 113 867 q 132 849 119 849 q 142 851 136 849 q 155 856 149 853 m 81 785 q 96 811 96 795 q 87 827 96 819 q 71 835 79 835 q 53 827 60 835 q 45 808 45 819 q 54 787 45 792 q 68 782 62 782 q 81 785 74 782 z "},"{":{"ha":912,"x_min":68,"x_max":844,"o":"m 589 -218 q 528 -208 563 -215 q 475 -196 492 -201 q 357 -70 401 -171 q 299 192 311 33 q 282 290 294 261 q 239 329 269 319 q 225 334 233 332 q 203 338 217 336 q 166 344 190 340 q 75 421 95 351 q 70 445 71 434 q 68 476 68 456 q 68 498 68 490 q 70 511 68 506 q 75 524 72 517 q 211 608 100 575 q 279 631 258 621 q 304 656 300 642 q 308 692 308 671 q 307 707 308 699 q 299 801 304 760 q 294 880 294 841 q 294 912 294 896 q 332 1045 298 966 q 418 1148 367 1124 q 529 1179 457 1166 q 663 1192 602 1192 q 777 1155 745 1192 q 805 1099 801 1132 q 806 1084 806 1091 q 720 966 806 1013 q 642 918 665 939 q 615 876 618 897 q 611 832 611 855 q 612 807 611 821 q 612 758 612 786 q 611 717 612 729 q 606 692 610 705 q 575 632 596 658 q 515 580 555 607 q 455 528 460 541 q 451 512 451 515 q 483 484 451 495 q 635 330 597 441 q 650 268 645 300 q 656 186 654 237 q 673 71 660 94 q 683 57 677 62 q 702 51 689 52 q 741 50 714 50 q 774 50 764 50 q 790 47 785 50 q 804 41 796 45 q 844 -49 844 23 q 736 -205 844 -163 q 677 -217 708 -215 q 627 -220 647 -220 q 589 -218 608 -220 m 419 907 q 424 918 422 910 q 427 939 426 925 q 440 1003 429 971 q 468 1055 452 1035 q 474 1065 471 1060 q 476 1074 476 1071 q 469 1088 476 1082 q 454 1095 463 1095 q 409 1044 431 1091 q 382 941 387 997 q 381 922 381 928 q 382 913 381 916 q 387 907 384 910 q 404 900 395 900 q 419 907 414 900 m 417 814 q 423 833 423 823 l 423 835 q 416 854 423 846 q 399 861 408 861 q 382 853 389 861 q 375 833 375 844 q 382 814 375 823 q 400 807 390 807 q 417 814 410 807 z "},"|":{"ha":476,"x_min":68,"x_max":408,"o":"m 253 -146 q 243 -146 248 -146 q 228 -145 236 -146 q 201 -136 213 -142 q 171 -113 189 -130 q 139 -79 153 -96 q 107 -21 123 -58 q 83 47 91 16 q 69 210 69 112 q 73 315 69 258 q 77 423 77 390 q 76 446 77 441 q 73 491 75 453 q 69 575 71 530 q 68 647 68 620 q 115 966 69 856 q 193 1080 140 1032 q 213 1096 204 1090 q 236 1108 222 1101 q 259 1117 252 1115 q 273 1118 266 1118 l 278 1118 q 390 1019 357 1112 q 407 924 406 970 q 408 869 408 879 q 399 646 408 788 q 386 243 386 458 l 386 201 q 379 62 386 116 q 355 -35 372 7 q 253 -146 313 -131 m 174 751 q 176 768 175 754 q 178 800 178 782 q 184 882 178 861 q 184 888 184 886 q 182 899 184 894 q 170 909 178 905 q 161 910 165 910 q 138 878 143 910 q 134 838 136 865 q 133 786 133 811 q 134 755 133 762 q 146 740 139 741 q 155 739 154 739 q 174 751 168 739 m 175 652 q 176 661 176 657 q 168 680 176 671 q 152 687 161 687 q 142 685 147 687 q 130 672 134 681 q 127 657 127 663 q 129 648 127 652 q 150 633 136 633 l 153 633 q 175 652 169 635 z "},"}":{"ha":912,"x_min":68,"x_max":844,"o":"m 323 1191 q 385 1181 349 1187 q 437 1168 420 1174 q 555 1042 511 1143 q 613 781 601 940 q 630 682 618 711 q 673 644 643 653 q 687 639 680 641 q 709 634 695 637 q 746 629 722 632 q 837 551 817 622 q 843 527 841 538 q 844 496 844 516 q 844 474 844 482 q 842 461 844 467 q 837 449 840 456 q 701 365 812 397 q 633 341 654 351 q 609 316 612 331 q 605 280 605 302 q 605 265 605 273 q 613 172 608 212 q 618 92 618 132 q 618 60 618 76 q 580 -73 614 6 q 494 -176 545 -152 q 383 -207 455 -194 q 249 -220 311 -220 q 135 -182 168 -220 q 107 -127 111 -159 q 106 -112 106 -119 q 192 6 106 -40 q 270 55 247 34 q 297 97 294 76 q 301 140 301 117 q 300 165 301 152 q 300 214 300 186 q 301 256 300 243 q 306 280 302 268 q 337 340 316 315 q 397 393 357 366 q 457 445 452 432 q 461 460 461 457 q 429 488 461 477 q 277 642 315 532 q 262 704 267 673 q 256 786 258 736 q 239 901 252 879 q 229 916 235 911 q 211 921 223 920 q 172 922 198 922 q 138 923 149 922 q 122 925 127 923 q 109 931 116 927 q 68 1021 68 949 q 176 1178 68 1136 q 235 1190 204 1187 q 286 1192 266 1192 q 323 1191 305 1192 m 493 66 q 488 55 490 62 q 486 34 486 47 q 472 -31 483 1 q 444 -83 460 -62 q 438 -93 441 -87 q 436 -102 436 -98 q 443 -116 436 -109 q 458 -122 450 -122 q 504 -72 481 -119 q 530 32 526 -24 q 531 50 531 45 q 530 59 531 56 q 525 65 528 62 q 508 73 517 73 q 493 66 498 73 m 495 158 q 489 140 489 150 l 489 138 q 496 119 489 126 q 513 112 504 112 q 530 119 523 112 q 537 139 537 128 q 530 159 537 150 q 512 165 522 165 q 495 158 502 165 z "},"¢":{"ha":951,"x_min":68,"x_max":883,"o":"m 460 -111 q 438 -101 448 -107 q 419 -85 429 -96 q 401 -61 408 -75 q 389 -23 395 -47 q 376 45 383 1 q 361 94 372 73 q 326 138 349 115 q 267 187 300 164 q 134 297 182 241 q 71 459 85 353 q 68 511 68 485 q 85 626 68 569 q 168 766 109 708 q 211 800 187 784 q 272 833 235 815 q 305 850 290 842 q 324 861 319 858 q 335 874 332 867 q 341 898 339 882 q 344 945 342 914 q 348 1015 346 991 q 355 1049 351 1038 q 369 1068 360 1060 q 399 1084 381 1080 q 457 1088 418 1088 q 498 1086 484 1088 q 524 1081 512 1085 q 588 1048 565 1071 q 631 976 612 1025 q 647 944 640 954 q 661 934 653 935 q 675 933 669 933 q 703 935 686 933 q 736 937 724 937 q 760 935 748 937 q 851 872 826 923 q 856 859 854 865 q 859 845 858 853 q 859 823 859 838 q 848 762 859 785 q 810 724 837 739 q 777 707 793 713 q 732 696 760 701 q 658 685 705 691 q 554 668 589 676 q 487 644 518 659 q 444 612 465 633 q 412 571 422 591 q 407 559 409 564 q 405 548 405 553 q 405 538 405 543 l 405 526 q 558 347 407 391 q 758 305 600 336 q 822 289 802 296 q 855 270 842 282 q 877 242 871 256 q 883 203 883 227 q 854 119 883 146 q 827 103 843 108 q 779 96 812 98 q 720 88 739 93 q 692 75 701 83 q 688 70 689 73 q 687 62 687 67 q 688 45 687 56 q 688 33 688 39 q 686 0 688 16 q 675 -38 682 -23 q 570 -110 647 -93 q 526 -115 545 -115 q 501 -115 506 -115 q 460 -111 474 -115 m 191 577 q 198 587 193 578 q 209 607 203 595 q 330 744 260 709 q 361 774 361 758 q 355 787 361 781 q 340 795 350 795 q 309 785 328 795 q 171 631 227 740 q 159 594 159 607 q 164 581 159 585 q 174 576 169 577 q 180 576 178 576 q 191 577 186 576 m 179 463 q 191 490 191 474 q 177 514 191 505 q 161 519 168 519 q 138 498 146 519 q 137 487 137 492 q 147 463 137 472 q 162 457 154 457 q 179 463 170 457 z "},"£":{"ha":1154,"x_min":68,"x_max":1086,"o":"m 265 7 q 160 77 186 26 q 144 130 149 100 q 140 177 140 159 q 142 201 140 190 q 271 349 159 281 q 303 376 303 368 q 302 379 303 378 q 282 380 300 380 q 236 382 263 381 q 141 388 174 382 q 90 412 109 395 q 68 449 68 432 q 68 467 68 465 q 90 524 68 497 q 115 543 100 535 q 158 559 131 551 q 182 567 171 563 q 199 573 194 570 q 207 578 205 576 q 209 587 209 581 q 204 603 208 591 q 193 628 199 614 q 175 673 178 657 q 172 708 172 688 l 172 722 q 178 770 173 749 q 197 816 184 791 q 368 943 235 903 q 429 959 404 954 q 493 966 454 964 q 537 968 515 968 q 875 887 711 968 q 1019 742 1005 821 q 1019 728 1019 735 q 1002 664 1019 696 q 945 610 980 625 q 931 606 937 607 q 917 604 924 604 q 903 604 910 604 l 888 604 q 834 607 856 604 q 785 621 813 611 q 738 645 763 629 q 676 690 713 661 q 607 737 627 729 q 576 745 587 745 q 551 738 562 745 q 506 662 506 712 q 508 640 506 652 q 520 607 511 624 q 538 581 528 591 l 550 569 l 631 569 q 684 569 665 569 q 714 567 703 568 q 734 564 725 566 q 833 494 808 547 q 842 461 842 477 q 758 382 842 412 q 733 377 747 378 q 690 374 720 376 q 656 373 667 374 q 637 370 644 372 q 622 363 631 368 q 558 318 584 345 q 526 264 532 292 q 526 259 526 262 q 529 250 526 253 q 549 242 534 245 q 574 240 557 240 q 667 247 606 240 q 867 258 783 258 q 1033 235 983 258 q 1086 153 1086 205 q 1069 88 1086 124 q 978 19 1042 37 q 924 15 959 15 q 810 21 880 15 q 751 25 772 24 q 712 26 730 26 q 672 25 694 26 q 608 23 641 24 q 557 19 576 21 q 532 17 546 18 q 471 10 499 14 q 402 6 439 7 q 340 5 366 5 l 315 5 q 265 7 277 5 m 286 747 q 334 808 298 777 q 408 852 370 839 q 428 861 422 856 q 437 874 435 866 l 437 877 q 436 882 437 880 q 430 890 435 886 q 418 899 423 899 q 412 899 414 899 q 389 893 405 899 q 324 858 357 882 q 269 806 291 833 q 245 768 248 779 q 241 753 241 758 q 247 739 241 745 q 264 730 254 730 q 269 730 266 730 q 286 747 281 733 m 269 633 q 282 647 281 640 q 283 657 283 654 q 278 673 283 665 q 258 683 272 683 q 248 681 252 683 q 240 674 244 680 q 233 656 233 665 q 241 638 233 647 q 257 630 248 630 q 269 633 262 630 z "},"¥":{"ha":956,"x_min":68,"x_max":888,"o":"m 463 5 q 387 47 418 17 q 332 156 346 87 q 323 188 328 178 q 309 202 318 197 q 280 209 301 206 q 235 211 259 211 l 232 211 q 124 241 147 211 q 106 275 110 258 q 102 300 102 292 q 105 320 102 311 q 126 345 111 333 q 162 363 142 357 q 185 366 168 364 q 224 370 202 368 q 355 411 355 378 q 352 420 355 418 q 342 423 349 423 l 338 423 q 307 420 328 423 q 231 415 256 415 q 197 414 205 414 q 158 417 172 414 q 72 514 79 439 q 71 523 71 519 q 93 572 71 549 q 137 599 109 589 q 223 618 165 609 q 261 625 248 623 q 279 631 274 628 q 284 638 283 634 q 250 682 284 655 q 233 693 241 688 q 211 706 225 699 q 169 730 197 714 q 118 761 134 747 q 90 796 102 774 q 68 867 68 834 q 86 922 68 897 q 184 968 112 958 q 222 971 203 971 q 329 947 278 971 q 441 790 406 911 q 456 748 450 762 q 470 732 463 735 q 479 729 475 729 q 507 743 492 729 q 528 767 518 751 q 554 821 538 784 q 598 903 576 873 q 649 947 621 932 q 718 967 685 964 q 761 969 750 969 q 838 959 802 969 q 866 941 852 954 q 884 914 880 928 q 888 887 888 902 q 884 851 888 871 q 773 656 866 787 q 752 627 758 637 q 744 612 745 616 q 743 605 743 608 l 743 602 q 743 598 743 600 q 747 595 744 596 q 756 594 750 594 q 774 592 763 593 q 801 590 787 591 q 821 586 814 588 q 871 555 861 575 q 882 522 882 535 q 872 490 882 507 q 833 459 861 471 q 750 437 806 447 q 698 426 716 431 q 669 412 680 420 q 660 402 660 406 q 713 390 660 392 q 838 346 801 386 q 861 301 861 321 q 848 271 861 285 q 819 253 838 262 q 760 234 800 245 q 672 195 683 212 q 661 140 661 181 q 646 71 661 98 q 609 31 635 50 q 553 5 583 13 q 508 1 535 1 q 463 5 481 1 m 238 777 q 245 793 245 785 q 243 802 245 798 q 234 811 242 804 q 212 827 225 818 q 177 854 189 842 q 163 878 166 866 q 140 899 157 899 q 125 892 131 899 q 119 874 119 885 q 190 787 119 837 q 217 772 210 773 q 225 770 223 770 q 238 777 233 770 m 307 726 q 313 741 313 732 l 313 743 q 304 762 312 753 q 288 770 296 770 q 273 762 281 770 q 264 747 264 753 q 280 720 264 729 q 290 718 285 718 q 307 726 298 718 z "},"©":{"ha":1420,"x_min":68,"x_max":1352,"o":"m 688 14 q 366 100 514 25 q 69 477 98 238 q 68 508 68 493 q 125 703 68 611 q 179 771 146 736 q 243 829 212 806 q 538 949 370 920 q 641 960 600 960 q 691 960 682 960 q 804 953 752 960 q 1280 685 1126 899 q 1352 466 1352 578 q 1341 375 1352 421 q 998 54 1275 152 q 788 14 899 20 q 755 13 764 13 q 739 12 745 12 l 726 12 q 688 14 713 13 m 672 260 q 615 278 646 267 q 566 301 585 290 q 459 449 481 355 q 456 486 456 467 q 503 614 456 551 q 559 670 529 650 q 641 704 589 690 q 767 722 705 722 q 813 718 785 722 q 861 708 842 713 q 908 673 903 694 q 913 645 913 652 q 888 587 913 616 q 847 562 874 570 q 766 552 821 555 q 719 546 736 551 q 692 533 702 542 q 674 496 674 519 q 679 474 674 484 q 694 452 683 464 q 724 432 704 440 q 785 417 745 425 q 836 405 818 412 q 864 385 853 397 q 881 345 881 366 q 852 286 881 316 q 808 260 833 267 q 747 254 784 254 l 741 254 q 703 255 718 254 q 672 260 688 256 m 587 571 q 621 601 603 588 q 665 628 639 614 q 683 638 675 633 q 693 646 691 644 q 696 657 696 651 q 694 668 696 663 q 675 680 688 680 q 656 673 671 680 q 625 657 642 667 q 597 640 608 648 q 562 611 578 627 q 541 587 545 595 q 536 572 536 579 q 539 562 536 567 q 558 551 545 551 q 570 554 564 551 q 587 571 575 558 m 530 471 q 544 485 542 477 q 545 494 545 492 q 541 510 545 503 q 522 520 534 520 q 499 508 503 518 q 494 492 494 497 q 503 474 494 482 q 514 468 510 468 q 519 467 518 467 q 530 471 524 467 m 229 667 q 241 692 241 680 q 235 708 241 701 q 228 713 231 712 q 222 713 225 713 q 214 713 219 713 q 202 710 207 712 q 194 704 197 708 q 187 686 187 696 q 193 667 187 676 q 211 660 200 660 q 229 667 222 660 m 309 760 q 332 782 320 771 q 351 797 344 792 q 388 821 367 809 q 418 836 410 833 q 432 845 426 838 q 437 859 437 852 q 435 866 437 862 q 430 873 433 870 q 423 879 426 878 q 417 880 420 880 q 410 879 414 880 q 372 863 397 877 q 321 831 347 850 q 293 807 309 822 q 264 778 277 791 q 251 760 252 765 q 250 755 250 758 q 257 739 250 746 q 274 732 264 732 l 277 732 q 289 741 280 733 q 309 760 298 749 m 798 186 q 1019 274 929 205 q 1131 440 1108 342 q 1134 476 1134 455 q 1133 494 1134 485 q 1078 636 1131 570 q 902 758 1002 728 q 724 787 802 787 q 605 775 666 787 q 398 672 483 749 q 317 551 323 602 q 311 486 311 500 q 356 347 311 414 q 395 302 370 327 q 444 262 420 278 q 648 187 533 203 q 723 183 678 183 q 798 186 768 183 z "},"«":{"ha":1244,"x_min":68,"x_max":1177,"o":"m 434 103 q 218 211 328 125 q 162 264 193 232 q 116 319 132 296 q 68 466 68 391 q 80 541 68 503 q 216 730 102 618 q 295 803 262 777 q 360 844 328 829 q 463 871 418 871 q 549 840 513 871 q 576 777 576 813 q 541 682 576 736 q 523 656 534 671 q 501 629 511 642 q 464 585 477 602 q 444 557 450 568 q 431 536 437 547 q 416 484 416 508 q 428 446 416 464 q 448 423 431 440 q 486 385 464 406 q 533 340 508 365 q 576 296 559 315 q 609 259 599 272 q 625 233 619 246 q 639 185 639 207 q 549 109 639 130 q 502 101 523 102 q 473 100 481 100 q 434 103 452 100 m 233 606 q 243 617 236 609 q 259 636 251 626 q 283 662 268 646 q 314 691 299 677 q 344 718 333 708 q 359 733 355 728 q 366 741 364 739 q 367 747 367 744 q 359 765 367 760 q 345 770 351 770 q 335 768 340 770 q 301 740 325 762 q 251 693 277 718 q 212 649 226 667 q 198 621 198 633 q 205 606 198 612 q 220 600 212 600 q 233 606 226 600 m 175 511 q 190 528 188 519 q 192 540 192 536 q 186 556 192 549 q 167 565 176 565 q 163 564 165 565 q 144 547 151 562 q 140 532 140 539 q 146 515 140 522 q 162 507 153 507 q 175 511 168 507 m 972 103 q 755 211 865 125 q 700 264 730 232 q 654 319 669 296 q 606 466 606 391 q 618 541 606 503 q 754 730 640 618 q 833 803 800 777 q 898 844 866 829 q 1001 871 956 871 q 1086 840 1050 871 q 1114 777 1114 813 q 1079 682 1114 736 q 1060 656 1072 671 q 1039 629 1049 642 q 1002 585 1015 602 q 981 557 988 568 q 969 536 975 547 q 954 484 954 508 q 966 446 954 464 q 985 423 969 440 q 1024 385 1002 406 q 1071 340 1046 365 q 1114 296 1097 315 q 1147 259 1137 272 q 1163 233 1157 246 q 1177 185 1177 207 q 1087 109 1177 130 q 1040 101 1061 102 q 1010 100 1019 100 q 972 103 989 100 m 770 606 q 781 617 774 609 q 797 636 789 626 q 821 662 806 646 q 852 691 837 677 q 882 718 871 708 q 897 733 892 728 q 903 741 902 739 q 905 747 905 744 q 897 765 905 760 q 883 770 889 770 q 873 768 878 770 q 839 740 863 762 q 789 693 814 718 q 749 649 764 667 q 736 621 736 633 q 743 606 736 612 q 758 600 750 600 q 770 606 764 600 m 713 511 q 728 528 726 519 q 730 540 730 536 q 724 556 730 549 q 705 565 714 565 q 701 564 703 565 q 682 547 688 562 q 678 532 678 539 q 684 515 678 522 q 700 507 691 507 q 713 511 706 507 z "},"®":{"ha":1420,"x_min":68,"x_max":1352,"o":"m 576 239 q 489 388 500 263 q 486 451 487 412 q 486 516 486 491 l 486 566 q 489 631 487 616 q 508 684 495 665 q 549 716 522 703 q 672 738 588 738 q 850 703 785 738 q 947 613 919 670 q 953 597 951 604 q 955 574 955 589 q 949 539 955 552 q 928 507 944 526 q 908 482 913 490 q 903 469 903 474 q 937 431 903 464 q 965 401 957 412 q 979 379 974 391 q 987 359 985 367 q 988 334 988 351 q 987 310 988 318 q 980 292 985 302 q 945 250 966 262 q 903 238 923 238 q 888 239 896 238 q 779 331 819 258 q 769 351 773 342 q 764 363 764 360 q 755 384 761 372 q 745 405 750 396 q 736 416 739 414 q 732 416 734 416 q 723 408 726 416 q 713 363 718 397 q 669 256 703 282 q 641 239 656 244 q 608 235 627 235 q 576 239 590 235 m 688 14 q 366 100 514 25 q 69 477 98 238 q 68 507 68 492 q 125 703 68 611 q 179 771 146 736 q 244 829 212 806 q 538 949 370 920 q 641 960 601 960 q 691 960 682 960 q 804 953 752 960 q 1281 685 1127 899 q 1352 467 1352 578 q 1341 375 1352 421 q 998 54 1275 152 q 788 14 899 20 q 755 13 764 13 q 739 12 746 12 l 726 12 q 688 14 713 13 m 229 667 q 241 692 241 680 q 235 708 241 701 q 229 713 231 712 q 222 713 226 713 q 215 713 220 713 q 202 710 207 712 q 194 704 197 708 q 188 691 188 696 q 188 684 188 686 q 193 667 188 675 q 211 660 200 660 q 229 667 222 660 m 309 760 q 332 782 321 771 q 351 797 344 792 q 389 821 367 809 q 418 836 410 833 q 432 845 426 838 q 438 859 438 852 q 436 866 438 862 q 431 873 433 870 q 423 879 426 878 q 417 880 420 880 q 410 879 414 880 q 372 863 398 877 q 322 831 347 850 q 293 807 309 822 q 265 778 277 791 q 251 760 253 765 q 250 755 250 758 q 257 739 250 746 q 275 732 264 732 l 277 732 q 289 741 280 733 q 309 760 298 749 m 798 186 q 1019 274 930 205 q 1131 440 1109 342 q 1134 480 1134 457 l 1134 494 q 1078 636 1131 570 q 902 758 1003 728 q 724 787 802 787 q 605 775 666 787 q 398 672 484 749 q 317 552 324 602 q 311 487 311 501 q 357 347 311 415 q 396 302 371 327 q 444 262 421 278 q 648 187 533 203 q 723 183 678 183 q 798 186 768 183 m 752 552 q 758 569 757 561 q 758 580 758 577 q 755 600 758 591 q 746 614 752 612 q 742 615 744 615 q 729 606 735 615 q 722 576 722 595 q 728 546 722 551 q 738 541 735 541 q 752 552 745 541 m 579 534 q 585 541 583 538 q 587 551 587 545 q 589 570 588 557 q 596 622 591 597 q 608 655 602 646 q 613 668 613 661 q 605 684 613 676 q 597 691 600 690 q 592 692 595 692 q 587 691 590 692 q 564 672 572 689 q 549 614 555 654 q 543 559 543 578 q 547 537 543 543 q 564 527 555 527 q 579 534 572 527 m 581 454 q 588 472 588 463 q 586 482 588 477 q 567 498 581 498 q 560 496 564 498 q 552 491 555 494 q 545 483 547 487 q 543 473 543 479 q 550 455 543 463 q 566 448 556 448 q 581 454 574 448 z "},"°":{"ha":573,"x_min":68,"x_max":505,"o":"m 267 526 q 142 587 193 538 q 69 727 83 644 q 68 762 68 743 q 69 798 68 782 q 130 923 82 872 q 248 986 177 973 q 281 988 262 988 q 314 986 299 988 q 492 830 444 960 q 505 751 505 790 q 481 648 505 699 q 332 530 434 553 q 317 528 326 528 q 296 526 309 527 l 267 526 m 154 829 q 222 909 174 872 q 239 923 235 918 q 242 930 242 927 q 241 935 242 932 q 231 943 237 943 q 214 936 224 943 q 131 846 157 896 q 127 830 127 836 q 134 817 127 821 q 140 816 137 816 q 154 829 148 816 m 124 759 q 130 767 129 763 q 131 773 131 771 q 130 779 131 777 q 124 785 127 783 q 115 786 121 786 q 100 771 100 785 q 105 758 100 761 q 114 755 111 755 q 124 759 119 755 m 306 696 q 334 715 323 701 q 343 747 343 730 q 342 757 343 752 q 321 798 339 780 q 281 816 300 816 q 245 799 262 816 q 233 776 234 786 q 233 763 233 766 q 239 732 233 747 q 295 694 262 694 q 306 696 300 694 z "},"»":{"ha":1244,"x_min":68,"x_max":1177,"o":"m 811 869 q 1027 761 918 847 q 1083 708 1053 740 q 1129 653 1114 675 q 1177 506 1177 581 q 1165 431 1177 469 q 1029 241 1143 353 q 950 169 983 195 q 885 127 917 142 q 781 100 827 100 q 696 132 732 100 q 669 195 669 159 q 704 290 669 236 q 723 315 711 300 q 744 342 734 330 q 781 387 768 370 q 802 414 795 404 q 814 435 808 425 q 828 488 828 464 q 817 526 828 509 q 798 549 814 532 q 759 587 781 566 q 712 632 737 607 q 669 675 686 657 q 636 713 646 700 q 620 739 626 726 q 606 787 606 765 q 696 863 606 842 q 743 870 722 869 q 772 871 764 871 q 811 869 793 871 m 1013 366 q 1002 354 1009 363 q 986 336 994 346 q 962 310 977 326 q 931 281 946 294 q 901 254 912 264 q 886 239 890 244 q 880 231 881 233 q 878 224 878 228 q 886 207 878 212 q 900 202 894 202 q 910 204 905 202 q 944 232 920 210 q 994 279 968 254 q 1034 323 1019 304 q 1047 351 1047 339 q 1040 366 1047 359 q 1025 372 1032 372 q 1013 366 1019 372 m 1070 461 q 1055 445 1057 453 q 1053 433 1053 436 q 1059 416 1053 423 q 1078 408 1069 408 q 1082 408 1080 408 q 1101 425 1095 410 q 1105 440 1105 433 q 1099 457 1105 450 q 1083 465 1092 465 q 1070 461 1077 465 m 273 869 q 490 761 380 847 q 545 708 515 740 q 591 653 576 675 q 639 506 639 581 q 627 431 639 469 q 491 241 605 353 q 412 169 445 195 q 347 127 379 142 q 243 100 290 100 q 159 132 194 100 q 131 195 131 159 q 166 290 131 236 q 185 315 174 300 q 206 342 196 330 q 243 387 230 370 q 264 414 257 404 q 276 435 271 425 q 290 488 290 464 q 279 526 290 509 q 260 549 276 532 q 221 587 243 566 q 174 632 199 607 q 132 675 149 657 q 98 713 109 700 q 82 739 88 726 q 68 787 68 765 q 158 863 68 842 q 205 870 184 869 q 235 871 226 871 q 273 869 256 871 m 475 366 q 464 354 471 363 q 448 336 456 346 q 424 310 439 326 q 393 281 408 294 q 363 254 374 264 q 348 239 353 244 q 342 231 343 233 q 340 224 340 228 q 348 207 340 212 q 362 202 356 202 q 372 204 367 202 q 407 232 382 210 q 456 279 431 254 q 496 323 481 304 q 509 351 509 339 q 502 366 509 359 q 488 372 494 372 q 475 366 481 372 m 532 461 q 517 445 519 453 q 515 433 515 436 q 522 416 515 423 q 541 408 531 408 q 545 408 543 408 q 564 425 557 410 q 567 440 567 433 q 561 457 567 450 q 545 465 554 465 q 532 461 539 465 z "},"×":{"ha":787,"x_min":68,"x_max":719,"o":"m 580 221 q 549 209 566 213 q 517 204 531 204 l 513 204 q 395 255 458 205 q 378 267 387 262 q 366 272 370 271 q 363 273 365 273 q 345 266 356 273 q 300 233 330 257 q 216 177 238 183 q 183 170 194 170 q 134 185 159 170 q 104 208 119 194 q 81 237 90 222 q 71 264 73 250 q 68 288 68 279 q 68 299 68 294 q 80 328 71 313 q 109 366 88 342 q 170 430 130 390 q 195 456 184 446 q 205 467 205 467 q 197 475 205 468 q 178 494 190 483 q 160 511 166 505 q 150 523 153 517 q 143 534 146 528 q 132 579 132 556 q 187 690 132 630 q 221 718 200 704 q 261 741 242 732 q 308 752 284 752 q 408 705 357 752 q 424 692 416 698 q 434 684 431 686 q 439 683 436 683 q 446 685 442 683 q 468 700 454 688 q 509 736 483 712 q 562 781 542 766 q 593 799 581 795 q 614 803 604 803 q 624 802 619 803 q 651 795 640 801 q 677 775 663 789 q 719 688 719 733 q 711 646 719 667 q 696 616 705 631 q 671 577 688 601 q 644 535 645 543 l 644 527 q 667 484 644 511 q 694 445 686 460 q 703 414 702 429 q 703 406 703 410 q 685 351 703 383 q 640 284 668 321 q 596 232 612 246 q 589 227 593 230 q 580 221 585 224 m 225 563 l 225 573 q 229 604 225 591 q 246 637 233 620 q 256 651 252 644 q 260 661 260 658 q 261 666 261 663 q 258 676 261 671 q 245 686 254 684 q 239 687 242 687 q 231 685 235 687 q 215 670 223 682 q 180 576 180 627 q 181 558 180 564 q 186 547 182 552 q 203 539 195 539 q 212 541 208 539 q 225 563 224 546 m 275 503 q 252 526 275 524 l 250 526 q 231 518 237 526 q 227 505 227 512 q 228 497 227 501 q 241 481 233 484 q 252 479 248 479 q 264 484 258 479 q 275 503 275 490 z "},"÷":{"ha":503,"x_min":68,"x_max":435,"o":"m 233 100 q 148 132 186 111 q 108 165 127 145 q 79 204 89 184 q 68 253 68 230 q 117 335 68 300 q 220 362 165 362 q 289 353 253 362 q 426 250 385 326 q 433 231 431 239 q 435 207 435 223 q 433 182 435 190 q 427 165 432 175 q 331 100 400 117 q 290 96 313 96 l 282 96 q 233 100 253 96 m 233 614 q 148 646 186 625 q 108 679 127 660 q 79 718 89 699 q 68 766 68 743 q 117 848 68 814 q 221 876 165 876 q 289 867 254 876 q 426 764 385 840 q 433 745 431 753 q 435 721 435 737 q 433 696 435 704 q 427 680 432 689 q 331 614 400 631 q 290 610 313 610 l 282 610 q 233 614 253 610 m 153 753 q 162 765 158 756 q 166 783 166 774 q 158 798 166 789 q 142 806 150 806 q 127 802 136 806 q 116 792 119 798 q 113 779 113 785 q 117 764 113 772 q 138 750 123 750 q 146 751 142 750 q 153 753 150 752 m 153 239 q 162 251 158 242 q 166 269 166 260 q 158 284 166 276 q 142 292 150 292 q 127 288 136 292 q 116 278 119 283 q 113 265 113 271 q 117 250 113 258 q 138 236 123 236 q 146 237 142 236 q 153 239 150 238 z "},"‘":{"ha":577,"x_min":68,"x_max":509,"o":"m 249 678 q 193 675 227 675 q 165 675 188 675 q 122 681 142 676 q 94 696 107 686 q 73 718 80 706 q 68 746 68 730 q 68 758 68 747 q 76 783 68 768 q 135 850 90 809 q 226 919 180 890 q 365 973 311 973 q 380 972 373 973 q 503 895 465 957 q 509 864 509 882 q 509 851 509 862 q 500 824 509 841 q 491 808 497 817 q 478 793 484 800 q 449 769 470 785 q 404 739 427 754 q 366 717 380 724 q 309 695 345 707 q 249 678 273 683 m 335 886 q 342 881 338 882 q 353 880 347 880 q 376 893 372 880 q 378 901 378 897 q 369 920 378 910 q 351 930 360 930 q 336 922 344 930 q 328 903 328 912 q 335 886 328 895 z "},"’":{"ha":577,"x_min":68,"x_max":509,"o":"m 249 678 q 193 675 227 675 q 165 675 188 675 q 122 681 142 676 q 94 696 107 686 q 73 718 80 706 q 68 746 68 730 q 68 758 68 747 q 76 783 68 768 q 135 850 90 809 q 226 919 180 890 q 365 973 311 973 q 380 972 373 973 q 503 895 465 957 q 509 864 509 882 q 509 851 509 862 q 500 824 509 841 q 491 808 497 817 q 478 793 484 800 q 449 769 470 785 q 404 739 427 754 q 366 717 380 724 q 309 695 345 707 q 249 678 273 683 m 335 886 q 342 881 338 882 q 353 880 347 880 q 376 893 372 880 q 378 901 378 897 q 369 920 378 910 q 351 930 360 930 q 336 922 344 930 q 328 903 328 912 q 335 886 328 895 z "},"‚":{"ha":577,"x_min":68,"x_max":509,"o":"m 249 3 q 193 0 227 0 q 165 1 188 0 q 122 6 142 1 q 94 21 107 11 q 73 43 80 31 q 68 71 68 55 q 68 83 68 73 q 76 108 68 93 q 135 175 90 134 q 226 244 180 216 q 365 298 311 298 q 380 297 373 298 q 503 220 465 282 q 509 189 509 207 q 509 177 509 187 q 500 149 509 166 q 491 134 497 142 q 478 118 484 125 q 449 95 470 110 q 404 64 427 79 q 366 42 380 50 q 309 20 345 32 q 249 3 273 8 m 335 212 q 342 206 338 208 q 353 205 347 205 q 376 218 372 205 q 378 226 378 222 q 369 245 378 235 q 351 255 360 255 q 336 247 344 255 q 328 229 328 237 q 335 212 328 220 z "},"“":{"ha":1058,"x_min":68,"x_max":990,"o":"m 249 678 q 193 675 227 675 q 165 675 188 675 q 122 681 142 676 q 94 696 107 686 q 73 718 80 706 q 68 746 68 730 q 68 758 68 747 q 76 783 68 768 q 135 850 90 809 q 226 919 180 890 q 365 973 311 973 q 380 972 373 973 q 503 895 465 957 q 509 864 509 882 q 509 851 509 862 q 500 824 509 841 q 491 808 497 817 q 478 793 484 800 q 449 769 470 785 q 404 739 427 754 q 366 717 380 724 q 309 695 345 707 q 249 678 273 683 m 335 886 q 342 881 338 882 q 353 880 347 880 q 376 893 372 880 q 378 901 378 897 q 369 920 378 910 q 351 930 360 930 q 336 922 344 930 q 328 903 328 912 q 335 886 328 895 m 730 678 q 674 675 707 675 q 646 675 669 675 q 603 681 623 676 q 574 696 588 686 q 554 718 561 706 q 549 746 549 730 q 549 758 549 747 q 557 783 549 768 q 616 850 571 809 q 707 919 661 890 q 846 973 792 973 q 861 972 854 973 q 983 895 946 957 q 990 864 990 882 q 990 851 990 862 q 981 824 989 841 q 971 808 978 817 q 959 793 965 800 q 929 769 951 785 q 885 739 908 754 q 846 717 861 724 q 790 695 826 707 q 730 678 753 683 m 816 886 q 823 881 819 882 q 834 880 827 880 q 857 893 852 880 q 859 901 859 897 q 850 920 859 910 q 832 930 841 930 q 817 922 825 930 q 808 903 808 912 q 816 886 808 895 z "},"”":{"ha":1058,"x_min":68,"x_max":990,"o":"m 249 678 q 193 675 227 675 q 165 675 188 675 q 122 681 142 676 q 94 696 107 686 q 73 718 80 706 q 68 746 68 730 q 68 758 68 747 q 76 783 68 768 q 135 850 90 809 q 226 919 180 890 q 365 973 311 973 q 380 972 373 973 q 503 895 465 957 q 509 864 509 882 q 509 851 509 862 q 500 824 509 841 q 491 808 497 817 q 478 793 484 800 q 449 769 470 785 q 404 739 427 754 q 366 717 380 724 q 309 695 345 707 q 249 678 273 683 m 335 886 q 342 881 338 882 q 353 880 347 880 q 376 893 372 880 q 378 901 378 897 q 369 920 378 910 q 351 930 360 930 q 336 922 344 930 q 328 903 328 912 q 335 886 328 895 m 730 678 q 674 675 707 675 q 646 675 669 675 q 603 681 623 676 q 574 696 588 686 q 554 718 561 706 q 549 746 549 730 q 549 758 549 747 q 557 783 549 768 q 616 850 571 809 q 707 919 661 890 q 846 973 792 973 q 861 972 854 973 q 983 895 946 957 q 990 864 990 882 q 990 851 990 862 q 981 824 989 841 q 971 808 978 817 q 959 793 965 800 q 929 769 951 785 q 885 739 908 754 q 846 717 861 724 q 790 695 826 707 q 730 678 753 683 m 816 886 q 823 881 819 882 q 834 880 827 880 q 857 893 852 880 q 859 901 859 897 q 850 920 859 910 q 832 930 841 930 q 817 922 825 930 q 808 903 808 912 q 816 886 808 895 z "},"„":{"ha":1058,"x_min":68,"x_max":990,"o":"m 249 -1 q 193 -4 227 -4 q 165 -3 188 -4 q 122 2 142 -3 q 94 17 107 7 q 73 39 80 27 q 68 67 68 51 q 68 79 68 68 q 76 104 68 89 q 135 171 90 130 q 226 240 180 212 q 365 294 311 294 q 380 293 373 294 q 503 216 465 278 q 509 185 509 203 q 509 173 509 183 q 500 145 509 162 q 491 130 497 138 q 478 114 484 121 q 449 91 470 106 q 404 60 427 75 q 366 38 380 45 q 309 16 345 28 q 249 -1 273 4 m 335 208 q 342 202 338 203 q 353 201 347 201 q 376 214 372 201 q 378 222 378 218 q 369 241 378 231 q 351 251 360 251 q 336 243 344 251 q 328 224 328 233 q 335 208 328 216 m 730 -1 q 674 -4 707 -4 q 646 -3 669 -4 q 603 2 623 -3 q 574 17 588 7 q 554 39 561 27 q 549 67 549 51 q 549 79 549 68 q 557 104 549 89 q 616 171 571 130 q 707 240 661 212 q 846 294 792 294 q 861 293 854 294 q 983 216 946 278 q 990 185 990 203 q 990 173 990 183 q 981 145 989 162 q 971 130 978 138 q 959 114 965 121 q 929 91 951 106 q 885 60 908 75 q 846 38 861 45 q 790 16 826 28 q 730 -1 753 4 m 816 208 q 823 202 819 203 q 834 201 827 201 q 857 214 852 201 q 859 222 859 218 q 850 241 859 231 q 832 251 841 251 q 817 243 825 251 q 808 224 808 233 q 816 208 808 216 z "},"‹":{"ha":707,"x_min":68,"x_max":639,"o":"m 434 103 q 218 211 328 125 q 162 264 193 232 q 116 319 132 296 q 68 466 68 391 q 80 541 68 503 q 216 730 102 618 q 295 803 262 777 q 360 844 328 829 q 463 871 418 871 q 549 840 513 871 q 576 777 576 813 q 541 682 576 736 q 523 656 534 671 q 501 629 511 642 q 464 585 477 602 q 444 557 450 568 q 431 536 437 547 q 416 484 416 508 q 428 446 416 464 q 448 423 431 440 q 486 385 464 406 q 533 340 508 365 q 576 296 559 315 q 609 259 599 272 q 625 233 619 246 q 639 185 639 207 q 549 109 639 130 q 502 101 523 102 q 473 100 481 100 q 434 103 452 100 m 233 606 q 243 617 236 609 q 259 636 251 626 q 283 662 268 646 q 314 691 299 677 q 344 718 333 708 q 359 733 355 728 q 366 741 364 739 q 367 747 367 744 q 359 765 367 760 q 345 770 351 770 q 335 768 340 770 q 301 740 325 762 q 251 693 277 718 q 212 649 226 667 q 198 621 198 633 q 205 606 198 612 q 220 600 212 600 q 233 606 226 600 m 175 511 q 190 528 188 519 q 192 540 192 536 q 186 556 192 549 q 167 565 176 565 q 163 564 165 565 q 144 547 151 562 q 140 532 140 539 q 146 515 140 522 q 162 507 153 507 q 175 511 168 507 z "},"›":{"ha":707,"x_min":68,"x_max":639,"o":"m 273 869 q 490 761 380 847 q 545 708 515 740 q 591 653 576 675 q 639 506 639 581 q 627 431 639 469 q 491 241 605 353 q 412 169 445 195 q 347 127 379 142 q 243 100 290 100 q 159 132 194 100 q 131 195 131 159 q 166 290 131 236 q 185 315 174 300 q 206 342 196 330 q 243 387 230 370 q 264 414 257 404 q 276 435 271 425 q 290 488 290 464 q 279 526 290 509 q 260 549 276 532 q 221 587 243 566 q 174 632 199 607 q 132 675 149 657 q 98 713 109 700 q 82 739 88 726 q 68 787 68 765 q 158 863 68 842 q 205 870 184 869 q 235 871 226 871 q 273 869 256 871 m 475 366 q 464 354 471 363 q 448 336 456 346 q 424 310 439 326 q 393 281 408 294 q 363 254 374 264 q 348 239 353 244 q 342 231 343 233 q 340 224 340 228 q 348 207 340 212 q 362 202 356 202 q 372 204 367 202 q 407 232 382 210 q 456 279 431 254 q 496 323 481 304 q 509 351 509 339 q 502 366 509 359 q 488 372 494 372 q 475 366 481 372 m 532 461 q 517 445 519 453 q 515 433 515 436 q 522 416 515 423 q 541 408 531 408 q 545 408 543 408 q 564 425 557 410 q 567 440 567 433 q 561 457 567 450 q 545 465 554 465 q 532 461 539 465 z "},"€":{"ha":1127,"x_min":68,"x_max":1059,"o":"m 867 1 q 787 11 838 3 q 707 23 736 18 q 481 112 588 47 q 302 275 374 176 l 295 285 q 279 307 287 296 q 268 322 272 317 q 258 335 263 330 q 250 340 253 340 q 245 341 248 341 q 235 340 241 341 q 209 338 223 340 q 181 334 194 336 q 161 333 168 333 q 89 374 115 333 q 81 407 81 389 q 83 422 81 414 q 104 467 87 448 q 184 493 127 493 l 201 493 l 201 504 q 195 520 201 515 q 179 530 188 527 q 149 535 170 533 q 105 542 118 538 q 83 555 92 546 q 68 592 68 571 q 68 600 68 596 q 95 643 72 627 q 131 659 111 654 q 199 665 151 663 q 264 671 259 667 q 273 682 267 673 q 286 702 279 690 q 319 753 300 727 q 355 797 338 779 q 577 926 439 879 q 823 972 714 972 q 847 972 836 972 q 1015 913 962 964 q 1036 886 1028 899 q 1048 856 1043 873 q 1052 825 1052 839 q 1025 768 1052 787 q 975 748 1005 755 q 888 736 945 741 q 617 686 687 718 q 598 672 606 680 q 591 659 591 665 q 596 650 591 653 q 617 646 602 647 q 665 644 633 644 q 740 638 713 642 q 785 626 767 635 q 815 579 815 609 l 815 573 q 774 518 812 540 q 728 505 756 509 q 641 498 701 500 q 595 497 612 498 q 568 495 577 496 q 555 493 559 494 q 552 490 552 492 q 559 484 552 486 q 584 481 566 482 q 636 479 602 479 q 747 470 711 477 q 799 447 783 463 q 817 408 817 432 q 769 343 817 368 q 754 339 762 340 q 732 337 747 338 q 686 337 718 337 q 645 337 660 337 q 625 336 631 336 q 619 334 619 335 q 646 292 619 307 q 709 272 672 278 q 773 266 747 267 q 814 266 800 266 l 846 266 q 916 266 892 267 q 949 264 939 266 q 970 260 960 263 q 1036 227 1015 248 q 1059 159 1059 197 q 1056 128 1059 144 q 989 31 1038 61 q 884 0 941 0 q 867 1 876 0 m 425 721 q 490 771 452 745 q 560 814 527 797 q 583 839 583 826 q 576 854 583 846 q 560 861 569 861 q 510 838 549 861 q 434 787 472 814 q 381 741 396 759 q 375 726 375 733 q 382 710 375 718 q 396 703 389 703 q 400 704 398 703 q 425 721 410 706 m 352 638 q 367 652 365 645 q 369 663 369 660 q 364 677 369 671 q 344 687 358 687 q 324 676 331 687 q 317 655 317 666 l 317 653 q 328 636 317 642 q 338 634 334 634 l 340 634 q 352 638 345 634 z "},"−":{"ha":861,"x_min":68,"x_max":793,"o":"m 654 627 q 768 557 731 618 q 793 469 793 513 q 784 412 793 452 q 696 363 774 372 q 669 361 677 362 q 653 359 660 360 q 635 356 646 357 q 603 353 625 355 q 545 348 582 351 q 334 338 412 338 l 323 338 q 210 347 254 338 q 91 423 125 366 q 68 497 68 460 q 81 555 68 517 q 171 610 94 593 q 408 634 293 632 q 451 635 429 635 q 654 627 547 635 m 382 540 q 395 560 395 547 q 394 568 395 561 q 380 580 393 575 q 348 581 372 581 q 296 580 323 581 q 256 576 269 578 q 223 553 223 571 q 225 544 223 549 q 245 530 231 530 q 252 530 248 530 q 335 536 273 536 q 366 537 352 536 q 382 540 379 538 m 481 539 q 500 562 498 545 l 500 564 q 486 585 500 578 q 477 587 482 587 q 462 584 471 587 q 449 572 453 581 q 447 562 447 567 q 454 546 447 553 q 473 538 463 538 q 481 539 477 538 z "}}}
